<svg xmlns="http://www.w3.org/2000/svg" width="1665" height="228"><path fill="#093F68" d="M769.559.005c.491-.01.9-.005 1.238.02.326.024.6.063.919.16.49.15.925.37 1.378.855.999 1.073 1.07 2.667.252 3.82-1.255 1.766-3.609 3.182-6.938 4.374l-.765.266-1.026.351-1.188.403-1.87.628-2.685.885-3.605 1.163-4.063 1.284-7.376 2.291-14.669 4.521-4.678 1.462-4.054 1.288-3.265 1.06-2.735.907a416.23 416.23 0 00-3.751 1.279l-2.616.912-3.126 1.097-5.738 2.033-5.218 1.87-4.238 1.537-6.592 2.416-5.229 1.936-10.161 3.8-13.231 4.998-32.039 12.171-16.02 6.11-10.015 3.837-11.064 4.26-7.523 2.912-8.643 3.364-8.256 3.235-3.994 1.574-5.195 2.057-6.3 2.51-2.464.988-4.84 1.948-4.728 1.916-4.63 1.89-4.54 1.866-4.46 1.847-4.392 1.833-5.409 2.277-4.275 1.816-4.24 1.815-4.214 1.819-3.425 1.488-3.991 1.747-4.668 2.059-2.927 1.302-2.895 1.297-2.864 1.292-2.833 1.287-2.803 1.282-1.39.64-2.756 1.275-2.726 1.271c-.452.211-.902.423-1.351.634l-2.68 1.264-2.65 1.26-2.618 1.255-2.588 1.25-2.558 1.248-2.527 1.242-2.497 1.239-2.466 1.234-2.436 1.231-1.207.614-2.39 1.225-2.362 1.22-2.33 1.218-1.154.607-2.286 1.212-2.255 1.208-2.225 1.205-2.196 1.2-2.166 1.199-1.071.597-2.121 1.193-2.091 1.19-2.062 1.186a445.467 445.467 0 00-3.036 1.774l-1.988 1.18-.982.588-1.943 1.174c-.321.196-.642.391-.96.587l-1.9 1.17c-1.57.974-3.109 1.946-4.617 2.914l-1.796 1.161-.887.58-1.752 1.157a289.446 289.446 0 00-5.081 3.459l-1.635 1.148c-.27.191-.54.382-.807.573l-1.592 1.145a230.595 230.595 0 00-5.344 3.992c-7.646 5.891-11.783 12.337-13.35 19.737-.883 4.166-.989 8.213-.435 13.565l.116 1.053c.02.178.042.358.064.54l.14 1.105.155 1.145.172 1.185.092.608.195 1.25c.214 1.346 1.2 2.73 3.309 4.193l.65.447.413.277.402.261.391.246.385.231c.063.038.127.074.19.11l.38.21.19.098.38.188.387.174c1.166.503 2.431.828 4.14 1.02l.586.06.622.05.66.041.702.033c.12.005.243.01.367.013l.769.02.817.013.869.006 1.06-.003.848-.007 1.831-.028 2.024-.044 5.802-.163 6.362-.21 4.457-.173 3.013-.137 1.868-.096 2.188-.125 2.433-.16 2.246-.172 1.407-.123 1.67-.163 1.275-.139 1.23-.147 1.191-.156.874-.123 1.143-.172.847-.136 1.106-.189.559-.1 1.363-.27 2.781-.586 10.055-2.197 11.415-2.501 2.926-.621 10.886-2.275 7.059-1.492 7.578-1.623 5.387-1.17 6.852-1.512 5.743-1.29 4.778-1.094 4.68-1.088 9.177-2.159 6.05-1.43 16.436-3.919 15.054-3.627 17.195-4.179 29.436-7.21 38.377-9.453 70.597-17.509 133.743-33.286 52.14-12.904 25.086-6.17 19.784-4.845 2.058-.5 3.424-.821 7.473-1.762 8.613-1.983 6.789-1.536 11.755-2.625 121.914-26.966 27.96-6.136 18.93-4.12 16.56-3.573 14.937-3.193 10.164-2.156 12.489-2.632 2.544-.534c1.981-.415 3.953-.822 5.926-1.221l2.538-.51 2.442-.482 2.248-.437 2.259-.433 3.8-.713 3.859-.706 4.728-.84 3.223-.56 3.29-.558 4.219-.701 4.35-.706 3.586-.571 3.688-.577 4.766-.733 3.947-.596 5.115-.761 6.424-.94 5.61-.808 8.277-1.175 11.43-1.597 18.727-2.588 11.85-1.7 5.335-.739 3.68-.488 1.966-.25 2.356-.287 1.374-.161 2.252-.251 2.24-.235 2.725-.267 2.398-.22 1.53-.13 1.93-.153 1.368-.098 1.303-.083.832-.047.804-.04 1.155-.047.736-.022.709-.016.682-.007h.658l.631.007.608.015.294.01.57.027.277.016.536.038.259.023.501.05.48.06.457.067c.297.048.58.101.85.16l.395.094c.128.032.253.066.375.102l.355.11c.115.04.227.08.336.12l.318.13.151.068.291.143c1.408.738 2.163 1.828 2.522 3.33l.067.307.03.157.051.323.09.718.014.078.034.152.072.27.364 1.226.027.094c.66 2.399.492 4.399-1.169 6.314-4.337 5.002-8.484 8.438-14.835 11.66l-.888.443-.859.418-.573.275-1.158.545-1.18.542-.907.406-.932.41-.962.415-1.336.565-1.049.435-1.853.753-2.003.797-2.176.85-3.898 1.496-5.1 1.926-7.823 2.944-3.81 1.46-2.28.892-1.498.599-1.135.46-.55.227c-.732.301-1.455.603-2.192.916l-5.248 2.23-5.272 2.258-3.98 1.716-5.352 2.322-5.42 2.367-5.504 2.42-5.602 2.478-4.276 1.9-5.814 2.598-7.468 3.355-6.512 2.94-1.104.488-1.164.502-1.23.52-1.755.722-1.411.57-2.022.802-3.49 1.357-14.397 5.487-2.068.8-2.632 1.033-1.883.749-1.806.729-2.294.943-1.637.687-1.053.449-1.024.442-.994.436-.966.43-.939.425-1.356.627-1.298.617-.834.406-.81.402-.785.399-.762.396-.74.393-.718.391-.351.195-.687.388-.667.388-.675.403-.672.415-.638.409-.604.402-.29.198-.553.391c-.268.194-.524.384-.767.572l-.47.37c-.15.123-.296.244-.435.363l-.403.353c-1.544 1.393-2.288 2.557-2.254 3.382.025.597.484 1.294 1.434 2.053l.3.23c.157.116.326.233.505.351l.375.238.406.241.436.244c.15.082.307.164.468.247l.5.248c.085.042.172.084.26.125l.548.252c.188.084.381.169.58.253l.613.255c.105.043.211.086.319.128l.662.257.697.258c.237.086.48.172.73.258l.765.26.799.259.413.13.128.037.287.072c.051.012.104.024.159.035l.348.066.39.062.21.03.451.056.493.053.535.05.88.066.977.06.705.035 1.137.048 3.424.103 1.047.027 2.12.046a368.1 368.1 0 002.148.034l2.176.021c.364.003.73.005 1.096.006l2.21.004 2.227-.008 2.243-.02 2.255-.03 2.263-.041 2.269-.053 2.27-.063 1.135-.036 2.267-.08c.755-.027 1.509-.057 2.261-.089l2.252-.1 1.12-.053 2.232-.115 2.213-.124 2.192-.134 2.168-.143 2.14-.153 2.11-.162c.349-.027.696-.055 1.042-.084l2.057-.175c1.698-.15 3.355-.308 4.964-.475l1.905-.204.934-.106 1.828-.216c.9-.11 1.78-.224 2.638-.34l1.738-.243 2.894-.421 3.803-.577 3.621-.565 5.34-.854 6.691-1.096 5.717-.953 10.051-1.702 14.75-2.544 14.482-2.533 24.77-4.39 25.805-4.627 16.3-2.946 42.846-7.798 64.492-11.793 3.84-.673 5.19-.895 5.255-.892 3.974-.665 5.33-.877 5.349-.866 5.352-.85 4.006-.625 3.991-.614 3.97-.601 3.942-.587 2.608-.383 3.879-.56 3.831-.543 2.525-.352 2.498-.342 3.695-.497 3.624-.474 3.546-.452 2.318-.287 2.279-.276 3.339-.392 3.238-.365 2.1-.227 2.05-.214 1.88-.19 3.376-.332 3.184-.303 3.01-.273 2.852-.245 2.712-.217 1.308-.098 1.91-.134 1.242-.081 1.218-.074 1.197-.068 1.178-.06 1.736-.08 1.705-.064 1.124-.034 1.67-.04 1.108-.02 1.655-.016 1.104-.003 1.106.002 1.111.01 1.68.024 1.702.038 1.151.032c1.883.058 3.528.832 3.897 2.79l.057.338.036.145.055.174.075.214.16.415.287.71c1.353 3.37 1.223 5.962-1.738 8.322l-.253.2-.511.396-.523.39c-.088.066-.176.13-.265.195l-.542.387-.277.193-.565.386-.584.387-.604.39-.31.195-.638.395-.663.401-.691.408-.72.416-.75.425-.784.437-1.242.678-1.328.711-1.42.747-6.403 3.302-1.31.684-1.181.627-1.151.623-.8.444-.388.218-.749.428-.714.42-.68.41-.328.2-.63.397-.597.387-.564.378-.27.186-.515.365c-.084.06-.166.12-.246.18l-.468.353c-.075.058-.149.116-.221.174l-.42.34c-1.62 1.35-2.492 2.516-2.71 3.555l-.016.081 3.628.052 5.365.095 2.667.033 1.451.01h1.79l1.655-.017 1.173-.023 1.13-.032 1.1-.043 1.086-.053 1.035-.062.964-.073.624-.057.62-.065.626-.074.64-.084.663-.094.694-.107 1.121-.185.813-.142 3.973-.72 1.162-.198 1.303-.202.868 5.937-1 .153-1.21.204-3.655.664-1.321.231-.811.135-.766.121-.73.108-.705.096-.688.086-.34.038-.68.071-.688.063-.348.028-.715.052-.744.046-.758.041-1.139.052-1.155.041-1.187.031-.815.015-1.71.017-1.366.002-1.964-.01-2.157-.026-8.651-.145-1.259-.013a29.59 29.59 0 01-.631-.012l-.604-.026a15.9 15.9 0 01-.279-.018 8.013 8.013 0 01-.855-.102 3.91 3.91 0 01-.665-.179 3.195 3.195 0 01-.642-.319 2.982 2.982 0 01-1.094-1.227c-1.85-3.777-.812-7.487 2.387-10.802 1.501-1.556 3.453-3.046 6.034-4.657l.837-.512a82.252 82.252 0 011.803-1.055l.97-.545 1.016-.558.764-.411.8-.426 1.762-.922 5.854-3.016 1.82-.955.848-.452 1.202-.65.756-.418 1.072-.603.675-.389.646-.38.618-.37.592-.365.568-.36.546-.353.525-.351.256-.175.497-.348.242-.174.474-.347.232-.175.453-.35.412-.327c.116-.106.128-.192.027-.475l-.075-.195-.575-1.426-.081-.207-.985-.022-1.643-.028-1.626-.015-1.617-.002-1.077.007-1.618.021-1.628.035-1.645.05-1.11.04-1.122.047-1.713.082-1.754.098-1.801.112-1.857.127-1.272.093-2.635.207-2.772.234-2.177.195-3.05.284-4.072.395-2.661.267-1.927.201-2.976.324-2.037.23-2.077.24-2.117.253-2.154.262-3.298.412-3.37.434-3.44.454-3.5.473-3.558.492-2.399.338-3.637.52-2.447.355-3.7.545-4.98.747-3.761.575-3.777.586-5.052.796-5.055.81-3.922.64c-5.856.96-11.67 1.941-17.34 2.925l-5.783 1.019-66.698 12.195-49.07 8.92-25.051 4.504-23.25 4.14-13.727 2.417-14.838 2.585-11.35 1.95-10.21 1.724-7.489 1.24-5.272.856-4.13.657-2.55.397-2.133.327-3.462.516-2.468.354c-.86.12-1.742.238-2.646.352l-1.836.225-1.89.217-1.94.21c-.983.101-1.983.2-2.999.296l-2.052.187-2.092.179-1.059.085-2.144.165-1.083.079-2.189.15-1.104.073-2.227.136c-.745.044-1.495.086-2.247.126l-2.265.117-2.28.107-2.29.096-2.298.085-1.15.04-2.304.07-2.304.058-1.15.025-2.297.043c-.764.012-1.527.022-2.288.03l-2.276.02-2.26.008-2.243-.004-2.22-.016-2.195-.028-2.167-.04c-.36-.007-.716-.016-1.072-.025l-4.127-.118-.884-.032-.837-.037-.79-.04-.745-.044-.703-.05-.662-.054-.624-.06-.586-.068-.552-.074a21.71 21.71 0 01-.518-.081l-.486-.09c-.157-.031-.31-.064-.457-.098l-.429-.107a10.75 10.75 0 01-.402-.116l-.476-.15-.928-.302a54.132 54.132 0 01-3.802-1.416l-.762-.328c-5.846-2.59-8.893-5.665-9.056-9.57-.18-4.318 3.225-8.078 9.579-11.996l.776-.471.7-.412.717-.412.737-.412.756-.413.778-.415.799-.416.821-.418.844-.421 1.311-.637.905-.43.93-.433.957-.437 1.486-.666 1.55-.678 1.07-.46 1.66-.702 1.147-.477 1.779-.73 1.227-.497 2.557-1.02 2.01-.79 2.092-.813 6.5-2.483 8.736-3.328 2.78-1.079 2.021-.798 1.408-.565 1.744-.714 1.218-.51 1.147-.49 1.084-.476.69-.31 4.64-2.096 6.045-2.72 4.434-1.987 5.792-2.584 5.67-2.515 6.939-3.058 5.452-2.385 5.38-2.338 3.999-1.727 5.294-2.272 3.951-1.684 3.472-1.47 1.956-.811 1.722-.697 2.473-.977 3.576-1.378 5.376-2.032 6.995-2.63 4.045-1.541 2.679-1.038 2.031-.802 1.872-.753 1.398-.575 1.321-.554 1.863-.806.888-.395.866-.393 1.407-.655 1.105-.53.824-.404c5.738-2.838 9.351-5.735 13.192-10.088l.372-.426c.053-.06.077-.093.06-.214l-.024-.127-.08-.306-.18-.621-.22-.734-.09-.32-.072-.293-.066-.298-.05-.261-.039-.258-.054-.446-.138-.036-.207-.048-.142-.028-.305-.054a11.273 11.273 0 00-.163-.024l-.345-.046-.374-.039-.403-.034-.43-.028-.46-.022-.49-.016-.52-.01-.836-.005-.294.002-.611.008-.643.014-1.024.033-1.097.048-1.17.062-1.247.077-1.323.092-1.885.146-.995.084-1.498.133-2.73.257-2.66.27-2.212.242-2.71.315-3.32.413-3.062.402-4.515.619-6.567.933-10.834 1.546-13.301 1.829-8.478 1.179-9.28 1.308-5.03.718-7.194 1.042-3.45.507-4.459.663-5.357.81-5.137.793-3.964.624-4.792.77-2.794.459-4.538.76-2.658.455-3.478.607-2.564.456-3.368.61-1.665.308-2.478.464-4.086.782-3.243.636-4.036.81-1.614.33-2.524.524-10.912 2.294-9.877 2.089-13.786 2.936-10.095 2.166-15.697 3.393-25.113 5.479-28.925 6.363-88.049 19.488-27.956 6.184-11.056 2.48-9.458 2.162-7.13 1.667-3.662.872-4.552 1.098-26.938 6.602-41.024 10.117-57.012 14.15-142.813 35.538-32.698 8.093-53.94 13.274-31.651 7.714-13.555 3.268-12.197 2.916-8.666 2.056-7.54 1.78-7.427 1.74-5.543 1.277-4.878 1.104-4.182.933-6.07 1.335-5.442 1.18-6.674 1.427-8.122 1.716-11.535 2.412-6.654 1.447-14.443 3.17-2.641.565-2.12.441-1.321.258-.999.175-1.435.235-1.456.22-1.493.203-1.23.153-.947.11-1.304.137-1.357.131-1.416.124-1.483.118-2.368.165-1.683.103-2.703.147-2.936.14-3.195.131-5.331.19-6.55.2-2.495.062-1.838.037-2.111.028L382 228l-1.109-.003-1.046-.012-.665-.014-.64-.018-.616-.023-.593-.028-.57-.033-.818-.06-.52-.045-.502-.052-.484-.058-.468-.064-.453-.07-.438-.076-.425-.083-.412-.089-.402-.096-.39-.103-.382-.11-.373-.117-.366-.124-.36-.133-.354-.14-.35-.147-.347-.156-.345-.165-.343-.172-.515-.275-.518-.295-.35-.207-.53-.33-.36-.23-.741-.492-.578-.394-.197-.136c-3.365-2.336-5.32-5.08-5.813-8.179l-.107-.678-.202-1.321-.184-1.278-.167-1.237a119.02 119.02 0 01-.078-.604l-.141-1.18c-.729-6.392-.652-11.208.435-16.34 1.867-8.815 6.797-16.497 15.558-23.247a241.122 241.122 0 017.06-5.23l1.648-1.167a292.203 292.203 0 015.995-4.1l1.778-1.175a353.263 353.263 0 018.362-5.318l1.939-1.188c.976-.595 1.964-1.19 2.963-1.787l2.012-1.195 2.042-1.198 2.07-1.2 2.102-1.203 1.061-.603 2.146-1.208 2.175-1.21 2.205-1.214 2.234-1.217 2.265-1.22 2.294-1.224c.77-.408 1.545-.817 2.325-1.227l2.354-1.23 1.189-.617 2.4-1.236 1.21-.62 2.446-1.24 2.475-1.245 2.505-1.25 2.536-1.252 2.566-1.257 2.597-1.26 2.627-1.266 2.658-1.269 2.688-1.273 2.719-1.278 2.75-1.282 2.78-1.287 2.811-1.291 2.842-1.296 2.873-1.3 2.904-1.306 2.935-1.31 2.966-1.315 2.639-1.163 3.397-1.49 3.33-1.45 3.338-1.445 4.47-1.921 4.503-1.92 3.406-1.44 3.437-1.446 3.473-1.451 4.695-1.949 3.577-1.473 4.852-1.986 3.708-1.508 5.045-2.04 5.174-2.076 3.971-1.584 5.426-2.154 5.587-2.204 7.228-2.835 7.522-2.933 7.84-3.04 9.862-3.802 12.182-4.673 14.893-5.683 38.948-14.792 10.283-3.877 9.115-3.406 6.554-2.423 5.086-1.861 4.388-1.59 3.567-1.281 3.558-1.268 3.308-1.17 3.357-1.178 2.575-.898 2.903-.995 2.055-.69 2.487-.82 3.443-1.112 4.777-1.51 6.79-2.108 15.005-4.625 5.528-1.731-72.005 10.014-18.332 2.57-17.443 2.473-15.67 2.253-13.478 1.972-10.995 1.637-7.181 1.084-4.256.649-7.689 1.182-11.557 1.798-12.524 1.963-9.281 1.466-11.715 1.862-15.718 2.522L507.42 43.9l-18.625 3.046-31.657 5.229-34.693 5.779-97.862 16.375-26.715 4.328-10.11 1.673-5.365.91-5.445.948-4.024.72-4.235.785-3.559.683-3.412.678-2.492.511-.86.18c-1.432.3-2.849.605-4.268.917l-1.705.377-5.103 1.142-7.53 1.692-4.96 1.121-4.929 1.118-10.696 2.445-11.427 2.638-14.097 3.29-12.29 2.899-11.645 2.768-18.085 4.33-24.856 5.999-100.024 24.283-16.184 3.885-8.873 2.118-1.39-5.837 13.233-3.161 30.151-7.272 75.816-18.428 25.367-6.131 15.796-3.793 13.057-3.115 12.313-2.916 8.85-2.081 10.018-2.338 8.406-1.945 9.698-2.227 8.305-1.891 11.192-2.527 10.304-2.303 1.72-.375 3.459-.733 3.08-.63 2.252-.448 1.842-.359 3.335-.633 2.484-.46 4.19-.755 3.92-.688 5.448-.933 7.388-1.235 6.734-1.105 28.142-4.566 99.64-16.68 38.192-6.352 20.838-3.439 20.674-3.383 18.048-2.923 14.757-2.366 7.957-1.266 9.273-1.467 10.994-1.728 11.196-1.749 5.764-.893 7.124-1.095 10.547-1.6 8.196-1.224 13.253-1.95 7.985-1.157 14.977-2.146 20.422-2.884 28.122-3.928 56.02-7.785 1.295-.173 1.327-.168 1.371-.165 1.914-.217 2.036-.215 2.184-.219 4.25-.397 2.017-.18.63-.048.347-.022.718-.036c.238-.01.47-.018.686-.023z" opacity=".25"/></svg>