<svg xmlns="http://www.w3.org/2000/svg" width="545" height="379"><path fill="#093F68" d="M125.829 372.73l.054.053h.019l.111.01.248.014.123.004.272-.002.311-.014.353-.027.4-.041.45-.055.503-.068.699-.105.823-.13.77-.13.722-.13.343-.066.653-.132.61-.134c.099-.022.195-.045.29-.068l.552-.14c1.78-.471 2.966-1.02 4.015-1.797l.312-.24.305-.254.152-.133.216-.199.16-.158.307-.323.382-.413.835-.924 3.1-3.511 1.968-2.234 1.192-1.34.774-.857.442-.479 1.896-2.038 1.214-1.312 1.75-1.903 1.67-1.833 1.601-1.772 1.538-1.72 1.48-1.677.961-1.098 1.404-1.624.916-1.071 1.348-1.596.885-1.06 4.314-5.24 3.466-4.244 4.24-5.237 4.078-5.08 6.061-7.609 6.4-8.086 9.943-12.624 6.501-8.279 15.834-20.256 50.115-64.353 14.12-18.035 4.882-6.206 6.999-8.87 3.928-4.962 1.179-1.472 1.721-2.12 1.246-1.51 1.825-2.181 1.97-2.32 2.833-3.29 3.272-3.758 34.858-39.799 10.383-11.789 6.585-7.419 3.828-4.282 5.123-5.69 3.929-4.326 2.986-3.266 3.46-3.764 1.699-1.84.755-.807.754-.794.754-.783.756-.773.758-.764.761-.756.767-.748.772-.743 1.172-1.105.792-.732.802-.73.814-.73.826-.728.84-.73.854-.731.87-.734.887-.739.906-.743 1.395-1.127.956-.761.98-.77 1.512-1.173 1.57-1.198 1.08-.815 1.673-1.25 1.741-1.284 1.2-.877 1.234-.896 1.914-1.38 1.995-1.427 4.035-2.863.917-.665 2.761-2.05.792-.582 1.102-.802.685-.49.651-.456.62-.426.596-.398c.097-.065.193-.128.289-.19l.565-.362.55-.34.272-.164.537-.314.535-.3.535-.287c.09-.048.18-.094.27-.14l.546-.275.558-.27.285-.133c3.941-1.826 6.869-2.014 8.892.2.944 1.033 1.336 1.95 1.515 3.55l.045.476.02.253.03.54.025.587.064 2.295.075 1.428.094 1.635c.148 2.764.117 4.641-.213 6.607l-.128.753-.254 1.46-.255 1.406-.255 1.353-.129.659-.26 1.282-.264 1.238a95.361 95.361 0 01-.83 3.493l-.293 1.1a65.999 65.999 0 01-2.014 6.187l-.446 1.141-.383.949-.518 1.246-.4.932-.414.94-.432.957-.611 1.318-.49 1.031-.705 1.449-.57 1.154-1.044 2.078-.93 1.825-3.886 7.553-.81 1.599-.847 1.705-.513 1.053-.367.765-.493 1.047-.491 1.064-1.445 3.168-1.45 3.2-1.947 4.327-1.97 4.413-1.998 4.513-2.551 5.807-2.092 4.798-2.691 6.215-2.223 5.165-1.138 2.653c-.115.27-.234.542-.355.818l-.374.84-.395.866-.418.897-.443.934-.717 1.48-.787 1.592-1.017 2.022-4.264 8.383-.73 1.458-1.034 2.1c-.112.229-.222.455-.33.68l-.638 1.328-.61 1.29-.581 1.257-.281.616-.543 1.21-.262.594-.505 1.169-.482 1.146c-.157.378-.31.753-.46 1.125l-.437 1.108c-.214.55-.42 1.094-.619 1.635l-.388 1.076-.187.535-.362 1.066-.174.531c-3.79 11.672-3.778 21.006.767 28.598l.138.226.066.024.085.026.213.053.46.086.7.102c5.939.853 13.512-1.034 18.315-4.507l.522-.384.762-.577.618-.48.888-.706.958-.777 1.57-1.299 1.725-1.457 2.206-1.895 2.052-1.789 2.58-2.275 2.776-2.474 2.966-2.668 5.037-4.574 2.936-2.686 6.257-5.765 3.88-3.597 5-4.659 8.68-8.14 27.087-25.542 1.136-1.027 1.147-1.026 1.158-1.024 1.166-1.02 1.174-1.014 1.18-1.008 1.183-.999.593-.496 1.187-.983 1.186-.972.593-.48 1.184-.95.59-.469 1.178-.925.587-.456 1.167-.897 1.16-.876a159.573 159.573 0 013.408-2.49l1.109-.777 1.092-.75c.18-.123.36-.244.539-.364l1.064-.704c1.932-1.262 3.762-2.362 5.443-3.256l.913-.475.886-.449.85-.42c5.28-2.57 8.57-3.4 12.814-2.729 1.354.215 2.17 1.083 2.581 2.118.19.48.277.975.29 1.449l.024.683.028.539.073 1.082.17 2.194.06.891.05.836.033.786.024.742c.028 2.046-.127 3.634-.546 5.36l-.11.445-.223.88-.23.87-.24.866-.251.87-.13.436-.27.882-.284.898c-.048.152-.098.304-.148.457l-.309.932-.328.961-.347.996-.37 1.037-.598 1.642-.43 1.16-2.055 5.468-.596 1.621-.27.752c-2.764 7.743-4.018 13.546-3.838 19.707l.019.532.578.055.599.051.535.036c1.097.06 1.795.007 2.418-.177a1.62 1.62 0 00.378-.171l.176-.116.2-.149.23-.188.127-.11.286-.256.514-.482.528-.498.293-.268.263-.233.25-.21.255-.202.134-.102 3.616 4.788-.15.117-.239.2-.184.164-.477.446-.15.143c-1.776 1.69-2.708 2.395-4.348 2.88-1.648.487-3.116.539-5.374.35l-1.87-.172-.522-.04-.348-.018c-.45-.02-.91-.098-1.374-.277-1.102-.424-2.024-1.3-2.164-2.777-.766-8.063.484-15.047 3.734-24.321l.392-1.104.753-2.056 2.05-5.455.613-1.658.378-1.04.524-1.477.323-.935.304-.903.287-.875.27-.852.256-.836.243-.823.23-.816.222-.815.213-.819.205-.828c.287-1.18.398-2.355.368-3.972l-.017-.629a41.37 41.37 0 00-.014-.33l-.036-.701-.049-.755-.202-2.65-.031-.418-.218.014c-1.605.118-3.313.643-5.58 1.663l-.697.32-.733.351-.773.382-.401.203-.821.421c-1.953 1.011-4.17 2.365-6.555 3.972l-1.032.704c-.694.479-1.401.978-2.119 1.494l-1.084.787-1.097.811-.553.415-1.116.845-1.124.867-1.133.885-1.138.903-1.144.918-.572.465-1.147.94-1.147.95-1.146.963-.572.484-1.708 1.464-1.131.983-1.123.987-1.113.99-1.102.99-.666.609-26.989 25.45-10.651 9.98-5.248 4.877-5.467 5.051-4.605 4.226-3.838 3.494-4.02 3.63-3.307 2.953-1.935 1.712-2.537 2.221-2.013 1.739-1.56 1.33-1.173.985-1.103.915-1.28 1.043-.946.754-.662.517-.622.476-.581.435-.365.267c-5.933 4.29-14.819 6.562-22.213 5.646l-.525-.07-.782-.116-.25-.043c-2.041-.363-3.545-1.073-4.582-2.738-5.871-9.417-5.962-20.613-1.614-34.003.244-.75.499-1.502.765-2.256l.409-1.135.428-1.143c.218-.574.445-1.153.679-1.737l.48-1.178.502-1.196.526-1.22.55-1.243.285-.632.59-1.287.617-1.32.644-1.354.334-.692.689-1.414 1.092-2.203 1.659-3.278 3.436-6.753.55-1.098.762-1.541.468-.964.44-.918.413-.878.389-.843.366-.812.346-.786 3.535-8.222 2.166-5.005 2.11-4.849 2.063-4.708 2.022-4.583.999-2.25 1.975-4.427 1.954-4.343 1.94-4.274 1.285-2.81.57-1.218.443-.929.462-.952.49-.994.739-1.475 1.286-2.525 2.949-5.72.93-1.822.844-1.67.948-1.908.349-.715.334-.69.475-.999.591-1.271.28-.617.271-.607.393-.898.379-.89.247-.595.244-.598c.162-.4.323-.803.484-1.215 1.008-2.57 1.827-5.214 2.568-8.263l.258-1.094c.213-.926.42-1.89.625-2.903l.244-1.238.243-1.286.242-1.338.242-1.393.122-.718c.165-.984.228-2.002.21-3.309l-.017-.743-.032-.809-.188-3.417-.032-.901-.038-1.525-.027-.612-.026-.355-.021-.2-.088.024a11.65 11.65 0 00-1.6.6l-.248.114-.478.226-.47.232-.231.119-.463.244-.23.127-.466.262-.471.278-.482.295-.497.316-.515.337-.538.362-.565.39-.595.419-.96.689-1.422 1.044-2.324 1.727-1.022.747-.92.659-2.1 1.485-2.664 1.899-1.277.917-2.45 1.774-1.176.859-1.704 1.256-1.637 1.221-1.574 1.19-1.015.776-.99.765-1.441 1.129-.932.74-.911.733-.891.726-.872.72-.854.714-.838.71-.821.709-.808.706-.794.705-.783.705-.771.707-.762.709-.753.712-1.116 1.077-.737.724-.732.732-.729.74-.726.748-.726.759-.726.77-.726.78-2.835 3.076-2.783 3.034-1.7 1.86-5.053 5.566-2.91 3.229-3.752 4.189-5.58 6.27-7.033 7.959-10.694 12.176-22.529 25.745-7.854 8.954-3.187 3.664-2.178 2.529-1.427 1.673-2.113 2.51-1.487 1.796-.964 1.179-.746.92-.992 1.235-1 1.257-8.463 10.71-6.973 8.862-14.776 18.876-53.314 68.455-11.74 15.008-14.974 19.04-8.75 11.059-3.273 4.111-3.465 4.332-2.934 3.648-2.137 2.644-4.882 5.993-2.576 3.137-2.116 2.563-.9 1.08-.912 1.082-1.391 1.631-1.427 1.65-.975 1.115-.996 1.13-1.539 1.729-1.6 1.777-1.103 1.216-1.717 1.878-2.417 2.618-2.22 2.39-.731.808-2.328 2.63-3.027 3.432-1.333 1.49-.953 1.04-.502.528-.293.291-.08.075c-2.202 2.026-4.405 3.19-7.985 4.073l-.71.168c-.244.054-.493.108-.748.161l-.786.156-.827.152-.87.149-1.06.168-.61.09-.584.076-.56.062-.538.05-.513.034-.492.02c-3.208.08-5-.869-6.403-3.53l-.207-.412-.203-.439a17.242 17.242 0 01-.1-.229l-.195-.479a22.467 22.467 0 01-.097-.25l-.192-.52-.19-.547-.189-.577-.188-.607-.188-.636-.19-.666c-.958-3.431-1.468-7.127-1.59-11.08l-.118-4.039-.076-2.937-.045-1.917-.058-2.813-.047-2.742-.024-1.79-.02-1.76-.013-1.731-.01-2.543.003-2.482.016-2.424.03-2.366.027-1.548.034-1.524.04-1.502.047-1.48.054-1.46.06-1.439.068-1.42.074-1.4.081-1.382.089-1.365.095-1.349.051-.668.107-1.325.114-1.31.123-1.296.13-1.282.138-1.27.146-1.259.154-1.247.08-.62.166-1.231.087-.613.179-1.218.187-1.21.197-1.202.205-1.196.214-1.19.223-1.184.232-1.18.241-1.176.25-1.173.26-1.17.27-1.17.28-1.168c.094-.39.19-.779.288-1.168 8.111-32.245 20.114-65.59 36.33-102.45l1.116-2.528 1.115-2.512.745-1.668.746-1.664c1.244-2.77 2.496-5.53 3.768-8.3l1.982-4.294 1.542-3.31 2.205-4.687 1.941-4.085 1.997-4.164 1.71-3.541 2.116-4.347 3.316-6.753 3.509-7.078 2.878-5.763 4.815-9.573 5.706-11.263 14.56-28.546 3.317-6.45 2.43-4.69 2.48-4.734 1.407-2.658 1.818-3.4 1.108-2.052 1.1-2.02 1.33-2.426 1.359-2.456.64-1.144.797-1.399.658-1.135.693-1.175.73-1.221.784-1.29 1.534-2.49 2.38-3.802 4.228-6.725 1.715-2.767.932-1.528 1.02-1.7 1.107-1.895.16-.279-20.555 14.745-6.536 4.72-4.768 3.473-4.343 3.196-2.261 1.68-3.02 2.267-2.888 2.194-2.004 1.54-1.513 1.172-2.436 1.906-1.31 1.033-1.126.894-1.891 1.511-3.11 2.503-2.686 2.173-2.66 2.163-3.18 2.601-4.26 3.512-3.462 2.877-4.46 3.732-5.626 4.748-4.995 4.245-9.325 7.98-7.36 6.334-11.034 9.529-17.028 14.723-2.497 2.151-2.1 1.783-6.547 5.46-2.209 1.862-1.616 1.38-1.497 1.296-1.05.924-.996.888-.944.857-.605.558-.872.818-.56.536-.546.53-.794.785-.516.521-.506.52-.745.783-.733.789-.725.8-.481.543-.483.551a1217.98 1217.98 0 00-7.225 8.398l-2.314 2.725-2.85 3.378-3.198 3.826-2.91 3.508-3 3.643-3.516 4.299-4.555 5.609-4.903 6.076-7.896 9.848-24.092 30.22-3.762 4.702-3.28 4.086-3.717 4.606-4.139 5.103L.5 237.937l3.857-4.755 5.822-7.224 10.866-13.598 17.87-22.422 6.867-8.571 3.88-4.822 5.842-7.214 3.765-4.615 4.368-5.307 3.433-4.134 3.356-4.004 2.583-3.057 1.638-1.927c1.921-2.255 3.854-4.505 5.836-6.797l1.754-2.021.51-.58.767-.854.513-.56.516-.554.521-.55.795-.822.54-.547.831-.824.57-.554.882-.842.92-.858.637-.585.996-.9 1.047-.931 1.105-.968 1.572-1.357 1.697-1.444 2.807-2.358 5.248-4.374 1.842-1.557 1.176-1.007 30.609-26.448 7.895-6.791 7.665-6.558 6.01-5.108 4.242-3.58 4.95-4.147 3.051-2.54 5.131-4.232 3.192-2.611 2.455-1.998 2.803-2.268 1.417-1.142 1.43-1.15a596.262 596.262 0 015.32-4.225l1.902-1.486 2.755-2.128 3.243-2.471 3.84-2.883 2.713-2.013 4.362-3.204 3.683-2.682 8.299-5.99L242.449 6.06l2.084-1.501c1.647-1.19 3.371-2.111 5.924-3.274a5.587 5.587 0 011.623-.449c.567-.062 1.106-.034 1.72.203a3.146 3.146 0 011.995 3.386 19.314 19.314 0 01-2.27 6.798c-.323.574-.64 1.132-.958 1.684l-.963 1.656-1.012 1.703-1.108 1.824-1.472 2.384-1.733 2.771-4.09 6.5-2.131 3.427-1.387 2.274-.717 1.196-1.006 1.713-.47.816-.62 1.09-.622 1.112-1.35 2.438-.882 1.608-1.58 2.9-1.837 3.41-1.886 3.547-1.981 3.768-3.245 6.246-3.707 7.208-13.184 25.843-4.723 9.306-4.4 8.717-4.108 8.195-3.012 6.053-2.466 4.99-2.755 5.617-2.637 5.427-2.177 4.522-2.455 5.151-2.041 4.331-1.994 4.274-1.631 3.53-1.29 2.813-.958 2.106-1.121 2.478-.745 1.653c-1.239 2.758-2.47 5.528-3.704 8.333l-.788 1.796-1.555 3.575a919.861 919.861 0 00-2.283 5.321l-1.489 3.52c-12.782 30.423-22.545 58.503-29.49 85.716l-.398 1.57c-.094.375-.187.75-.278 1.125l-.27 1.127-.13.564-.255 1.13-.247 1.131-.12.567-.232 1.138-.223 1.141-.11.573-.21 1.15-.202 1.156-.193 1.162-.185 1.17-.177 1.18-.169 1.187c-.027.2-.055.398-.081.598l-.157 1.203-.075.605-.145 1.22-.07.613-.132 1.237-.064.624-.122 1.257-.114 1.271-.054.641-.103 1.293-.096 1.31-.09 1.325-.081 1.343-.075 1.361-.068 1.38-.062 1.398-.054 1.42-.049 1.439-.042 1.461-.035 1.484-.03 1.506-.032 2.304-.02 2.36-.006 2.417.003 1.644.014 2.52.017 1.715.034 2.628.03 1.79.074 3.673.068 2.84.05 1.935.117 3.974c.108 3.495.552 6.716 1.372 9.65l.249.879.224.763.2.656.18.555.16.463.14.376.085.207.079.174.071.144.067.114.06.089.029.035z" opacity=".25"/></svg>