<svg xmlns="http://www.w3.org/2000/svg" width="46" height="46"><g fill="#3EE9E5"><path d="M44.432 28.703h-26.2c-.658 0-1.191-.536-1.191-1.196V1.196c0-.66.533-1.196 1.19-1.196h26.2c.659 0 1.192.535 1.192 1.196v26.31c0 .661-.533 1.197-1.191 1.197zm-25.01-2.392h23.819V2.39H19.423v23.92z"/><path d="M15.649 45.452C7.016 45.46.01 38.44 0 29.77c-.01-8.67 6.976-15.708 15.609-15.723 8.633-.015 15.645 6.998 15.664 15.667a15.737 15.737 0 01-4.563 11.122 15.604 15.604 0 01-11.061 4.616zm0-29.001a13.254 13.254 0 00-12.26 8.22 13.352 13.352 0 002.888 14.516 13.214 13.214 0 0014.462 2.86c4.953-2.075 8.172-6.944 8.153-12.333-.033-7.326-5.949-13.25-13.243-13.263z"/></g></svg>