<svg xmlns="http://www.w3.org/2000/svg" width="88" height="106"><g fill="none"><path fill="#080C20" d="M70.053 65.39a42.995 42.995 0 01-.608 7.362 32.388 32.388 0 01-4.51 12.02c-6.207 9.756-17.369 14.423-29.584 14.423-12.216 0-23.39-4.667-29.596-14.423a28.956 28.956 0 01-2.391-4.628 32.41 32.41 0 01-1.529-4.56c-.22-.905-.428-1.84-.579-2.803a42.963 42.963 0 01-.579-7.363c.017-3.988.481-7.961 1.384-11.848a61.142 61.142 0 011.285-4.873 77.892 77.892 0 013.063-8.406c6.803-15.843 18.486-29.463 28.936-29.463 8.464 0 17.785 8.976 24.622 20.847a77.387 77.387 0 013.12 5.99c.412.86.806 1.737 1.188 2.615a80.25 80.25 0 013.062 8.395 58.6 58.6 0 012.716 16.714z"/><path fill="#093F68" d="M35.316 99.765c-13.177 0-24.137-5.357-30.077-14.691a29.716 29.716 0 01-2.443-4.72 32.689 32.689 0 01-1.545-4.66 26.7 26.7 0 01-.58-2.85 43.417 43.417 0 01-.62-7.455 54.13 54.13 0 011.443-11.933 67.403 67.403 0 011.297-4.913 79.06 79.06 0 013.085-8.462c6.16-14.35 18.006-29.823 29.44-29.823 8.105 0 17.507 7.899 25.138 21.137a76.871 76.871 0 013.138 6.03c.387.81.787 1.71 1.157 2.61v.034a79.736 79.736 0 013.08 8.457 58.55 58.55 0 012.803 16.863c.008 2.5-.2 4.995-.62 7.46a32.98 32.98 0 01-4.59 12.225c-5.94 9.334-16.9 14.691-30.106 14.691zm0-88.333c-9.362 0-21.04 11.968-28.369 29.104a78.148 78.148 0 00-3.05 8.344 70.57 70.57 0 00-1.274 4.832A52.974 52.974 0 001.21 65.401a42.464 42.464 0 00.579 7.266c.15.883.342 1.79.579 2.764a32.502 32.502 0 001.494 4.508 29.46 29.46 0 002.35 4.559c5.755 8.964 16.367 14.128 29.104 14.128 12.737 0 23.378-5.158 29.103-14.157a31.9 31.9 0 004.476-11.813c.4-2.402.594-4.833.579-7.267a57.786 57.786 0 00-2.687-16.526 78.74 78.74 0 00-3.033-8.31v-.034a74.822 74.822 0 00-1.158-2.593 78.023 78.023 0 00-3.103-5.955c-7.336-12.674-16.581-20.573-24.177-20.573v.034z"/><path fill="#3EE9E5" d="M60.02 31.8c.665 1.539-.985 7.09-1.054 8.942a98.191 98.191 0 01-1.25 10.64 7.495 7.495 0 01-.811 2.849 2.654 2.654 0 01-2.467 1.368c-1.267-.166-2.032-1.488-2.275-2.719-.243-1.23-.145-2.541-.62-3.704-.474-1.163-1.87-2.126-3.016-1.561-.47.28-.846.693-1.076 1.185-.921 1.67-1.228 3.59-1.523 5.465-1.002 6.417-3.12 13.586-2.704 20.066.133 2.103.527 4.417-1.771 5.733-2.299 1.317-4.782-.49-5.732-2.564-.88-1.915-.903-4.086-1.36-6.138-.632-2.85-3.636-10.435-7.104-5.54-.892 1.26-1.158 2.85-1.372 4.36a218.19 218.19 0 00-2.148 27.025c-.035 2.097-.081 4.33-1.274 6.069-1.192 1.738-4.006 2.547-5.47 1.026-.858-.89-.98-2.229-1.049-3.454-.579-10.155-.336-20.584-1.517-30.683-.689-5.853-6.368-15.159-12.337-16.584a61.142 61.142 0 011.285-4.872 77.892 77.892 0 013.063-8.406c6.774-15.855 18.457-29.475 28.907-29.475 8.464 0 17.785 8.976 24.622 20.847a77.387 77.387 0 013.12 5.99c-1.186-1.796-1.973-3.967-3.068-5.865z"/><path fill="#093F68" d="M18.972 105.676a3.296 3.296 0 01-2.426-.981c-1.053-1.089-1.158-2.73-1.204-3.818-.208-3.688-.313-7.472-.41-11.13-.175-6.44-.36-13.108-1.107-19.513-.63-5.369-6.027-14.698-11.903-16.1a.57.57 0 01-.428-.672 66.77 66.77 0 011.297-4.919 79.06 79.06 0 013.085-8.462c6.16-14.35 18.006-29.823 29.44-29.823 8.105 0 17.507 7.899 25.138 21.137a76.871 76.871 0 013.138 6.03.565.565 0 01-.244.74.584.584 0 01-.77-.193 29.878 29.878 0 01-1.806-3.42 7.163 7.163 0 00-.145-.301c-.121.991-.347 2.165-.613 3.499-.223.98-.387 1.97-.492 2.969a77.978 77.978 0 01-1.002 8.993c-.087.57-.168 1.14-.249 1.71a7.885 7.885 0 01-.897 3.031 3.236 3.236 0 01-3.04 1.642c-1.627-.211-2.5-1.847-2.761-3.175a15.172 15.172 0 01-.174-1.402 7.547 7.547 0 00-.417-2.194 2.395 2.395 0 00-1.29-1.282 1.134 1.134 0 00-.927 0 2.198 2.198 0 00-.828.952c-.874 1.595-1.158 3.465-1.46 5.277-.3 1.812-.66 3.727-1.053 5.699-.95 4.77-1.933 9.688-1.644 14.247l.04.53c.14 1.938.313 4.348-2.095 5.728a3.81 3.81 0 01-3.132.324 5.886 5.886 0 01-3.422-3.145 15.357 15.357 0 01-1.013-4.138 27.622 27.622 0 00-.353-2.051c-.58-2.52-2.316-6.343-3.978-6.674-.665-.125-1.366.32-2.09 1.34-.787 1.11-1.042 2.524-1.273 4.114a218.202 218.202 0 00-2.148 26.973c-.035 2.103-.075 4.485-1.378 6.377a5.012 5.012 0 01-3.601 2.069l-.365.012zm-16.21-52.5c6.2 1.933 11.579 11.279 12.227 16.926.758 6.463.938 13.148 1.117 19.616.099 3.647.203 7.409.406 11.096.07 1.22.19 2.37.891 3.094.48.475 1.156.702 1.83.616a3.874 3.874 0 002.738-1.567c1.106-1.613 1.158-3.722 1.158-5.762.166-9.068.895-18.118 2.183-27.098.249-1.738.532-3.289 1.47-4.61 1.007-1.42 2.107-2.024 3.265-1.802 2.733.536 4.481 5.762 4.88 7.552.157.706.267 1.43.371 2.125.131 1.337.453 2.65.956 3.898a4.774 4.774 0 002.715 2.53 2.66 2.66 0 002.194-.222c1.79-1.031 1.662-2.798 1.523-4.667l-.035-.541c-.301-4.69.695-9.689 1.656-14.527.394-1.966.764-3.83 1.054-5.659.289-1.83.607-3.881 1.586-5.653a3.285 3.285 0 011.32-1.42 2.35 2.35 0 011.852-.068 3.528 3.528 0 011.957 1.92c.294.811.462 1.66.498 2.52.032.435.086.869.162 1.299.197 1.032.822 2.131 1.778 2.28.79.01 1.52-.414 1.893-1.1a7.106 7.106 0 00.74-2.61c.082-.57.169-1.14.25-1.71.498-2.936.83-5.896.996-8.868.099-1.058.269-2.109.51-3.145.399-1.995.943-4.73.578-5.557-7.324-12.765-16.57-20.664-24.165-20.664-9.362 0-21.04 11.968-28.369 29.104a78.148 78.148 0 00-3.05 8.343c-.423 1.494-.834 2.941-1.153 4.332h.018z"/><path fill="#080C20" d="M56.422 70.261l4.69-3.933 3.646 4.212-4.689 3.933z"/><path fill="#093F68" d="M60.066 75.032a.583.583 0 01-.44-.2l-3.648-4.21a.564.564 0 01.07-.804l4.684-3.933a.585.585 0 01.816.063l3.647 4.211c.101.115.151.265.14.416a.567.567 0 01-.203.388l-4.69 3.932a.584.584 0 01-.376.137zm-2.831-4.719l2.894 3.346 3.804-3.192-2.895-3.345-3.803 3.191z"/><path fill="#080C20" d="M64.755 70.53l21.282-16.96a3.423 3.423 0 00.486-4.952 3.534 3.534 0 00-2.454-1.207 3.548 3.548 0 00-2.588.899L61.108 66.307l3.647 4.223z"/><path fill="#093F68" d="M64.755 71.1a.583.583 0 01-.44-.2l-3.647-4.211a.564.564 0 01.052-.798l20.373-18.02a4.142 4.142 0 014.09-.84 4.048 4.048 0 012.708 3.132 3.997 3.997 0 01-1.495 3.84L65.12 70.952c-.1.09-.23.142-.365.148zm-2.837-4.73l2.895 3.368 20.842-16.601a2.862 2.862 0 00.955-3.114 2.927 2.927 0 00-2.593-2.015 2.958 2.958 0 00-2.165.746L61.918 66.37z"/><path fill="#080C20" d="M54.508 70.979a2.068 2.068 0 012.893.23l1.87 2.162a2.005 2.005 0 01-.226 2.847 2.068 2.068 0 01-2.893-.23l-1.87-2.161a2.005 2.005 0 01.226-2.848z"/><path fill="#093F68" d="M57.628 77.568a1.848 1.848 0 01-1.412-.633L53.32 73.62a1.815 1.815 0 01.214-2.582l1.158-.98a1.919 1.919 0 011.355-.433c.492.037.949.267 1.268.638l2.895 3.317a1.8 1.8 0 01.44 1.333c-.036.486-.27.936-.649 1.248l-1.158.98a1.87 1.87 0 01-1.216.428zm-1.702-6.839a.736.736 0 00-.457.166l-1.158.98a.714.714 0 00-.243.473.666.666 0 00.168.501l2.895 3.317a.704.704 0 00.99.08l1.157-.98a.686.686 0 00.076-.975l-2.895-3.317a.675.675 0 00-.48-.239l-.053-.006z"/><path fill="#080C20" d="M53.524 71.806l4.533 5.232s-.255 2.154-4.053 4.417a21.44 21.44 0 01-2.895 1.43c-6.588 2.684-10.542-1.88-10.542-1.88 3.856 1.515 5.118-2.035 6.368-5.836l.157-.467c1.28-3.973 6.432-2.896 6.432-2.896z"/><path fill="#093F68" d="M47.057 84.287a9.82 9.82 0 01-6.948-2.918.563.563 0 01-.031-.703.584.584 0 01.686-.197c.762.38 1.654.42 2.449.108 1.551-.718 2.402-3.305 3.15-5.585l.155-.479c1.158-3.516 5.165-3.681 7.121-3.27a.54.54 0 01.319.187l4.533 5.238c.105.119.156.276.139.433 0 .097-.336 2.456-4.342 4.838a22.765 22.765 0 01-2.976 1.465c-1.345.569-2.791.87-4.255.883zm-4.47-2.376c1.639 1.003 4.481 1.994 8.285.438a21.56 21.56 0 002.825-1.384c2.78-1.653 3.532-3.22 3.729-3.784l-4.21-4.856c-.89-.142-4.584-.53-5.592 2.547l-.156.473c-.816 2.497-1.737 5.335-3.757 6.27a3.412 3.412 0 01-1.124.296z"/><path fill="#3EE9E5" d="M40.908 76.679c.264.624.598 1.216.996 1.767.51.57 1.534.404 2.142.09a4.193 4.193 0 001.517-1.424c.394-.57.712-1.197 1.1-1.778a.574.574 0 01.226-.228c.33-.165.637.37.724.604.141.406.235.827.278 1.254.063.45.11.9.156 1.35-.014.243.024.486.11.713a.421.421 0 00.249.205.47.47 0 00.226-.017c.41-.154.77-.41 1.186-.53a.97.97 0 011.158.36c.157.324 0 .711.052 1.07.054.393.338.717.724.827.263.05.532.065.8.045.518.015 1.02.184 1.44.485a21.44 21.44 0 01-2.894 1.43c-3.772 1.537-8.108.764-11.093-1.977a3.557 3.557 0 01-1.192-2.45"/><path fill="#093F68" d="M47.063 84.23a10.822 10.822 0 01-7.457-2.884 4.117 4.117 0 01-1.372-2.849c0-.315.259-.57.579-.57.32 0 .579.255.579.57a3.02 3.02 0 001.013 2.046c2.823 2.578 6.917 3.291 10.467 1.824a22.257 22.257 0 001.777-.81h-.324a2.257 2.257 0 01-.735-.068 1.57 1.57 0 01-1.158-1.31 2.104 2.104 0 010-.57.943.943 0 000-.348.487.487 0 00-.457-.057 3.175 3.175 0 00-.58.25c-.187.1-.38.19-.578.268a1.122 1.122 0 01-.58.063.965.965 0 01-.613-.456 1.587 1.587 0 01-.19-.82v-.394c-.041-.359-.076-.718-.128-1.077a5.801 5.801 0 00-.243-1.14l-.04-.085c-.134.205-.256.416-.383.627-.191.325-.388.66-.614.98a4.7 4.7 0 01-1.737 1.613c-.903.461-2.17.53-2.842-.223a5.113 5.113 0 01-.8-1.322c-.086-.182-.173-.37-.271-.57a.572.572 0 01.22-.786.591.591 0 01.799.216c.11.206.208.41.307.622.155.372.359.723.607 1.043.261.285.962.21 1.454-.04.53-.3.976-.725 1.296-1.237.203-.29.383-.57.58-.918.196-.347.341-.57.526-.854.11-.18.266-.327.452-.428a.87.87 0 01.706 0c.384.201.677.537.822.94.151.448.254.91.307 1.38.052.37.093.746.133 1.14V78.456a.612.612 0 010 .108l.26-.125c.249-.139.51-.252.782-.336a1.528 1.528 0 011.824.66c.125.296.163.62.11.935a1.958 1.958 0 000 .308c.028.165.146.3.307.354.132.018.267.018.4 0h.26c.623.02 1.226.217 1.737.57a.567.567 0 01-.035.951 22.765 22.765 0 01-2.976 1.465c-1.325.56-2.75.86-4.191.883z"/><path fill="#3EE9E5" d="M41.644 91.662c.11-1.402-.14-3.642-1.303-4.657-2.518-2.205-4.284 1.442-4.377 3.42a5.145 5.145 0 00.834 3.368 2.745 2.745 0 003.167.992c1.14-.496 1.586-1.893 1.679-3.123z"/><path fill="#093F68" d="M39.079 95.56a3.49 3.49 0 01-2.744-1.408 5.591 5.591 0 01-.95-3.739c.07-1.413.927-3.812 2.553-4.485.631-.267 1.627-.364 2.785.65 1.309 1.14 1.627 3.476 1.5 5.13-.081 1.042-.446 2.906-2.015 3.612-.355.159-.74.24-1.13.24zm-.29-8.674a.962.962 0 00-.41.091c-.979.405-1.778 2.177-1.842 3.493a4.503 4.503 0 00.724 2.998c.533.707 1.598 1.208 2.455.82 1.07-.484 1.297-2.028 1.349-2.666.11-1.454-.191-3.386-1.112-4.19a1.783 1.783 0 00-1.164-.546z"/><path fill="#080C20" d="M21.595 21.428l10.346-5.09V6.652l-10.346-5.1c-2.663-1.312-5.963.347-5.963 3.008v13.888c0 2.639 3.3 4.292 5.963 2.981z"/><path fill="#093F68" d="M19.609 22.46a5.032 5.032 0 01-2.611-.724 3.83 3.83 0 01-1.945-3.289V4.56c.015-1.36.759-2.61 1.956-3.288a5.1 5.1 0 014.858-.205l10.346 5.089c.196.097.32.296.318.513v9.688a.57.57 0 01-.318.507l-10.358 5.078a5.085 5.085 0 01-2.246.518zm0-20.796a3.896 3.896 0 00-2.003.57 2.718 2.718 0 00-1.395 2.325v13.888a2.718 2.718 0 001.406 2.32 3.915 3.915 0 003.729.154l10.027-4.936V6.998L21.346 2.063a3.884 3.884 0 00-1.737-.399z"/><path fill="#093F68" d="M23.123 15.387a.569.569 0 01-.203-1.106l7.052-2.638-9.344-2.171a.59.59 0 01-.435-.399.578.578 0 01.133-.57.6.6 0 01.568-.171l11.18 2.599c.248.056.43.266.448.516a.57.57 0 01-.373.572l-8.817 3.305a.54.54 0 01-.209.063z"/><path fill="#080C20" d="M49.089 21.428l-10.346-5.09V6.652L49.09 1.556c2.663-1.31 5.975.347 5.975 2.986v13.905c0 2.639-3.312 4.292-5.975 2.981z"/><path fill="#093F68" d="M51.075 22.46a5.085 5.085 0 01-2.247-.52l-10.345-5.094a.57.57 0 01-.319-.507V6.65a.569.569 0 01.319-.513l10.345-5.09a5.1 5.1 0 014.858.206 3.831 3.831 0 011.957 3.305v13.888a3.831 3.831 0 01-1.957 3.289 5.05 5.05 0 01-2.611.723zm-11.753-6.475l10.027 4.936a3.915 3.915 0 003.729-.154 2.718 2.718 0 001.407-2.32V4.56a2.718 2.718 0 00-1.407-2.32 3.903 3.903 0 00-3.729-.153L39.322 7.02v8.964z"/><path fill="#093F68" d="M47.56 15.387a.54.54 0 01-.208-.04l-8.817-3.322a.57.57 0 01-.373-.572c.017-.25.2-.46.448-.517l11.18-2.598a.6.6 0 01.567.171c.145.153.196.37.134.57a.59.59 0 01-.435.398l-9.344 2.172 7.051 2.598a.569.569 0 01-.202 1.106v.034z"/><rect width="9.066" height="11.238" x="30.806" y="5.87" fill="#080C20" rx="3.91"/><path fill="#093F68" d="M37.632 17.667h-4.545c-1.567-.007-2.836-1.256-2.843-2.799v-6.77c.003-1.544 1.274-2.795 2.843-2.798h4.545c1.568.003 2.839 1.254 2.842 2.798v6.788c-.016 1.536-1.282 2.775-2.842 2.78zM33.069 6.44c-.929.003-1.681.744-1.684 1.658v6.788c.012.908.762 1.638 1.684 1.64h4.563c.929-.002 1.681-.743 1.684-1.658v-6.77c-.003-.914-.755-1.655-1.684-1.658h-4.563z"/></g></svg>