<svg xmlns="http://www.w3.org/2000/svg" width="396" height="444"><g fill="none"><g transform="translate(52.5 266.5)"><path fill="#080C20" d="M22.854 128.301l-12.529 35.424h35.382z"/><path fill="#093F68" d="M45.707 164.92H10.325a1.19 1.19 0 01-.968-.505 1.2 1.2 0 01-.151-1.085l12.528-35.364c.15-.428.528-.733.977-.79.468-.074.936.138 1.19.54l22.854 35.423a1.2 1.2 0 01.043 1.218 1.19 1.19 0 01-1.043.624l-.048-.06zm-33.69-2.39h31.499l-20.353-31.538-11.147 31.537zM153.33 4.233a18.348 18.348 0 00-8.873.155 43.146 43.146 0 00-24.342 18.729 12.552 12.552 0 014.109-12.163 19.327 19.327 0 00-16.4 9.663c-2.75 4.868-3.881 13.37-.202 18.143 3.24 4.185 9.159 3.42 12.493 6.757 2.072 2.08 2.81 9.567 3.906 12.45 2.787 7.522 6.086 14.841 9.123 22.268L199.31 67.87s-1.108-16.516-3.573-30.018c-2.465-13.503-11.814-30.425-27.605-23.656a13.144 13.144 0 00-3.788-4.628 25.37 25.37 0 00-11.015-5.334z"/><path fill="#093F68" d="M133.144 81.432a1.19 1.19 0 01-1.096-.742 682.659 682.659 0 00-3.204-7.642c-2.012-4.783-4.108-9.71-5.954-14.662a35.186 35.186 0 01-1.12-4.425c-.595-2.739-1.405-6.482-2.512-7.606a12.685 12.685 0 00-5.24-2.571c-2.513-.814-5.371-1.723-7.348-4.294-3.883-5.023-2.966-14.016.107-19.47A20.445 20.445 0 01124.2 9.76a1.2 1.2 0 01.762 2.117 11.282 11.282 0 00-3.93 7.702A44.46 44.46 0 01144.1 3.24a19.64 19.64 0 019.527-.18 26.571 26.571 0 0111.48 5.598 16.159 16.159 0 013.573 4.018 16.017 16.017 0 0113.732.658c8.157 4.389 12.826 15.427 14.47 24.301 2.488 13.419 3.572 29.983 3.632 30.15.009.585-.404 1.091-.977 1.196L133.382 81.42l-.238.012zm-11.91-68.994a18.045 18.045 0 00-12.373 8.766c-2.715 4.784-3.477 12.713-.298 16.827 1.525 1.973 3.8 2.703 6.193 3.468a14.46 14.46 0 016.193 3.17c1.607 1.614 2.382 5.262 3.156 8.79a35.33 35.33 0 001.024 4.09c1.822 4.903 3.906 9.819 5.954 14.567.953 2.26 1.906 4.508 2.847 6.769l64.166-11.96c-.298-3.85-1.417-17.485-3.573-28.822-1.465-7.941-5.823-18.633-13.243-22.627-3.846-2.07-8.122-2.117-12.707-.144a1.186 1.186 0 01-.917 0 1.193 1.193 0 01-.655-.646 11.947 11.947 0 00-3.49-4.186 24.039 24.039 0 00-10.42-5.07c-2.747-.645-5.61-.6-8.336.131a41.884 41.884 0 00-23.651 18.214 1.19 1.19 0 01-1.191.55 1.193 1.193 0 01-.965-.908c-.821-3.82.01-7.81 2.287-10.98z"/><ellipse cx="125.852" cy="77.972" fill="#080C20" rx="9.35" ry="10.487" transform="rotate(-10.55 125.852 77.972)"/><path fill="#093F68" d="M126.236 89.696c-5.073 0-9.682-4.03-10.718-9.711-1.19-6.339 2.525-12.366 8.23-13.43a9.949 9.949 0 018.014 2.032c4.855 3.893 6.128 10.774 2.99 16.158a9.97 9.97 0 01-6.741 4.784 8.765 8.765 0 01-1.775.167zm-8.396-10.154c.93 5.035 5.288 8.456 9.718 7.642a7.635 7.635 0 005.133-3.683c2.506-4.338 1.496-9.863-2.382-13.024a7.658 7.658 0 00-6.121-1.579c-4.418.826-7.265 5.61-6.324 10.644h-.024z"/><path fill="#080C20" d="M164.226 105.59c20.174-3.767 33.608-32.147 29.904-52.083l-4.454 2.702s-15.315-12.964-17.947-28.547c0 0-4.3 10.19-22.115 14.447-19.388 4.617-31.035 2.631-31.035 2.631l5.276 31.047c3.703 19.889 20.245 33.582 40.371 29.803z"/><path fill="#093F68" d="M157.653 107.408a33.483 33.483 0 01-20.508-6.877 39.594 39.594 0 01-14.481-24.529l-5.288-31.094a1.2 1.2 0 01.333-1.041 1.188 1.188 0 011.037-.335c.119 0 11.67 1.878 30.546-2.63 16.947-4.031 21.27-13.646 21.306-13.742a1.19 1.19 0 012.274.263c2.227 13.155 14.017 24.637 16.9 27.268l3.703-2.273a1.187 1.187 0 011.102-.068c.356.16.612.485.684.87 1.858 10.034-.428 22.328-6.12 32.9-6.074 11.278-15.09 18.788-24.736 20.594a37.6 37.6 0 01-6.752.694zm-37.621-61.256l5.013 29.432a37.225 37.225 0 0013.541 23.046 31.717 31.717 0 0025.426 5.788c8.932-1.674 17.34-8.73 23.068-19.374 5.12-9.568 7.372-20.427 6.157-29.588l-2.942 1.794c-.438.27-1 .227-1.393-.108-.595-.502-13.838-11.852-17.709-26.31-2.56 3.48-8.61 9.435-21.305 12.461-15.458 3.684-26.033 3.241-29.856 2.859z"/><ellipse cx="155.099" cy="61.146" fill="#093F68" rx="3.383" ry="3.396" transform="rotate(-10.55 155.099 61.146)"/><ellipse cx="130.881" cy="64.306" fill="#093F68" rx="3.382" ry="3.396"/><path fill="#093F68" d="M144.362 75.859h-.488a1.916 1.916 0 01-1.489-.861c-1.393-2.01.214-7.99.977-10.477a1.188 1.188 0 012.03-.486 1.2 1.2 0 01.244 1.192c-1.072 3.528-1.667 7.176-1.37 8.252a14.962 14.962 0 004.764-.969 1.19 1.19 0 011.469.723 1.198 1.198 0 01-.635 1.514 18.486 18.486 0 01-5.502 1.112zm5.24-25.438a2.387 2.387 0 01-2.164-1.02 2.41 2.41 0 01-.202-2.392 2.39 2.39 0 011.961-1.372l15.91-2.762c.84-.152 1.697.16 2.246.816a2.4 2.4 0 01.412 2.362 2.384 2.384 0 01-1.836 1.534l-15.874 2.798c-.15.026-.301.038-.453.036zm-27.939 4.21a2.39 2.39 0 01-2.519-2.255 2.392 2.392 0 012.245-2.529l16.03-1.902c.85-.1 1.69.263 2.203.953.512.69.618 1.602.28 2.392a2.4 2.4 0 01-1.923 1.44l-16.03 1.9h-.286z"/><path fill="#080C20" d="M187.378 57.405s7.645-7.75 13.826-.777c6.18 6.972 4.109 21.228-11.135 20.044"/><path fill="#093F68" d="M191.867 77.94c-.607 0-1.19 0-1.881-.084a1.198 1.198 0 01-1.102-1.286c.05-.66.623-1.155 1.28-1.106 5.824.455 10.111-1.459 12.052-5.394a11.891 11.891 0 00-1.893-12.665 6.66 6.66 0 00-4.847-2.511c-3.775-.12-7.229 3.289-7.253 3.325a1.188 1.188 0 01-1.69 0 1.2 1.2 0 010-1.687c.166-.167 4.215-4.138 9.002-4.03a8.955 8.955 0 016.562 3.313 14.159 14.159 0 012.251 15.296c-1.286 2.643-4.597 6.829-12.48 6.829zm-41.717-8.133a4.687 4.687 0 01-4.62-4.126l-1.192-9.675a1.19 1.19 0 011.036-1.328l22.544-2.714a1.187 1.187 0 011.322 1.052l1.191 9.664a4.702 4.702 0 01-.966 3.457 4.664 4.664 0 01-3.119 1.757l-15.541 1.877a4.59 4.59 0 01-.655.036zm-3.275-12.868l1.024 8.48a2.289 2.289 0 002.537 2.008l15.541-1.877a2.306 2.306 0 002-2.56l-1.012-8.479-20.09 2.428zm-24.592 16.24a4.675 4.675 0 01-4.633-4.125l-1.191-9.675a1.19 1.19 0 011.036-1.328l22.449-2.715a1.192 1.192 0 011.322 1.04l1.19 9.676c.309 2.57-1.514 4.903-4.072 5.214l-15.482 1.878-.62.036zm-3.287-12.867l1.024 8.479c.065.606.371 1.16.849 1.536a2.244 2.244 0 001.687.461l15.59-1.902a2.294 2.294 0 002-2.547l-1.024-8.48-20.126 2.453z"/><path fill="#093F68" d="M168.442 58.051a1.195 1.195 0 01-1.262-1.124 1.196 1.196 0 011.12-1.268l15.22-1.841a1.2 1.2 0 011.327 1.058 1.203 1.203 0 01-1.054 1.333l-15.208 1.842h-.143zm-19.316 29.767a23.632 23.632 0 01-7.146-1.196 1.2 1.2 0 01-.449-2.024c.314-.289.757-.388 1.164-.26a18.569 18.569 0 0019.185-4.186 28.885 28.885 0 006.312-8.49 1.19 1.19 0 011.572-.61c.602.267.874.973.607 1.578-.071.227-6.847 15.188-21.245 15.188z"/><path fill="#FFC9B0" d="M146.184 61.077l-5.466.478"/><path fill="#093F68" d="M140.718 62.751a1.193 1.193 0 01-1.191-1.088 1.2 1.2 0 01.271-.879 1.19 1.19 0 01.813-.425l5.454-.466a1.192 1.192 0 011.015 1.955 1.19 1.19 0 01-.813.425l-5.454.478h-.095z"/><path fill="#080C20" d="M104.074 79.41H9.527a3.83 3.83 0 00-3.173 1.682 3.865 3.865 0 00-.4 3.581l25.57 66.124h102.81l-26.688-68.958a3.848 3.848 0 00-3.572-2.428z"/><path fill="#093F68" d="M134.323 151.993H31.547a1.191 1.191 0 01-1.107-.766L4.87 85.115a5.077 5.077 0 01.522-4.68 5.032 5.032 0 014.135-2.22h94.523a5.002 5.002 0 014.68 3.193l26.688 68.958a1.2 1.2 0 01-.13 1.1 1.19 1.19 0 01-.965.527zM32.369 149.6h100.215l-26.045-67.32a2.644 2.644 0 00-2.465-1.674H9.527a2.64 2.64 0 00-2.166 1.147 2.664 2.664 0 00-.299 2.44l25.307 65.407z"/><path fill="#080C20" d="M100.346 85.797l-85.317-.096 24.116 61.305 85.019.083z"/><path fill="#093F68" d="M124.164 148.297l-85.019-.083c-.488 0-.927-.299-1.107-.754L13.922 86.108a1.2 1.2 0 01.119-1.112c.222-.33.592-.526.988-.526l85.317.083c.491.002.93.306 1.108.766l23.818 61.304a1.2 1.2 0 01-.131 1.112 1.19 1.19 0 01-.977.562zm-84.209-2.475l82.47.083-22.889-58.912-82.756-.084 23.175 58.913z"/><path fill="#093F68" d="M90.985 103.497a6.669 6.669 0 01-6.168-4.151 6.718 6.718 0 011.479-7.307 6.648 6.648 0 017.292-1.406 6.698 6.698 0 014.067 6.239c-.059 3.662-3.022 6.606-6.67 6.625zm0-10.99c-2.36 0-4.276 1.915-4.286 4.285-.011 2.37 1.887 4.303 4.247 4.325 2.36.022 4.294-1.876 4.327-4.245.013-2.393-1.905-4.346-4.288-4.366zm5.479 19.53a1.187 1.187 0 01-.56-.144l-30.75-16.744-21.96 16.6a1.19 1.19 0 01-1.185.148 1.202 1.202 0 01-.256-2.062L64.381 92.77c.372-.283.875-.32 1.286-.096l31.416 17.066a1.198 1.198 0 01-.572 2.248l-.047.048z"/><rect width="233.799" height="11.134" x="1.679" y="163.725" fill="#093F68" rx="3.53"/><path fill="#093F68" d="M231.275 176.055H5.955c-2.982 0-5.4-2.423-5.407-5.417v-2.68c.006-2.995 2.423-5.422 5.407-5.429h225.32c2.983.007 5.4 2.434 5.406 5.43v2.679c-.006 2.994-2.425 5.417-5.406 5.417zM5.955 164.921a3.031 3.031 0 00-3.025 3.038v2.679a3.031 3.031 0 003.025 3.025h225.32a3.031 3.031 0 003.024-3.025v-2.68c0-.805-.318-1.578-.886-2.147a3.018 3.018 0 00-2.138-.89H5.955z"/><path fill="#093F68" d="M183.638 176.342c-.658 0-1.19-.535-1.19-1.196v-50.433c0-.66.532-1.196 1.19-1.196.658 0 1.191.536 1.191 1.196v50.433c0 .66-.533 1.196-1.19 1.196zM79.207 111.833l-4.942 7.642-1.524 6.554.631.478 5.419-4.162 5.311-7.247z"/><path fill="#093F68" d="M73.372 127.703c-.258 0-.508-.084-.715-.24l-.63-.477a1.199 1.199 0 01-.441-1.196l1.512-6.554c.036-.136.092-.265.167-.383l4.942-7.642a1.19 1.19 0 01.762-.526c.31-.062.631.003.893.18l4.895 3.264a1.196 1.196 0 01.298 1.71l-5.264 7.224-.238.239-5.43 4.162c-.217.163-.481.247-.751.24zm2-7.75l-.988 4.27 3.573-2.715 4.466-6.1-2.846-1.913-4.204 6.458z"/><path fill="#080C20" d="M101.084 111.618s.453-10.656-3.572-11.78c-4.026-1.125-12.29-3.373-14.53 0-2.238 3.372-7.824 9.902-6.264 13.597 1.56 3.696 16.768 11.745 16.768 11.745l17.769 21.527 19.626-21.934-29.797-13.155z"/><path fill="#093F68" d="M111.255 147.843a1.19 1.19 0 01-.882-.43l-17.625-21.289c-3.025-1.614-15.482-8.431-17.101-12.222-1.62-3.791 2.227-8.922 4.99-12.76.523-.73 1-1.4 1.38-1.974 2.752-4.138 11.588-1.674 15.84-.479 4.252 1.196 4.514 9.137 4.466 12.163l29.058 12.761c.354.154.61.47.69.85a1.2 1.2 0 01-.273 1.052l-19.626 21.921a1.19 1.19 0 01-.917.407zm-23.568-48.58c-1.691 0-3.097.323-3.716 1.196-.393.598-.893 1.292-1.43 2.046-2.155 2.99-5.751 8-4.763 10.428.989 2.428 10.504 8.109 16.232 11.146.135.08.255.18.358.3l16.887 20.402 17.601-19.673-28.284-12.426a1.197 1.197 0 01-.714-1.196c.166-4.03-.56-9.986-2.704-10.584a40.645 40.645 0 00-9.467-1.638z"/><path fill="#093F68" d="M91.914 92.96L80.59 110.028s1.81 3.026 4.68 2.858l11.195-17.21s-2.62-3.886-4.55-2.714z"/><path fill="#093F68" d="M85.03 114.033c-3.357 0-5.37-3.3-5.465-3.456a1.2 1.2 0 010-1.28L90.89 92.303a.966.966 0 01.37-.359c2.81-1.722 5.87 2.607 6.204 3.098a1.2 1.2 0 010 1.34L86.21 113.482a1.19 1.19 0 01-.917.538l-.262.012zm-2.988-4.102a4.488 4.488 0 002.596 1.675l10.42-15.835c-.798-.992-1.81-1.83-2.381-1.83l-10.635 15.99zM73.944 124.713l-2.406 3.588M71.538 129.497c-.238 0-.47-.07-.667-.203a1.2 1.2 0 01-.322-1.65l2.382-3.589a1.19 1.19 0 011.656-.322 1.2 1.2 0 01.321 1.662l-2.382 3.588a1.19 1.19 0 01-.988.514z"/><path fill="#080C20" d="M146.184 108.137s1.882-8.754 6.11-11.325c4.227-2.571 29.939-6.267 35.084-1.842a17.763 17.763 0 015.585 11.254l-46.779 1.913z"/><path fill="#093F68" d="M146.184 109.333a1.189 1.189 0 01-.917-.418 1.2 1.2 0 01-.25-1.029c.083-.37 2.048-9.28 6.657-12.103 4.609-2.822 30.857-6.542 36.478-1.722a18.938 18.938 0 015.954 12.08 1.2 1.2 0 01-.297.872c-.215.246-.52.393-.846.407l-46.779 1.913zm30.666-15.212c-9.027 0-21.091 1.973-23.937 3.707-2.573 1.567-4.359 6.195-5.18 9.054l43.86-1.806a16.26 16.26 0 00-4.99-9.197c-1.476-1.268-5.24-1.758-9.753-1.758z"/><path fill="#080C20" d="M213.65 175.146l-12.386-67.51c-.632-.754-.989-1.197-.989-1.197a12.227 12.227 0 00-8.491-3.432h-47.541c-1.298 0-6.086-.622-13.755 5.836-11.076 9.34-26.796 21.073-35.072 29.038l7.074 35.878c1.393.335 24.08-10.082 24.08-10.082l2.239 11.421 84.84.048z"/><path fill="#093F68" d="M213.65 176.342h-84.841a1.192 1.192 0 01-1.191-.957l-1.953-9.938c-21.722 9.938-22.997 9.568-23.473 9.568a1.194 1.194 0 01-.893-.933l-7.074-35.878a1.2 1.2 0 01.345-1.089c5.204-5.01 13.422-11.565 21.353-17.939 4.764-3.78 9.635-7.69 13.779-11.194 7.49-6.303 12.385-6.16 14.231-6.111h47.851a13.368 13.368 0 019.313 3.767c.071.072.44.49 1.072 1.196.133.157.223.347.262.55l12.373 67.547a1.2 1.2 0 01-.263.989 1.19 1.19 0 01-.928.422h.036zm-83.865-2.392h82.435l-12.052-65.777-.762-.897a10.982 10.982 0 00-7.598-3.026h-47.91c-1.596 0-5.848-.167-12.648 5.562-4.168 3.516-9.075 7.427-13.826 11.218-7.658 6.111-15.566 12.438-20.71 17.305l6.705 34.085c3.25-1.065 13.516-5.55 22.627-9.747a1.186 1.186 0 011.034.03c.323.167.551.473.621.83l2.084 10.417z"/><path fill="#093F68" d="M171.3 109.656h42.587a13.075 13.075 0 0110.083 4.399 13.193 13.193 0 013.196 10.563l-5.466 50.528h-72.384l5.502-50.528c1.052-8.395 8.06-14.756 16.482-14.962z"/><path fill="#093F68" d="M221.7 176.342h-72.384a1.189 1.189 0 01-1.179-1.315l5.49-50.541c1.14-9.002 8.663-15.814 17.697-16.026h42.563a14.263 14.263 0 0110.961 4.796 14.392 14.392 0 013.497 11.481l-5.466 50.54a1.193 1.193 0 01-1.18 1.065zm-71.05-2.392h69.978l5.347-49.464a11.993 11.993 0 00-2.897-9.63 11.886 11.886 0 00-9.19-4.004H171.3c-7.813.198-14.31 6.098-15.29 13.885l-5.36 49.213z"/><path fill="#080C20" d="M177.815 109.656h42.598a13.075 13.075 0 0110.075 4.404 13.193 13.193 0 013.192 10.558l-5.466 50.528h-72.372l5.467-50.528c1.053-8.404 8.073-14.767 16.506-14.962z"/><path fill="#093F68" d="M228.214 176.343h-72.372a1.191 1.191 0 01-1.179-1.316l5.467-50.541c1.134-9 8.653-15.813 17.685-16.026h42.598a14.382 14.382 0 0110.91 4.784 14.68 14.68 0 013.572 11.529l-5.466 50.54a1.193 1.193 0 01-1.215 1.03zm-71.05-2.393h69.99l5.347-49.464a12.317 12.317 0 00-2.953-9.675 12.04 12.04 0 00-9.135-3.959h-42.598c-7.825.186-14.34 6.088-15.327 13.885l-5.324 49.213z"/><path fill="#080C20" d="M95.416 137.893l-49.709 5.884s-11.79-11.553-14.29-11.11c-2.502.442.166 9.088.166 9.088s-8.825-5.98-10.385-.837c-1.56 5.143-1.19 14.758 1 17.676 2.192 2.918 11.302 4.067 26.2 3.206l52.698 4.21-5.68-28.117z"/><path fill="#093F68" d="M101.084 167.205h-.095l-52.614-4.198c-15.482.885-24.533-.346-27.082-3.671-2.548-3.325-2.834-13.37-1.19-18.753a3.893 3.893 0 012.381-2.678c2.168-.778 5.121.334 7.217 1.387-.512-2.32-.881-5.274 0-6.733a2.18 2.18 0 011.489-1.053c2.596-.478 10.266 6.53 14.898 11.027l49.185-5.836a1.192 1.192 0 011.298.956l5.669 28.117a1.2 1.2 0 01-1.156 1.435zm-52.697-6.601h.095l51.126 4.078-5.133-25.474-48.625 5.765c-.36.043-.719-.08-.977-.335-5.085-4.987-11.42-10.393-13.1-10.764-.416.837 0 4.318 1.025 7.535a1.199 1.199 0 01-.432 1.315c-.408.301-.96.311-1.379.024-1.988-1.351-5.811-3.24-7.633-2.607a1.505 1.505 0 00-.953 1.124c-1.512 5-1.06 14.148.81 16.6.929 1.196 5.228 3.887 25.14 2.739h.036zm78.183 4.317a1.198 1.198 0 01-.524-2.26l17.006-8.384a1.187 1.187 0 011.211.05 1.198 1.198 0 01-.151 2.09l-17.006 8.444c-.172.061-.355.081-.536.06zM44.802 131.9a1.191 1.191 0 01-1.19-.813L31.546 95.353a1.2 1.2 0 01.187-1.228 1.188 1.188 0 012.064.462l11.79 34.886 24.33-.909c.658 0 1.191.536 1.191 1.196 0 .66-.533 1.196-1.19 1.196l-25.212.945h.095z"/><path fill="#093F68" d="M53.924 127.703a1.191 1.191 0 01-1.12-.765l-5.525-14.675a1.198 1.198 0 01.69-1.542 1.19 1.19 0 011.537.693l5.526 14.675a1.2 1.2 0 01-.69 1.542 1.27 1.27 0 01-.418.072zm0 34.838h-8.217c-.658 0-1.19-.535-1.19-1.196v-18.908c0-.66.532-1.196 1.19-1.196h8.217c.658 0 1.191.536 1.191 1.196v18.908c0 .66-.533 1.196-1.19 1.196zm-7.026-2.392h5.835v-16.516h-5.835v16.516z"/><path fill="#093F68" d="M49.816 157.375c-3.157 0-5.717-2.57-5.717-5.741 0-3.17 2.56-5.74 5.717-5.74 3.157 0 5.716 2.57 5.716 5.74 0 3.17-2.56 5.74-5.716 5.74zm0-9.09a3.342 3.342 0 00-3.335 3.349 3.342 3.342 0 003.335 3.349c1.841 0 3.334-1.5 3.334-3.349a3.342 3.342 0 00-3.334-3.337v-.012zm62.32-13.143a9.564 9.564 0 01-2.108-.227 10.79 10.79 0 01-6.443-4.461 1.2 1.2 0 01.381-1.65 1.19 1.19 0 011.644.382 8.443 8.443 0 004.954 3.397c2.382.526 5.097-.192 7.98-2.105a8.752 8.752 0 004.132-5.681c.714-3.947-1.942-7.666-1.977-7.702a1.206 1.206 0 01-.132-1.195 1.195 1.195 0 012.06-.228c.132.191 3.276 4.556 2.383 9.567a11.025 11.025 0 01-5.18 7.284 13.967 13.967 0 01-7.694 2.619zm-.881 35.352c-.515 0-.972-.333-1.132-.825l-11.516-35.34a1.19 1.19 0 112.263-.741l11.516 35.34a1.197 1.197 0 01-.75 1.506 1.412 1.412 0 01-.381.06zM84.102 57.142H20.627c-.658 0-1.191-.535-1.191-1.196V3.767c0-.66.533-1.196 1.19-1.196h63.476c.658 0 1.19.536 1.19 1.196v52.18c0 .66-.532 1.195-1.19 1.195zM21.817 54.75h61.094V4.963H21.817V54.75z"/><path fill="#093F68" d="M60.736 41.475h-26.2c-.657 0-1.19-.535-1.19-1.196V13.97c0-.66.533-1.196 1.19-1.196h26.2c.658 0 1.191.535 1.191 1.196v26.31c0 .661-.533 1.196-1.19 1.196zm-25.009-2.391h23.818v-23.92H35.727v23.92z"/><path fill="#093F68" d="M60.343 49.225c-8.632.007-15.637-7.013-15.648-15.683-.011-8.669 6.976-15.707 15.609-15.722 8.632-.016 15.644 6.997 15.664 15.666a15.737 15.737 0 01-4.563 11.123 15.604 15.604 0 01-11.062 4.616zm0-29.002a13.254 13.254 0 00-12.258 8.22 13.352 13.352 0 002.887 14.516 13.214 13.214 0 0014.462 2.86c4.953-2.074 8.172-6.943 8.152-12.333-.032-7.325-5.948-13.25-13.243-13.263zM260.321 92.34h-40.908c-.658 0-1.19-.535-1.19-1.196V37.469c0-.66.532-1.196 1.19-1.196h40.908c.658 0 1.19.535 1.19 1.196v53.674a1.188 1.188 0 01-1.19 1.196zm-39.717-2.392h38.526V38.665h-38.526v51.282z"/><path fill="#093F68" d="M252.199 85.546h-24.95a1.19 1.19 0 01-.988-.538 1.2 1.2 0 01-.107-1.112l12.468-30.629a1.19 1.19 0 012.204 0l12.48 30.629a1.2 1.2 0 01-.119 1.112 1.19 1.19 0 01-.988.538zm-23.175-2.392h21.436l-10.718-26.31-10.718 26.31z"/><path fill="#093F68" d="M248.9 62.751h-21.65c-.658 0-1.192-.535-1.192-1.196V43.712c0-.66.534-1.196 1.191-1.196H248.9c.658 0 1.19.535 1.19 1.196v17.843c0 .66-.532 1.196-1.19 1.196zm-20.412-2.392h19.221V44.908H228.44l.048 15.451zm3.49-37.78h-25.82c-.657 0-1.19-.535-1.19-1.195V1.854c0-.66.533-1.196 1.19-1.196h25.82c.657 0 1.19.535 1.19 1.196v19.53c0 .66-.533 1.195-1.19 1.195zm-24.629-2.391h23.437V3.05H207.35v17.138z"/><path fill="#093F68" d="M213.65 15.165a1.19 1.19 0 01-1.085-.718 1.2 1.2 0 01.608-1.579l5.418-2.392c.371-.158.797-.118 1.132.108l2.548 1.71 4.002-5.74a1.19 1.19 0 012.098.14 1.2 1.2 0 01-.145 1.223l-4.669 6.733c-.37.53-1.093.668-1.631.311l-2.99-1.997-4.763 2.105a1.092 1.092 0 01-.524.096z"/></g><g transform="translate(.5 .5)"><path fill="#080C20" d="M129.309 171.261c4.93 6.163-8.56 18.829-14.921 11.857-7.488-8.196 10.166-17.802 14.92-11.857z"/><path fill="#093F68" d="M118.957 186.254a7.04 7.04 0 01-5.39-2.404 6.883 6.883 0 01-1.726-7.212c1.475-4.306 6.733-7.41 10.93-8.13 3.28-.569 5.871.174 7.39 2.076 2.963 3.704.514 9.048-3.432 12.414a12.53 12.53 0 01-7.772 3.256zm5.837-15.78c-.557.006-1.113.057-1.661.153-4.132.721-8.177 3.65-9.216 6.688a4.796 4.796 0 001.269 5.027c2.689 2.95 7.007 1.606 10.111-1.038 3.105-2.645 5.214-6.797 3.148-9.398a4.537 4.537 0 00-3.65-1.432zM56.386 14.436a1.301 1.301 0 01-.35 0 1.093 1.093 0 01-.722-.776c-.841-3.486-4.69-4.546-6.755-5.114a5.467 5.467 0 01-1.563-.569 3.715 3.715 0 01-1.509-3.606c.186-.983.951-2.251 3.542-2.797 4.864-1.028 10.024 8.261 10.603 9.321a1.093 1.093 0 01-.262 1.355l-2.285 1.956c-.2.155-.447.236-.7.23zm-6.56-10.742H49.5c-1.093.23-1.771.622-1.858 1.092-.018.502.2.983.59 1.3.087 0 .546.176.918.274 2.033.568 6.012 1.661 7.74 5.125l.393-.328c-2-3.398-5.269-7.463-7.466-7.463h.01z"/><path fill="#080C20" d="M57.107 129.244h24.104c7.39 0 14.477 2.934 19.703 8.158a27.85 27.85 0 018.16 19.697v49.798H29.244v-49.81c.006-15.379 12.48-27.843 27.864-27.843z"/><path fill="#093F68" d="M109.119 207.99H29.243c-.604 0-1.093-.49-1.093-1.093v-49.81a28.965 28.965 0 018.51-20.474 28.984 28.984 0 0120.502-8.462H81.21c15.983.012 28.939 12.958 28.957 28.937v49.809c0 .587-.463 1.069-1.05 1.092zm-78.783-2.186h77.69v-48.716c-.019-14.789-12.022-26.764-26.815-26.752H57.16c-14.775.012-26.752 11.98-26.77 26.752l-.055 48.716z"/><path fill="#093F68" d="M94.569 185.325c-.604 0-1.093-.49-1.093-1.093V145.34a1.093 1.093 0 012.186 0v38.86a1.093 1.093 0 01-1.093 1.125zm-48.47 22.664c-.604 0-1.093-.489-1.093-1.092V145.34a1.093 1.093 0 012.186 0v61.524a1.093 1.093 0 01-1.093 1.125z"/><path fill="#093F68" d="M84.742 158.803H53.62l-7.521 7.267v40.827h46.163V166.07z"/><path fill="#093F68" d="M92.262 207.99H46.1c-.604 0-1.093-.49-1.093-1.093v-40.794c-.002-.296.117-.58.328-.787l7.532-7.267c.202-.195.473-.305.754-.306h31.122c.281.001.551.111.754.306l7.532 7.267c.211.207.33.491.328.787v40.826a1.093 1.093 0 01-1.094 1.06zm-45.07-2.186H91.17V166.54l-6.876-6.644H54.068l-6.876 6.644v39.264z"/><path fill="#093F68" d="M53.62 161.82c-.604 0-1.093-.49-1.093-1.093v-31.483a1.093 1.093 0 012.186 0v31.483c0 .603-.49 1.092-1.093 1.092zm31.297 0c-.604 0-1.094-.49-1.094-1.093v-31.483a1.093 1.093 0 012.187 0v31.483c0 .603-.49 1.092-1.093 1.092z"/><path fill="#080C20" d="M23.274 120.337c1.181 2.612 3.706 3.475 8.1 3.279 9.445-.437 19 0 28.422 0h52.154c3.104 0 4.7-1.52 4.875-4.656.776-13.517 0-26.838-.885-40.312-.744-12.13-2.394-24.566-8.505-35.308C95.64 22.577 64.05 13.113 50.373 30.87c0 0-9.761-3.278-19.02 8.152-7.587 9.344-8.308 21.758-8.44 33.243l-.491 42.695a13.208 13.208 0 00.852 5.376z"/><path fill="#093F68" d="M30.063 124.741c-3.17 0-6.34-.666-7.827-3.956a13.973 13.973 0 01-.918-5.868l.492-42.706c.13-11.911.918-24.347 8.68-33.876 8.23-10.152 16.877-9.256 19.457-8.742 5.345-6.557 13.533-9.759 23.142-9.103 14.08.983 28.257 9.922 35.286 22.27 6.362 11.18 7.947 24.359 8.647 35.778.82 13.223 1.662 26.872.885 40.433-.218 3.716-2.273 5.672-5.968 5.683H59.785c-3.071 0-6.143 0-9.226-.088-6.307-.087-12.822-.174-19.184.12-.449.033-.864.055-1.312.055zM46.94 31.483c-3.4 0-9.117 1.246-14.757 8.196-7.324 9.015-8.057 21.036-8.188 32.565l-.492 42.695c-.106 1.683.144 3.37.732 4.95.678 1.508 2 2.863 7.04 2.634 6.428-.295 12.976-.208 19.316-.12 3.072 0 6.133.087 9.193.087h52.154c2.536 0 3.64-1.093 3.782-3.628.776-13.441 0-26.413-.874-40.16-.733-11.747-2.252-24.041-8.374-34.849-6.679-11.736-20.157-20.238-33.537-21.167-9.128-.623-16.835 2.503-21.7 8.819-.283.37-.77.519-1.212.371a10.672 10.672 0 00-3.083-.393z"/><path fill="#080C20" d="M62.562 129.244h12.844v7.354a5.465 5.465 0 01-5.465 5.464h-1.935a5.465 5.465 0 01-5.466-5.464v-7.387l.022.033z"/><path fill="#093F68" d="M69.951 143.155h-1.934a6.558 6.558 0 01-6.56-6.557v-7.387c0-.604.49-1.093 1.094-1.093h12.844c.604 0 1.093.49 1.093 1.093v7.387a6.558 6.558 0 01-6.537 6.557zm-6.296-12.84v6.283a4.372 4.372 0 004.373 4.371h1.934a4.372 4.372 0 004.373-4.371v-6.294l-10.68.01z"/><ellipse cx="32.271" cy="95.881" fill="#080C20" rx="12.484" ry="10.753"/><path fill="#093F68" d="M32.271 107.727c-7.488 0-13.577-5.311-13.577-11.846s6.089-11.846 13.577-11.846c7.488 0 13.577 5.311 13.577 11.846s-6.1 11.846-13.577 11.846zm0-21.506c-6.286 0-11.39 4.37-11.39 9.66 0 5.289 5.104 9.66 11.39 9.66 6.286 0 11.39-4.371 11.39-9.66 0-5.29-5.083-9.66-11.39-9.66z"/><ellipse cx="105.03" cy="95.881" fill="#080C20" rx="12.484" ry="10.753"/><path fill="#093F68" d="M105.03 107.727c-7.477 0-13.566-5.311-13.566-11.846s6.144-11.846 13.566-11.846c7.423 0 13.577 5.311 13.577 11.846s-6.089 11.846-13.577 11.846zm0-21.506c-6.274 0-11.38 4.37-11.38 9.66 0 5.289 5.106 9.66 11.38 9.66 6.275 0 11.39-4.371 11.39-9.66 0-5.29-5.104-9.66-11.39-9.66z"/><path fill="#080C20" d="M91.88 63.982L79.702 48.334s-2.744 9.638-4.427 15.605l-19.206-.055-4.526-13.977-5.313 13.944H31.342v29.505a37.618 37.618 0 0011.02 26.612 37.643 37.643 0 0026.617 11.024c20.792 0 37.647-16.85 37.647-37.636v-29.33l-14.746-.044z"/><path fill="#093F68" d="M68.979 132.02c-21.385-.025-38.712-17.352-38.73-38.73V63.787c0-.604.49-1.093 1.093-1.093h14.134l5.061-13.245a1.093 1.093 0 011.093-.699c.461.014.863.316 1.006.754l4.285 13.223 17.567.054c1.65-5.955 4.154-14.698 4.154-14.698a1.093 1.093 0 011.924-.371l11.85 15.233h14.21c.604 0 1.093.49 1.093 1.093v29.265c-.03 21.375-17.359 38.693-38.74 38.717zM32.435 64.9v28.413a36.54 36.54 0 0018.09 32.173 36.565 36.565 0 0036.918 0 36.54 36.54 0 0018.09-32.173V65.119H91.87a1.093 1.093 0 01-.853-.415L80.118 50.705c-.897 3.17-2.635 9.278-3.837 13.529a1.093 1.093 0 01-1.093.798l-19.12-.055a1.093 1.093 0 01-1.027-.754l-3.574-11.026-4.22 11.048c-.162.42-.566.698-1.017.7L32.435 64.9z"/><path fill="#093F68" d="M51.838 103.967a13.402 13.402 0 01-12.39-8.263A13.394 13.394 0 0142.348 81.1a13.405 13.405 0 0114.606-2.909A13.397 13.397 0 0165.23 90.57c-.006 7.392-5.996 13.385-13.39 13.397zm0-24.598a11.216 11.216 0 00-10.37 6.916 11.21 11.21 0 002.429 12.224 11.218 11.218 0 0012.227 2.428 11.212 11.212 0 006.919-10.367c-.012-6.181-5.022-11.19-11.205-11.201zm34.292 24.598a13.402 13.402 0 01-12.39-8.263A13.394 13.394 0 0176.64 81.1a13.405 13.405 0 0114.606-2.909 13.397 13.397 0 018.276 12.379c-.006 7.392-5.996 13.385-13.391 13.397zm0-24.598a11.216 11.216 0 00-10.37 6.916 11.21 11.21 0 002.428 12.224 11.218 11.218 0 0012.228 2.428A11.212 11.212 0 0086.13 79.37z"/><ellipse cx="52.997" cy="91.302" fill="#093F68" rx="3.487" ry="3.486"/><ellipse cx="84.02" cy="90.57" fill="#093F68" rx="3.487" ry="3.486"/><path fill="#093F68" d="M68.355 103.213a22.405 22.405 0 01-3.4-.284 1.11 1.11 0 11.383-2.185c1.707.29 3.448.308 5.16.054.208-1.005-1.093-4.731-2.94-8.228a1.097 1.097 0 111.945-1.017c1.214 2.339 3.947 8.021 2.952 10.25a1.88 1.88 0 01-1.268 1.093c-.928.221-1.878.327-2.832.317zM42.12 78.233a2.19 2.19 0 11-.273-4.372l16.495-2.054a2.203 2.203 0 11.547 4.37l-16.496 2.055h-.273zm51.64.447c-.13.011-.263.011-.394 0L76.97 75.697a2.188 2.188 0 11.787-4.305l16.398 2.994a2.194 2.194 0 11-.383 4.37l-.011-.076zm-22.694 38.248a24.206 24.206 0 01-17.162-7.3 1.093 1.093 0 011.629-1.453c.415.459 10.341 11.266 25.7 4.218a1.096 1.096 0 01.918 1.989 26.395 26.395 0 01-11.085 2.546zm2.755-26.904c-.223-.001-.44-.07-.623-.197a7.184 7.184 0 00-8.494 0 1.093 1.093 0 01-1.54-.197 1.093 1.093 0 01.185-1.53 9.425 9.425 0 0111.106 0c.495.345.617 1.024.273 1.52-.22.271-.557.422-.907.404zm-34.368-1.836c-.098.01-.197.01-.295 0l-7.182-1.967a1.093 1.093 0 11.58-2.099l7.181 1.957a1.102 1.102 0 11-.284 2.185v-.076zm59.521 0a1.102 1.102 0 11-.284-2.186l7.182-1.956a1.093 1.093 0 11.568 2.098l-7.181 1.967a1.192 1.192 0 01-.285.077z"/><path fill="#080C20" d="M35.299 43.1c5.848-1.53 18.583-9.41 27.984-10.437 9.401-1.027 31.548 1.53 38.162-2.032 6.613-3.563 8.647-16.272-1.017-25.43-9.663-9.157-37.167.514-54.952 10.928-17.785 10.415-24.42 12.458-24.17 19.583.252 7.125 8.112 8.906 13.993 7.387z"/><path fill="#093F68" d="M31.309 44.695a13.12 13.12 0 01-7.728-2.262 8.392 8.392 0 01-3.4-6.677c-.23-6.437 4.46-9.081 15.807-15.463 2.601-1.475 5.542-3.136 8.898-5.092 16.801-9.835 45.65-20.84 56.253-10.786 5.16 4.874 7.652 11.245 6.81 17.484-.58 4.372-2.831 8.01-6.023 9.726-4.46 2.404-14.78 2.186-24.749 2.01-4.601-.197-9.21-.146-13.806.154-5.728.623-12.954 3.967-18.758 6.655a63.993 63.993 0 01-9.074 3.737 16.522 16.522 0 01-4.23.514zM88.666 2.623c-4.198.086-8.37.673-12.429 1.748A122.628 122.628 0 0045.99 17.058c-3.367 1.978-6.33 3.64-8.931 5.115-10.822 6.12-14.878 8.425-14.692 13.506 0 1.975.936 3.832 2.525 5.005 2.405 1.792 6.373 2.328 10.1 1.355 3.002-.986 5.925-2.195 8.746-3.617 5.958-2.754 13.358-6.185 19.436-6.84 4.69-.315 9.394-.37 14.09-.164 9.238.174 19.677.382 23.667-1.749 2.58-1.388 4.373-4.371 4.897-8.087.733-5.463-1.508-11.19-6.143-15.583-2.678-2.491-6.69-3.376-11.019-3.376z"/><path fill="#080C20" d="M44.306 206.973c-3.847 3.519-12.418 6.098-16.68-1.093-4.264-7.19-12.78-38.05-12.78-38.05l9.98-8.983 19.918 32.685c2.743 4.634 3.41 11.933-.438 15.441z"/><path fill="#093F68" d="M35.507 211.552a11.82 11.82 0 01-1.64-.12 9.947 9.947 0 01-7.193-5.038c-4.285-7.278-12.527-37.056-12.877-38.313a1.093 1.093 0 01.317-1.093l9.98-8.982a1.093 1.093 0 011.662.24l19.928 32.685c2.995 5.114 3.596 12.993-.634 16.862a14.913 14.913 0 01-9.543 3.759zm-19.425-43.405c1.257 4.48 8.68 30.674 12.483 37.154a7.652 7.652 0 005.64 3.967c3.421.318 6.82-.803 9.38-3.093 3.28-3.037 2.798-9.758.23-14.13l-19.229-31.548-8.504 7.65z"/><path fill="#080C20" d="M7.031 142.262l8.565-3.153 3.903 10.593-8.565 3.153z"/><path fill="#093F68" d="M10.944 153.94a1.093 1.093 0 01-1.028-.71l-3.902-10.6a1.093 1.093 0 01.656-1.399l8.559-3.158c.266-.11.565-.11.83 0 .264.12.468.341.57.612l3.902 10.6a1.093 1.093 0 01-.645 1.399l-8.56 3.158c-.12.056-.25.09-.382.098zm-2.492-11.037l3.137 8.546 6.559-2.404-3.149-8.546-6.547 2.404z"/><path fill="#080C20" d="M15.043 139.308a9.548 9.548 0 00-.962-7.07c-3.28-5.825-6.395 1.628-9.718-9.835 0 0-4.547 6.786-2.678 12.326 2.033 6.087 6.318 7.213 6.318 7.213l7.04-2.634z"/><path fill="#093F68" d="M7.97 142.99c-.09.012-.182.012-.273 0-.207 0-4.886-1.354-7.083-7.922-2.012-5.988 2.612-12.993 2.81-13.288.239-.359.667-.543 1.092-.47.417.068.758.37.875.776 1.76 6.065 3.28 6.229 4.82 6.403a5.39 5.39 0 014.8 3.279 10.575 10.575 0 011.092 7.933c-.099.322-.34.58-.655.7l-7.04 2.59a1.17 1.17 0 01-.437 0zM4.08 125.07c-1.093 2.305-2.47 6.075-1.4 9.277 1.531 4.557 4.373 6.021 5.28 6.393l6.122-2.262a8.609 8.609 0 00-.984-5.716 3.28 3.28 0 00-3.137-2.185c-2.197-.197-4.088-.809-5.848-5.508h-.033z"/><path fill="#080C20" d="M11.807 152.53c1.542 5.388 3.597 11.66 6.046 18.294 4.864 13.223 9.98 24.347 13.369 29.505l3.683-1.355c-.787-6.141-4.11-17.922-8.985-31.144-2.449-6.634-4.952-12.742-7.27-17.845l-6.843 2.546z"/><path fill="#093F68" d="M31.222 201.444a1.093 1.093 0 01-.919-.492c-3.563-5.464-8.745-16.85-13.478-29.746-2.372-6.425-4.471-12.785-6.067-18.37a1.093 1.093 0 01.667-1.332l6.843-2.525c.54-.2 1.142.054 1.377.58 2.416 5.3 4.941 11.495 7.302 17.921 4.756 12.895 8.22 24.915 9.04 31.374.05.487-.232.947-.688 1.125l-3.695 1.366c-.12.056-.25.09-.382.099zm-18.08-48.236c1.54 5.3 3.519 11.234 5.738 17.244 4.493 12.196 9.335 22.949 12.79 28.566l2.033-.743c-.984-6.491-4.307-17.846-8.81-30.041a254.895 254.895 0 00-6.822-16.85l-4.93 1.824z"/><path fill="#080C20" d="M10.708 158.955l8.006-2.948c.897-.33 1.89.13 2.222 1.026l.28.763a1.73 1.73 0 01-1.024 2.22s0 .001 0 0l-8.007 2.948c-.896.33-1.89-.129-2.221-1.025l-.281-.763a1.73 1.73 0 011.025-2.221z"/><path fill="#093F68" d="M11.698 164.103a2.996 2.996 0 01-1.257-.273 2.94 2.94 0 01-1.541-1.672l-.175-.47a2.983 2.983 0 011.77-3.824l7.653-2.842a3.006 3.006 0 013.837 1.77l.164.46a2.906 2.906 0 01-.088 2.283 2.984 2.984 0 01-1.672 1.552l-7.663 2.83a2.8 2.8 0 01-1.028.186zm7.532-7.08a.875.875 0 00-.284.054l-7.652 2.83a.798.798 0 00-.47 1.027l.164.47c.08.195.227.354.415.448a.798.798 0 00.612 0l7.652-2.841a.732.732 0 00.448-.415.765.765 0 000-.601l-.175-.47a.798.798 0 00-.415-.448.897.897 0 00-.295-.055z"/><path fill="#080C20" d="M24.68 155.679l3.203 8.694a1.814 1.814 0 01-1.075 2.33l-.318.117a1.816 1.816 0 01-2.33-1.076l-3.204-8.694a1.814 1.814 0 011.076-2.33l.317-.117a1.816 1.816 0 012.331 1.076z"/><path fill="#093F68" d="M25.964 167.994a3.104 3.104 0 01-2.886-2.011l-3.083-8.382a3.07 3.07 0 011.826-3.956 3.127 3.127 0 012.35.099 3.06 3.06 0 011.607 1.737l3.082 8.371a3.081 3.081 0 01-1.825 3.956 3.28 3.28 0 01-1.071.186zm-3.083-12.349a1.006 1.006 0 00-.306 0 .918.918 0 00-.503.47.863.863 0 000 .678l3.083 8.37a.863.863 0 00.459.503.886.886 0 001.213-1.093l-3.104-8.305a.885.885 0 00-.47-.503.842.842 0 00-.372-.12z"/><path fill="#080C20" d="M12.19 162.973l8.006-2.948c.896-.33 1.89.13 2.221 1.026l.281.763a1.73 1.73 0 01-1.025 2.221l-8.006 2.948c-.897.33-1.89-.13-2.222-1.026l-.28-.763a1.73 1.73 0 011.024-2.221z"/><path fill="#093F68" d="M13.174 168.114a2.984 2.984 0 01-2.799-1.945l-.174-.47a2.994 2.994 0 011.77-3.825l7.652-2.841a3.006 3.006 0 013.837 1.77l.175.46a2.994 2.994 0 01-1.77 3.835l-7.707 2.83a2.756 2.756 0 01-.984.186zm7.532-7.081a.765.765 0 00-.274 0l-7.706 2.885a.83.83 0 00-.448.415.797.797 0 000 .612l.174.459a.776.776 0 001.017.48l7.707-2.84a.798.798 0 00.47-1.017l-.175-.47a.765.765 0 00-.416-.448.853.853 0 00-.35-.076z"/><path fill="#080C20" d="M13.66 166.98l8.006-2.947c.897-.33 1.89.13 2.222 1.026l.28.762a1.73 1.73 0 01-1.024 2.222l-8.007 2.947c-.896.33-1.89-.129-2.221-1.025l-.281-.763a1.73 1.73 0 011.025-2.221z"/><path fill="#093F68" d="M14.65 172.124a2.909 2.909 0 01-1.247-.273 2.95 2.95 0 01-1.552-1.672l-.175-.47a2.994 2.994 0 011.771-3.824l7.707-2.842a2.995 2.995 0 013.826 1.77l.175.47a2.994 2.994 0 01-1.771 3.825l-7.652 2.83a2.854 2.854 0 01-1.082.186zm7.531-7.114a.81.81 0 00-.273.055l-7.707 2.83a.874.874 0 00-.448.416.797.797 0 000 .611l.175.47a.83.83 0 00.416.448c.192.082.409.082.6 0l7.653-2.84a.787.787 0 00.47-1.017l-.175-.47a.787.787 0 00-.71-.503z"/><path fill="#080C20" d="M15.152 170.985l8.006-2.948c.897-.33 1.89.13 2.221 1.025l.282.763a1.73 1.73 0 01-1.025 2.222l-8.007 2.947c-.896.33-1.89-.13-2.221-1.025l-.281-.763a1.73 1.73 0 011.025-2.221z"/><path fill="#093F68" d="M16.125 176.135a2.984 2.984 0 01-2.798-1.945l-.164-.47a2.983 2.983 0 011.76-3.825l7.652-2.841a2.985 2.985 0 013.826 1.77l.175.47a2.971 2.971 0 01-1.771 3.825l-7.652 2.83a2.855 2.855 0 01-1.028.186zm7.532-7.07a.798.798 0 00-.273 0l-7.652 2.83a.798.798 0 00-.481 1.027l.175.47a.83.83 0 00.415.448.787.787 0 00.612 0l7.652-2.841a.787.787 0 00.47-1.017l-.164-.47a.809.809 0 00-.754-.447z"/><path fill="#080C20" d="M122.75 154.782c-8.373-3.158-25.273-5.224-39.845 9.616-14.571 14.84-9.62 32.784 5.772 39.865 15.391 7.081 28.553 3.672 31.603-5.945 3.05-9.616-7.16-10.36-2.996-15.43 4.165-5.07 9.369.623 13.774-7.42 4.405-8.043.087-17.528-8.308-20.686z"/><path fill="#093F68" d="M104.276 209.137a38.817 38.817 0 01-16.047-3.88c-7.958-3.671-13.337-10.195-14.747-17.877-1.486-8.12 1.596-16.556 8.658-23.747 13.38-13.638 29.963-14.042 41.015-9.835a16.558 16.558 0 019.75 9.66 14.978 14.978 0 01-.94 12.578c-2.744 5.027-6.056 5.268-8.745 5.464-2.033.142-3.64.263-5.149 2.12-1.29 1.585-.841 2.262.766 4.197 1.814 2.185 4.285 5.169 2.481 10.928a14.142 14.142 0 01-8.111 8.742 22.033 22.033 0 01-8.931 1.65zm5.892-55.514c-8.56 0-18.157 3.071-26.465 11.54-6.559 6.677-9.423 14.425-8.067 21.856 1.279 6.983 6.209 12.917 13.511 16.293 8.745 4.01 17.162 4.787 23.207 2.12a12.022 12.022 0 006.898-7.409c1.454-4.578-.339-6.731-2.077-8.818-1.53-1.836-3.28-3.924-.776-6.972 2.11-2.59 4.536-2.765 6.69-2.93 2.569-.185 4.788-.338 6.963-4.37a12.87 12.87 0 00.81-10.764 14.405 14.405 0 00-8.484-8.382 34.864 34.864 0 00-12.21-2.164z"/><path fill="#080C20" d="M98.297 160.869c.087.426.306.82.393 1.245a3.278 3.278 0 01-1.574 2.896 9.16 9.16 0 00-2.602 2.273 3.671 3.671 0 001.192 4.634 5.303 5.303 0 005.017.382c1.706-.7 3.52-2.109 5.16-1.29a8.744 8.744 0 011.574 1.345 5.281 5.281 0 007.226-.656 6.02 6.02 0 000-7.453c-2.318-2.863-.372-7.65-5.39-8.108-2.58-.251-11.685.918-10.996 4.732z"/><path fill="#093F68" d="M110.627 174.583a5.806 5.806 0 01-3.891-1.41 5.705 5.705 0 01-.525-.502 3.585 3.585 0 00-.81-.678c-.72-.36-1.65 0-2.972.71-.438.22-.864.427-1.29.602a6.364 6.364 0 01-6.067-.492 4.742 4.742 0 01-1.498-6.087 6.973 6.973 0 012.241-2.12l.645-.459c.634-.48 1.268-1.213 1.148-1.836a2.043 2.043 0 00-.142-.437 5.146 5.146 0 01-.24-.798 3.278 3.278 0 01.885-2.928c2.481-2.71 9.4-3.279 11.259-3.093 3.946.393 4.504 3.125 4.952 5.311a7.31 7.31 0 001.18 3.202 7.123 7.123 0 010 8.84 6.417 6.417 0 01-4.372 2.186l-.503-.01zm-5.804-4.917a3.379 3.379 0 011.552.371c.52.285.99.654 1.388 1.093a3.772 3.772 0 003.203 1.257 4.165 4.165 0 002.886-1.388 4.949 4.949 0 00-.055-6.065 9.112 9.112 0 01-1.618-4.13c-.459-2.252-.776-3.356-3.028-3.574-1.902-.197-7.739.546-9.422 2.393-.318.266-.458.69-.361 1.093.037.152.085.302.142.448.105.258.19.525.251.797a4.163 4.163 0 01-1.978 3.978l-.722.514a5.17 5.17 0 00-1.596 1.442 2.568 2.568 0 00.875 3.191c1.2.735 2.685.83 3.968.252a8.454 8.454 0 001.093-.536 7.938 7.938 0 013.422-1.136zm15.74-1.76a5.561 5.561 0 00-1.519 3.279 2.72 2.72 0 00.831 2.273 2.952 2.952 0 001.847.546 7.927 7.927 0 004.668-1.738c1.75-1.344 4.668-5.147 1.957-6.972-2.47-1.584-6.22.864-7.783 2.612z"/><path fill="#093F68" d="M121.712 175.13a3.98 3.98 0 01-2.526-.787 3.759 3.759 0 01-1.235-3.191 6.654 6.654 0 011.804-3.978c1.957-2.186 6.176-4.775 9.193-2.754a3.387 3.387 0 011.596 2.787c.066 2.35-2.11 4.895-3.498 5.955a8.91 8.91 0 01-5.334 1.967zm-.383-6.48a4.37 4.37 0 00-1.235 2.644 1.683 1.683 0 00.47 1.366 1.99 1.99 0 001.158.295 6.56 6.56 0 004.001-1.52c1.094-.84 2.679-2.797 2.635-4.152a1.191 1.191 0 00-.623-1.027c-1.662-1.093-4.821.71-6.362 2.404l-.044-.01z"/><path fill="#080C20" d="M127.658 163.338c-.437-1.016-1.279-2.185-2.36-1.934-1.083.251-1.455 1.42-1.63 2.514-.503 2.84-.59 5.737-1.093 8.578a.874.874 0 00.11.765c.14.118.319.18.502.175a5.892 5.892 0 005.357-3.126c.962-2.021-.055-5.026-.886-6.972z"/><path fill="#093F68" d="M123.504 174.507h-.437c-.44-.015-.86-.19-1.18-.492a1.901 1.901 0 01-.405-1.738c.262-1.42.415-2.896.568-4.316.153-1.42.296-2.83.547-4.262.35-1.978 1.18-3.104 2.492-3.355 1.312-.251 2.766.7 3.575 2.59 1.465 3.442 1.749 6.01.842 7.835a7.106 7.106 0 01-6.002 3.738zm2.034-12.021c-.22 0-.558.48-.744 1.585-.24 1.344-.382 2.742-.524 4.097-.143 1.356-.296 2.765-.536 4.153a4.952 4.952 0 003.859-2.524c.404-.83.579-2.546-.897-6.022-.36-.754-.841-1.31-1.158-1.31v.021z"/><path fill="#080C20" d="M84.6 172.714c-2.012.722-3.99 2.295-3.936 4.306.133.967.32 1.927.558 2.874.306 2.328-.984 4.95.317 6.895a5.051 5.051 0 003.891 1.804c2.187.185 4.766-.383 5.849-2.317.158-.42.417-.795.754-1.093.36-.182.756-.28 1.159-.284a4.077 4.077 0 003.137-2.48c.863-2.186-.656-4.525-2.186-6.066-1.815-1.88-4.635-4.098-7.38-4.076a7.09 7.09 0 00-2.163.437z"/><path fill="#093F68" d="M86.261 189.718h-.918a5.98 5.98 0 01-4.712-2.295c-1.027-1.54-.808-3.278-.612-4.884.14-.816.181-1.645.12-2.47-.054-.339-.142-.7-.24-1.093a8.128 8.128 0 01-.328-1.912c-.065-2.7 2.47-4.568 4.668-5.355a8.004 8.004 0 012.558-.492c3.367 0 6.559 2.754 8.133 4.371 2.383 2.481 3.224 5.038 2.372 7.235a5.16 5.16 0 01-3.99 3.158h-.273a1.87 1.87 0 00-.449.076c-.097.13-.182.269-.251.416 0 .098-.098.196-.153.295-.995 1.901-3.192 2.95-5.925 2.95zm.58-16.392a6.047 6.047 0 00-1.837.361c-1.629.59-3.28 1.814-3.214 3.278.03.482.114.958.252 1.421.13.44.228.89.295 1.344.09 1.006.053 2.02-.11 3.016-.174 1.366-.317 2.546.263 3.41a4.067 4.067 0 003.06 1.322c1.76.153 3.958-.24 4.81-1.76l.11-.218c.213-.497.557-.928.994-1.246a3.083 3.083 0 011.4-.426h.207a2.962 2.962 0 002.274-1.803c.732-1.88-1.093-4.054-1.913-4.907-1.115-1.125-3.935-3.737-6.592-3.737v-.055z"/><path fill="#080C20" d="M94.624 195.15a4.928 4.928 0 002 3.518 9.752 9.752 0 003.793 1.65c3.564.848 7.291.704 10.779-.415a4.253 4.253 0 001.738-.929 3.125 3.125 0 000-3.934 7.882 7.882 0 00-3.51-2.36c-2.48-1.028-2.765-5.05-6.186-5.158-1.476 0-2.307.95-3.28 1.89-1.574 1.53-1.64 1.312-3.76 1.322-1.87.011-1.64 3.202-1.574 4.415z"/><path fill="#093F68" d="M105.063 201.946a21.64 21.64 0 01-4.897-.557 10.572 10.572 0 01-4.209-1.858 6.01 6.01 0 01-2.427-4.37v-.154c-.065-1.213-.196-3.486.93-4.677a2.285 2.285 0 011.716-.732h.7c1.246 0 1.246 0 2.317-1.016l.306-.306a4.985 4.985 0 013.76-1.89c2.536.076 3.728 1.835 4.69 3.278a5.006 5.006 0 001.88 1.977 8.975 8.975 0 013.98 2.721 4.25 4.25 0 01-.088 5.355 5.007 5.007 0 01-2.187 1.202 20.776 20.776 0 01-6.47 1.027zm-8.887-10.119a.175.175 0 00-.142 0c-.306.339-.427 1.366-.328 3.06v.164a3.835 3.835 0 001.574 2.71 8.593 8.593 0 003.378 1.453c3.369.796 6.89.66 10.188-.393a3.28 3.28 0 001.3-.656 2.109 2.109 0 00-.12-2.524 7.127 7.127 0 00-3.06-2 6.853 6.853 0 01-2.854-2.775c-.94-1.4-1.595-2.252-2.951-2.295-.776 0-1.312.437-2.186 1.267l-.328.317c-1.574 1.52-2.055 1.64-3.859 1.629l-.612.043z"/></g><g transform="translate(183.5 .5)"><path fill="#080C20" d="M78.578 211.377v-27.748c0-5.407-2.15-10.592-5.977-14.414a20.4 20.4 0 00-14.428-5.965h-31.42a20.4 20.4 0 00-14.427 5.965 20.372 20.372 0 00-5.978 14.414v27.748h72.23z"/><path fill="#093F68" d="M78.578 212.528H6.348a1.152 1.152 0 01-1.152-1.151v-27.748c.013-11.89 9.659-21.524 21.557-21.53h31.432c11.894.012 21.533 9.644 21.545 21.53v27.748c0 .635-.515 1.15-1.152 1.15zm-71.077-2.303h69.925V183.63c-.013-10.614-8.62-19.215-19.241-19.228H26.753c-10.625.007-19.24 8.61-19.252 19.228v26.596z"/><path fill="#093F68" d="M23.562 212.528a1.152 1.152 0 01-1.152-1.151v-26.481a1.152 1.152 0 012.304 0v26.48c0 .636-.516 1.152-1.152 1.152zm49.497 0a1.152 1.152 0 01-1.152-1.151v-26.481a1.152 1.152 0 012.305 0v26.48c0 .636-.516 1.152-1.153 1.152z"/><path fill="#5DD0E5" d="M49.313 172.23c.265 13 .265 25.94 0 38.375"/><path fill="#093F68" d="M49.313 211.757a1.152 1.152 0 01-1.152-1.152c.276-12.434.276-25.33 0-38.328a1.152 1.152 0 012.304 0 890.238 890.238 0 010 38.432 1.152 1.152 0 01-1.152 1.048z"/><path fill="#080C20" d="M42.354 158.645h12.731v7.99a5.61 5.61 0 01-5.61 5.607h-1.522a5.61 5.61 0 01-5.61-5.607v-7.99h.01z"/><path fill="#093F68" d="M49.474 173.382h-1.52a6.76 6.76 0 01-6.752-6.747v-7.99c0-.636.516-1.152 1.152-1.152h12.731c.637 0 1.153.516 1.153 1.152v7.99a6.76 6.76 0 01-6.764 6.747zm-5.968-13.586v6.84a4.446 4.446 0 004.447 4.443h1.521a4.457 4.457 0 004.46-4.444v-6.839H43.505zm-5.104-84.498a25.222 25.222 0 017.132 2.303 19.912 19.912 0 00-5.991-6.666c9.505.069 19.38 1.98 26.914 7.783 12.87 9.902 9.218 23.51 7.178 37.177-1.071 7-2.615 13.92-3.905 20.874l-59.59 1.393s-2.017-14.438-2.305-26.55c.056-2.695.253-5.385.587-8.06.254-3.373.093-3.004-3.214-4.478-.519-.219-1.152-.518-1.245-1.06-.472-1.623 2.766-1.53 3.584-3.016a14.883 14.883 0 01-5.98-1.37A24.2 24.2 0 0121.212 83.07l-4.678-2.982a1.75 1.75 0 01-.876-.967c-.15-.783.784-1.301 1.544-1.543 6.82-2.153 14.287-3.489 21.2-2.28z"/><path fill="#093F68" d="M10.14 139.314a1.152 1.152 0 01-1.153-.99c0-.139-2.04-14.646-2.304-26.689a42.708 42.708 0 01.345-5.63c.092-.83.173-1.658.242-2.499a6.984 6.984 0 000-2.118 5.612 5.612 0 00-1.532-.794l-1.003-.426a3.03 3.03 0 01-1.878-1.797 2.164 2.164 0 011.28-2.613 15.942 15.942 0 01-3.054-1.048 1.082 1.082 0 01-.622-.737 1.15 1.15 0 01.15-.944 25.35 25.35 0 0117.086-10.8l-1.785-1.15a2.752 2.752 0 01-1.383-1.716c-.242-1.232.657-2.303 2.304-2.856 8.261-2.613 15.566-3.385 21.719-2.302 1.28.225 2.542.536 3.779.932a18.591 18.591 0 00-3.457-3.166 1.15 1.15 0 01-.437-1.29 1.221 1.221 0 011.152-.805c11.521.092 20.808 2.786 27.652 8.059 12.27 9.43 10.197 22.244 8.192 34.633a218.607 218.607 0 00-.588 3.626c-.691 4.606-1.613 9.211-2.512 13.736-.472 2.395-.944 4.778-1.394 7.173a1.152 1.152 0 01-1.152.944l-59.625 1.267h-.023zM5.195 97.807c.16.095.325.18.496.254l.98.426c2.88 1.22 3.19 1.761 2.914 5.192a92.29 92.29 0 01-.242 2.568 40.062 40.062 0 00-.334 5.342c.219 10.074 1.67 21.876 2.132 25.41l57.608-1.255c.392-2.095.807-4.19 1.222-6.286.887-4.456 1.808-9.073 2.5-13.632.184-1.22.38-2.44.576-3.65 1.982-12.262 3.86-23.844-7.316-32.445-5.761-4.41-13.435-6.908-22.906-7.438a21.106 21.106 0 013.722 4.848 1.15 1.15 0 01-1.544 1.577 23.839 23.839 0 00-6.798-2.303c-5.76-1.025-12.674-.265-20.635 2.234a2.743 2.743 0 00-.623.276l.23.161 4.61 2.982c.433.272.635.798.495 1.29-.148.508-.623.85-1.152.829a22.98 22.98 0 00-17.859 8.888c1.355.462 2.774.71 4.206.737a1.152 1.152 0 01.979 1.727 4.747 4.747 0 01-2.523 1.83c-.173.116-.519.266-.738.392v.046z"/><ellipse cx="75.657" cy="133.545" fill="#080C20" rx="8.284" ry="9.245" transform="rotate(-1.25 75.657 133.545)"/><path fill="#093F68" d="M75.686 143.919a8.955 8.955 0 01-6.59-2.948 11.174 11.174 0 01-.323-14.61 9 9 0 016.648-3.235c5.174-.104 9.54 4.455 9.667 10.189a10.921 10.921 0 01-2.57 7.369 8.978 8.978 0 01-6.636 3.235h-.196zm-.069-18.422h-.138a6.65 6.65 0 00-4.954 2.43 8.884 8.884 0 00.253 11.513 6.593 6.593 0 005.047 2.21 6.754 6.754 0 004.954-2.429 8.654 8.654 0 002.005-5.756c-.104-4.514-3.284-7.968-7.167-7.968z"/><path fill="#080C20" d="M47.354 164.32c-18.181.392-34.934-21.656-35.314-39.537l4.355 1.555-.426-12.665s22.64-6.494 19.414-17.006c0 0 6.844 7.784 16.442 7.553 17.64-.437 24.449-5.25 24.449-5.25l.703 32.319c.38 17.88-11.453 32.64-29.623 33.032z"/><path fill="#093F68" d="M46.87 165.472c-18.63 0-35.59-22.555-35.982-40.654a1.151 1.151 0 011.532-1.151l2.766.978-.369-10.95a1.151 1.151 0 01.83-1.15c.15 0 14.46-4.214 18.1-10.927a5.753 5.753 0 00.53-4.605 1.151 1.151 0 011.97-1.094c0 .07 6.43 7.161 15.163 7.161h.438c16.971-.414 23.735-4.996 23.804-5.042a1.153 1.153 0 011.82.92l.703 32.32a35.02 35.02 0 01-8.134 23.844 30.346 30.346 0 01-22.618 10.362l-.553-.012zm-33.608-39.03c1.394 19.814 19.46 36.728 33.678 36.728h.391a28.133 28.133 0 0020.924-9.557 32.695 32.695 0 007.57-22.29l-.669-30.407c-3.064 1.485-10.312 4.145-23.308 4.456-6.81.195-12.167-3.362-15.048-5.757a8.907 8.907 0 01-1.025 3.143c-3.583 6.609-15.312 10.73-18.63 11.79l.403 11.755c.012.38-.165.743-.473.967-.308.23-.71.29-1.071.162l-2.742-.99z"/><ellipse cx="38.389" cy="128.073" fill="#093F68" rx="2.996" ry="2.994" transform="rotate(-1.25 38.389 128.073)"/><ellipse cx="67.229" cy="127.455" fill="#093F68" rx="2.996" ry="2.994"/><path fill="#093F68" d="M54.152 136.193c-.871 0-1.741-.062-2.604-.184a1.165 1.165 0 11.346-2.303c1.395.202 2.81.202 4.205 0 0-1.013-1.152-4.006-2.661-6.746a1.15 1.15 0 01.46-1.566c.555-.301 1.248-.101 1.556.449 1.152 2.015 3.606 6.908 2.742 8.946a1.785 1.785 0 01-1.152 1.07c-.945.238-1.917.35-2.892.334z"/><path fill="#080C20" d="M18.596 126.925s-8.065-5.296-12.132 1.842c-4.067 7.139.265 19.055 13.261 15.279"/><path fill="#093F68" d="M14.978 145.922a10.66 10.66 0 01-8.722-4.006 12.554 12.554 0 01-.818-13.725 8.064 8.064 0 015.162-4.087c4.205-.99 8.434 1.75 8.607 1.865a1.15 1.15 0 01-1.268 1.923s-3.583-2.303-6.82-1.543a5.76 5.76 0 00-3.676 2.994 10.356 10.356 0 00.622 11.122c2.374 3.016 6.395 3.88 11.315 2.452a1.152 1.152 0 01.645 2.21 18.447 18.447 0 01-5.047.795zm29.53-26.354h-13.4a2.304 2.304 0 110-4.606h13.389a2.304 2.304 0 110 4.606h.011zm26.42 0H57.54a2.304 2.304 0 110-4.606h13.388a2.304 2.304 0 110 4.606zM57.54 144.759h-8.066s-.46 8.06 4.367 8.348c3.192.195 3.699-8.348 3.699-8.348z"/><path fill="#093F68" d="M53.98 154.281h-.173c-4.713-.288-5.646-6.137-5.439-9.545 0-.635.516-1.151 1.152-1.151h8.066c.319.001.624.134.84.368.217.23.33.538.312.852 0 .68-.461 6.62-2.765 8.659a2.916 2.916 0 01-1.994.817zm-3.284-8.37c.08 1.957.587 5.872 3.272 6.044a.623.623 0 00.46-.195c.992-.875 1.614-3.673 1.879-5.85h-5.611z"/><path fill="#080C20" d="M163.69 77.14c-7.513-.863-15.808 2.096-21.73 6.252-9.068 6.356-13.827 16.12-14.84 26.907l-2.685 29.015c-1.325 14.253-4.92 30.269 8.468 40.078 6.913 5.078 15.704 6.908 24.265 7.657a81.86 81.86 0 0031.696-3.075c8.227-2.625 20.313-7.714 21.488-17.604.646-5.457-2.592-10.523-4.228-15.785-3.457-11.064.3-23.027-.472-34.598-.795-11.94-11.004-37.672-27.1-33.481a5.984 5.984 0 01-2.477.391 5.082 5.082 0 01-2.304-1.439 18.165 18.165 0 00-10.082-4.317z"/><path fill="#093F68" d="M165.44 188.51c-2.742 0-5.53-.126-8.387-.368-10.865-.91-18.77-3.454-24.853-7.863-12.42-9.096-10.842-23.523-9.436-36.245.173-1.635.357-3.27.507-4.87l2.696-28.968c1.152-11.894 6.406-21.496 15.336-27.748 5.357-3.753 14.09-7.414 22.513-6.459a19.237 19.237 0 0110.67 4.606l.195.172c.446.453.996.789 1.602.979a3.7 3.7 0 001.486-.242l.507-.138a14.871 14.871 0 0112.881 2.683c9.218 6.666 14.978 22.785 15.624 31.87.19 4.567.04 9.143-.45 13.689-.61 7.23-1.152 14.07.864 20.643.473 1.497 1.095 3.017 1.694 4.502 1.51 3.73 3.076 7.6 2.581 11.755-.933 7.899-8.434 14.139-22.272 18.56a78.042 78.042 0 01-23.757 3.443zm-4.424-110.368c-6.982 0-13.93 3.063-18.434 6.194-8.354 5.85-13.32 14.864-14.368 26.067l-2.627 28.98c-.15 1.611-.334 3.246-.507 4.893-1.394 12.665-2.834 25.836 8.503 34.137 5.76 4.203 13.262 6.563 23.689 7.438a80.465 80.465 0 0031.247-3.016c12.904-4.122 19.863-9.73 20.739-16.637.415-3.57-.968-7-2.443-10.627-.61-1.52-1.256-3.098-1.751-4.686-2.178-7-1.556-14.38-.968-21.508.481-4.434.635-8.898.461-13.355-.576-8.624-6.003-23.902-14.679-30.143a12.681 12.681 0 00-10.991-2.302l-.45.126c-.801.298-1.662.4-2.512.3a5.612 5.612 0 01-2.696-1.555l-.184-.16a16.932 16.932 0 00-9.436-3.996 23.74 23.74 0 00-2.593-.15z"/><path fill="#080C20" d="M197.782 211.377v-26.274c0-5.121-2.036-10.032-5.66-13.653a19.329 19.329 0 00-13.662-5.655h-29.772c-3.07.009-6.094.742-8.826 2.141a19.284 19.284 0 00-10.484 17.167v26.274h68.404z"/><path fill="#093F68" d="M197.782 212.528h-68.404a1.152 1.152 0 01-1.153-1.151v-26.274c-.008-9.35 6.337-17.512 15.405-19.815a19.97 19.97 0 015.058-.645h29.772c11.303.013 20.462 9.166 20.474 20.46v26.274c0 .635-.515 1.15-1.152 1.15zm-67.252-2.303h66.1v-25.122c-.013-10.023-8.14-18.144-18.17-18.157h-29.772c-1.515.001-3.025.19-4.493.564-1.32.344-2.6.83-3.814 1.45a18.075 18.075 0 00-9.851 16.12v25.145z"/><path fill="#080C20" d="M175.211 165.795c-1.429 8.589-7.927 15.094-15.704 15.094-7.593 0-13.964-6.194-15.6-14.484a18.84 18.84 0 014.781-.61h26.523z"/><path fill="#093F68" d="M159.507 182.04c-8.065 0-14.978-6.344-16.73-15.416a1.151 1.151 0 01.841-1.336 20.13 20.13 0 015.07-.645h26.5c.339.003.659.155.876.415.221.256.318.598.265.932-1.533 9.292-8.619 16.05-16.822 16.05zm-14.218-14.772c1.878 7.392 7.593 12.47 14.218 12.47s12.524-5.308 14.298-12.792h-25.117c-1.14.002-2.278.11-3.399.322z"/><path fill="#5DD0E5" d="M181.479 210.525v-24.179"/><path fill="#093F68" d="M181.479 211.676a1.152 1.152 0 01-1.152-1.151v-24.179a1.152 1.152 0 012.304 0v24.179c0 .635-.516 1.15-1.152 1.15zm-15.889-41.518a1.152 1.152 0 01-1.152-1.151v-6.425h-9.759v6.425a1.152 1.152 0 01-2.304 0v-7.576c0-.636.516-1.151 1.152-1.151h12.063c.637 0 1.153.515 1.153 1.151v7.576c0 .636-.516 1.151-1.153 1.151z"/><path fill="#080C20" d="M123.87 134.973c-.219 4.697 3.883 11.18 9.321 11.433 5.439.253 10.024-3.328 10.255-8.06.23-4.732-3.998-8.715-9.437-8.969-5.438-.253-9.908.898-10.139 5.596z"/><path fill="#093F68" d="M133.744 147.58h-.61a10.37 10.37 0 01-7.65-4.513 13.12 13.12 0 01-2.754-8.129 6.183 6.183 0 013.779-5.63 16.418 16.418 0 017.558-1.024 11.768 11.768 0 017.581 3.143 9.035 9.035 0 012.95 7.035c-.254 5.123-5.058 9.118-10.854 9.118zm-1.152-17.051a12.751 12.751 0 00-5.139.852 3.892 3.892 0 00-2.442 3.65c.02 2.403.83 4.732 2.304 6.631a8.343 8.343 0 005.922 3.604c4.828.242 8.85-2.878 9.045-6.908a6.79 6.79 0 00-2.235-5.262 9.394 9.394 0 00-6.107-2.51l-1.348-.057z"/><path fill="#080C20" d="M158.862 165.392a29.762 29.762 0 0021.423-7.717 29.72 29.72 0 009.685-20.595l.669-13.816c.345-7.15-9.897-21.036-17.03-21.37 0 0-1.486 6.701-12.996 12.078-8.065 3.754-19.126 3.454-28.804-4.006l-1.152 24.178a29.727 29.727 0 007.62 21.466 29.77 29.77 0 0020.585 9.782z"/><path fill="#093F68" d="M160.302 166.578h-1.498c-17.046-.863-30.175-15.353-29.346-32.388l1.152-24.178c.021-.43.279-.81.669-.99.379-.169.819-.12 1.152.126 10 7.714 20.843 7.058 27.652 3.869 10.75-5.02 12.34-11.226 12.351-11.295a1.153 1.153 0 011.153-.887c3.606.173 8.157 3.374 12.178 8.578 3.019 3.891 6.164 9.625 5.957 14l-.669 13.817c-.842 16.382-14.335 29.26-30.751 29.348zm-27.48-54.39l-1.06 22.071c-.75 15.748 11.39 29.135 27.146 29.935 15.79.743 29.198-11.439 29.956-27.218l.657-13.816c.15-3.086-1.993-7.99-5.473-12.48-3.226-4.168-6.82-6.978-9.62-7.576-.9 2.187-3.918 7.483-13.285 11.858a28.822 28.822 0 01-28.32-2.774z"/><path fill="#093F68" d="M177.17 125.98h-.138l-13.1-.794a2.307 2.307 0 11.276-4.605l13.1.806a2.304 2.304 0 11-.138 4.605v-.011zm-29.692-1.75l-13.123-.552a2.305 2.305 0 11.196-4.605l13.112.54a2.304 2.304 0 11-.093 4.606l-.092.012z"/><path fill="#080C20" d="M184.59 148.352c5.438.253 13.25-5.665 13.042-10.363-.345-7.852-8.952-6.908-12.34-4.144"/><path fill="#093F68" d="M184.958 149.503h-.414a1.152 1.152 0 11.057-2.303c2.812.138 6.59-1.646 9.275-4.306 1.694-1.68 2.627-3.454 2.558-4.858-.092-2.303-.98-3.8-2.615-4.537a8.462 8.462 0 00-7.847 1.244 1.156 1.156 0 01-1.451-1.796c2.408-1.946 6.913-3.063 10.254-1.555 1.705.772 3.79 2.533 3.963 6.551.093 2.073-1.06 4.41-3.237 6.575-2.489 2.521-6.694 4.985-10.543 4.985zm6.303-19.654s4.505-15.07-3.975-28.61S155.59 85.59 146.234 90.99c-14.633 8.428-14.483 19.01-14.483 19.01s-2.04-29.395 32.261-27.633c30.89 1.6 37.388 27.413 27.249 47.481z"/><path fill="#093F68" d="M191.26 131a1.337 1.337 0 01-.425-.08 1.151 1.151 0 01-.68-1.404c0-.15 4.24-14.75-3.837-27.633-8.077-12.884-30.28-15.186-39.508-9.867-13.826 7.956-13.907 17.604-13.907 18.007a1.153 1.153 0 01-2.304.092c0-.495-.76-12.354 7.57-20.828 5.76-5.906 14.506-8.612 25.854-8.06 17.041.876 25.06 8.717 28.805 15.13 5.484 9.44 5.277 22.462-.542 34.01a1.152 1.152 0 01-1.025.634zm-32.099-43.98c10.704 0 23.228 4.213 29.104 13.608a36.398 36.398 0 015.358 19.205c1.774-8.06.864-16.05-2.788-22.314-4.943-8.508-14.241-13.344-26.915-14-10.646-.541-18.758 1.923-24.08 7.334a23.185 23.185 0 00-5.381 8.912 34.258 34.258 0 0111.199-9.775c3.387-1.946 8.238-2.97 13.526-2.97h-.023zm-2.177 57.118c-1.027.024-2.051-.1-3.042-.369a1.774 1.774 0 01-1.152-1.059c-.726-1.854 1.405-5.964 2.73-8.244a1.153 1.153 0 011.994 1.152 20.912 20.912 0 00-2.593 6.021c1.241.214 2.507.245 3.756.092a1.161 1.161 0 11.288 2.303c-.057 0-.898.104-1.981.104z"/><ellipse cx="165.362" cy="133.632" fill="#093F68" rx="2.625" ry="2.627" transform="rotate(-87.23 165.362 133.632)"/><ellipse cx="140.604" cy="132.44" fill="#093F68" rx="2.625" ry="2.627" transform="rotate(-87.23 140.604 132.44)"/><path fill="#093F68" d="M143.538 142.123h-.473c-5.564-.13-9.99-4.708-9.925-10.27.065-5.562 4.595-10.037 10.162-10.037 5.566 0 10.096 4.475 10.161 10.037.065 5.562-4.36 10.14-9.925 10.27zm0-16.821a7.325 7.325 0 00-7.149 7.41 7.325 7.325 0 007.327 7.233 7.325 7.325 0 007.328-7.234 7.325 7.325 0 00-7.149-7.41h-.357zm25.014 18.03h-.473a9.569 9.569 0 01-8.046-5.174 9.556 9.556 0 01.46-9.55 9.57 9.57 0 018.508-4.377c5.278.26 9.35 4.741 9.102 10.017-.252 5.09-4.452 9.09-9.551 9.095v-.011zm0-16.822a7.262 7.262 0 00-5.369 12.145 7.272 7.272 0 005.034 2.374 7.181 7.181 0 005.243-1.877 7.262 7.262 0 001.988-7.856 7.27 7.27 0 00-6.528-4.809l-.368.023z"/><path fill="#093F68" d="M160.152 134.512l-8.192-.391a1.152 1.152 0 11.058-2.303l8.192.392a1.152 1.152 0 01-.058 2.302zm-24.864-2.498c-.28 0-.55-.103-.76-.288l-4.436-3.926a1.15 1.15 0 111.532-1.716l4.436 3.927a1.15 1.15 0 01-.772 2.015v-.012zm41.663 3.316a1.151 1.151 0 01-.357-2.257l12.616-3.592a1.153 1.153 0 011.429.783 1.15 1.15 0 01-.795 1.428l-12.617 3.592a.968.968 0 01-.276.046zm-15.024 12.688l-8.457.414s.645 6.84 3.802 8.635c1.935 1.094 5.265-2.487 4.655-9.05z"/><path fill="#093F68" d="M158.02 158.414a2.71 2.71 0 01-1.324-.345c-3.572-2.026-4.31-8.762-4.379-9.522a1.15 1.15 0 01.277-.863c.206-.241.501-.387.818-.403l8.457-.415a1.152 1.152 0 011.152 1.048c.484 5.1-1.29 8.658-3.26 9.925a3.274 3.274 0 01-1.74.575zm-3.248-8.888c.368 2.142 1.301 5.538 3.064 6.54.23.126.553 0 .726-.162 1.014-.656 2.305-2.935 2.305-6.677l-6.095.299z"/><path fill="#080C20" d="M181.479 202.557h16.303v8.819h-16.303z"/><path fill="#093F68" d="M197.782 212.528H181.48a1.152 1.152 0 01-1.152-1.151v-8.82c0-.636.516-1.151 1.152-1.151h16.303c.637 0 1.152.515 1.152 1.151v8.82c0 .635-.515 1.15-1.152 1.15zm-15.15-2.303h13.998v-6.516h-13.999v6.516z"/><path fill="#080C20" d="M129.401 202.557h10.462v8.819h-10.462z"/><path fill="#093F68" d="M139.862 212.528h-10.461a1.152 1.152 0 01-1.153-1.151v-8.82c0-.636.516-1.151 1.153-1.151h10.461c.637 0 1.153.515 1.153 1.151v8.82c0 .635-.516 1.15-1.153 1.15zm-9.31-2.303h8.158v-6.516h-8.157v6.516z"/><path fill="#093F68" d="M139.862 203.709a1.152 1.152 0 01-1.152-1.152v-19.112a1.152 1.152 0 012.305 0v19.112c0 .636-.516 1.152-1.153 1.152z"/><path fill="#080C20" d="M98.568 9.407h81.644c5.66.006 10.248 4.59 10.254 10.247V44.5c0 5.659-4.591 10.247-10.254 10.247h-11.165v14.46l-12.755-14.46H98.568a10.247 10.247 0 01-7.254-2.998 10.232 10.232 0 01-3-7.25V19.655c0-5.66 4.591-10.247 10.254-10.247z"/><path fill="#093F68" d="M169.047 70.36c-.331 0-.646-.144-.864-.392l-12.41-14.07H98.569c-6.297-.006-11.4-5.106-11.406-11.398V19.654c.006-6.293 5.11-11.392 11.406-11.399h81.644c6.297.007 11.4 5.106 11.406 11.399V44.5c-.006 6.292-5.11 11.392-11.406 11.398h-10.013v13.31c.002.482-.297.913-.749 1.082-.13.044-.266.068-.403.07zM98.568 10.557c-5.024.006-9.095 4.075-9.102 9.096V44.5c0 5.023 4.075 9.095 9.102 9.095h57.724c.331 0 .646.143.865.392l10.738 12.181V54.747c0-.636.516-1.152 1.152-1.152h11.165c5.027 0 9.102-4.072 9.102-9.095V19.654c-.007-5.021-4.078-9.09-9.102-9.096H98.568z"/><path fill="#093F68" d="M176.179 25.514h-65.305a1.152 1.152 0 110-2.303h65.305a1.152 1.152 0 110 2.303zm-19.357 13.828h-13.365a1.152 1.152 0 110-2.303h13.365a1.152 1.152 0 110 2.303zm-23.746 0h-22.202a1.152 1.152 0 110-2.303h22.202a1.152 1.152 0 110 2.303z"/><path fill="#080C20" d="M111.058 1.37H29.415c-5.67 0-10.266 4.593-10.266 10.259v24.846c.006 5.66 4.6 10.247 10.266 10.247H40.58v14.46l12.743-14.46h57.735c5.66-.007 10.248-4.59 10.254-10.247V11.629c0-5.661-4.589-10.253-10.254-10.259z"/><path fill="#093F68" d="M40.58 62.335a.976.976 0 01-.404-.081 1.151 1.151 0 01-.749-1.071v-13.31H29.415c-6.299-.006-11.405-5.104-11.418-11.398V11.629C18.01 5.332 23.114.23 29.415.219h81.643c6.299.012 11.4 5.115 11.407 11.41v24.846c-.007 6.292-5.11 11.392-11.407 11.398H53.853l-12.375 14.07a1.154 1.154 0 01-.898.392zM29.415 2.52c-5.03.007-9.107 4.08-9.114 9.108v24.846c.013 5.022 4.088 9.09 9.114 9.095H40.58c.636 0 1.152.516 1.152 1.152v11.41l10.726-12.17c.219-.248.534-.391.865-.392h57.735c5.022-.012 9.09-4.077 9.102-9.095V11.629c-.006-5.023-4.076-9.095-9.102-9.108H29.415z"/><path fill="#093F68" d="M102.89 16.395H37.571a1.152 1.152 0 110-2.302h65.317a1.152 1.152 0 110 2.302zM83.532 30.223h-45.96a1.152 1.152 0 110-2.303h45.96a1.152 1.152 0 110 2.303z"/></g></g></svg>