<svg xmlns="http://www.w3.org/2000/svg" width="74" height="89"><g fill="none"><path fill="#080C20" d="M70.262 24.74c-3.227-3.986-10.034-4.204-11.873-10.145-1.839-5.94-1.306-8.458-1.306-8.458H16.917s.544 2.512-1.306 8.458S6.965 20.748 3.738 24.74C.881 28.278.881 33.503.881 39.04V75.78c0 5.946 2.754 12.198 9.294 12.198h53.65c6.53 0 9.294-6.252 9.294-12.198V39.04c0-5.537 0-10.762-2.857-14.3z"/><path fill="#093F68" d="M63.825 88.525h-53.65c-6.796 0-9.838-6.405-9.838-12.744V39.04c0-5.635 0-10.959 2.977-14.644 1.376-1.698 3.357-2.73 5.272-3.751 2.819-1.485 5.48-2.889 6.53-6.214 1.757-5.684 1.295-8.157 1.29-8.19a.547.547 0 01.543-.655h40.167a.544.544 0 01.419.202.547.547 0 01.114.458s-.468 2.496 1.29 8.19c1.028 3.326 3.689 4.729 6.53 6.214 1.915 1.01 3.895 2.053 5.272 3.751 2.976 3.686 2.976 9.01 2.976 14.644v36.742c-.054 6.333-3.096 12.738-9.892 12.738zM17.521 6.683c.06 1.12-.033 3.691-1.388 8.07-1.164 3.762-4.152 5.335-7.04 6.858-1.9 1-3.7 1.95-4.93 3.473-2.721 3.385-2.721 8.518-2.721 13.956V75.78c0 5.799 2.72 11.652 8.75 11.652h53.65c6.044 0 8.749-5.853 8.749-11.652V39.04c0-5.46 0-10.57-2.72-13.956-1.23-1.524-3.032-2.474-4.93-3.473-2.89-1.523-5.877-3.096-7.041-6.858-1.355-4.368-1.448-6.95-1.388-8.07H17.521z"/><path fill="#093F68" d="M63.825 85.249h-53.65c-6.393 0-6.573-8.502-6.573-9.468V39.04c0-5.04 0-9.796 2.247-12.558.952-1.174 2.558-2.02 4.255-2.916 2.977-1.567 6.677-3.516 8.108-8.141a42.376 42.376 0 001.376-7.17.545.545 0 01.544-.48h33.79a.545.545 0 01.544.48c.246 2.418.7 4.81 1.355 7.148 1.431 4.625 5.131 6.552 8.102 8.141 1.703.896 3.308 1.742 4.26 2.916 2.248 2.784 2.248 7.54 2.248 12.558v36.741c-.033.988-.213 9.49-6.606 9.49zM20.589 8.867a41.839 41.839 0 01-1.338 6.858c-1.567 5.056-5.485 7.098-8.635 8.785-1.6.841-3.107 1.639-3.918 2.638C4.69 29.632 4.69 34.202 4.69 39.04V75.78c0 .857.153 8.376 5.485 8.376h53.65c5.332 0 5.485-7.519 5.485-8.376V39.04c0-4.838 0-9.408-2.008-11.892-.81-1-2.318-1.797-3.912-2.638-3.156-1.638-7.074-3.729-8.64-8.785a41.839 41.839 0 01-1.34-6.858H20.59z"/><path fill="#080C20" d="M13.402.808h47.196a4.219 4.219 0 014.212 4.226v2.73c0 .624-.247 1.223-.687 1.664-.44.442-1.036.69-1.658.69h-50.93a2.341 2.341 0 01-1.658-.69 2.357 2.357 0 01-.687-1.664v-2.73A4.219 4.219 0 0113.402.808z"/><path fill="#093F68" d="M62.465 10.68h-50.93a2.894 2.894 0 01-2.889-2.9V5.05c.003-2.634 2.13-4.769 4.756-4.772h47.196c2.626.003 4.753 2.138 4.756 4.773v2.73c0 1.6-1.294 2.899-2.89 2.899zM13.402 1.354a3.66 3.66 0 00-2.594 1.078 3.687 3.687 0 00-1.074 2.602v2.73c0 .998.807 1.808 1.801 1.808h50.93c.994 0 1.8-.81 1.8-1.808v-2.73a3.674 3.674 0 00-3.667-3.68H13.402z"/><rect width="32.402" height="7.573" x="12.368" y="45.996" fill="#3EE9E5" rx="3.787"/><path fill="#093F68" d="M42.594 54.115h-28.05a2.725 2.725 0 01-2.72-2.73V48.18a2.725 2.725 0 012.72-2.73h28.05a2.725 2.725 0 012.72 2.73v3.205a2.725 2.725 0 01-2.72 2.73zm-28.05-7.573c-.901 0-1.632.733-1.632 1.638v3.205c0 .905.73 1.638 1.632 1.638h28.05c.901 0 1.632-.733 1.632-1.638V48.18c0-.905-.73-1.638-1.632-1.638h-28.05z"/><rect width="32.402" height="7.573" x="15.692" y="53.569" fill="#3EE9E5" rx="3.787"/><path fill="#093F68" d="M45.918 61.7h-28.05a2.725 2.725 0 01-2.72-2.73v-3.211a2.725 2.725 0 012.72-2.73h28.05a2.725 2.725 0 012.72 2.73v3.21c0 .724-.286 1.419-.796 1.93-.51.513-1.202.8-1.924.8zm-28.05-7.58c-.9 0-1.632.734-1.632 1.639v3.21c0 .905.731 1.638 1.633 1.638h28.05c.9 0 1.631-.733 1.631-1.638v-3.21c0-.905-.73-1.638-1.632-1.638h-28.05z"/><rect width="32.402" height="7.573" x="11.361" y="61.164" fill="#3EE9E5" rx="3.787" transform="rotate(-180 27.562 64.95)"/><path fill="#093F68" d="M41.587 69.283h-28.05a2.725 2.725 0 01-2.72-2.73v-3.216a2.725 2.725 0 012.72-2.73h28.05a2.725 2.725 0 012.72 2.73v3.206a2.735 2.735 0 01-.792 1.937 2.716 2.716 0 01-1.928.803zM13.537 61.7c-.9 0-1.632.734-1.632 1.638v3.206c0 .904.731 1.638 1.633 1.638h28.049c.901 0 1.632-.734 1.632-1.638v-3.206c0-.904-.73-1.638-1.632-1.638h-28.05z"/><rect width="32.402" height="7.573" x="6.796" y="68.737" fill="#3EE9E5" rx="3.787" transform="rotate(-180 22.997 72.524)"/><path fill="#093F68" d="M37 76.857H8.973a2.725 2.725 0 01-2.721-2.73v-3.205a2.725 2.725 0 012.72-2.73H37a2.725 2.725 0 012.72 2.73v3.205a2.725 2.725 0 01-2.72 2.73zM8.95 69.283c-.9 0-1.632.734-1.632 1.639v3.205c0 .904.731 1.638 1.633 1.638H37c.902 0 1.632-.734 1.632-1.638v-3.205c0-.905-.73-1.639-1.632-1.639H8.95z"/><rect width="32.402" height="7.573" x="11.361" y="76.316" fill="#3EE9E5" rx="3.787" transform="rotate(-180 27.562 80.103)"/><path fill="#093F68" d="M41.587 84.435h-28.05a2.725 2.725 0 01-2.72-2.73v-3.21a2.725 2.725 0 012.72-2.73h28.05a2.725 2.725 0 012.72 2.73v3.21a2.725 2.725 0 01-2.72 2.73zm-28.05-7.578c-.9 0-1.632.733-1.632 1.638v3.21c0 .905.731 1.638 1.633 1.638h28.049c.901 0 1.632-.733 1.632-1.638v-3.21c0-.905-.73-1.638-1.632-1.638h-28.05z"/><path fill="#3EE9E5" d="M68.922 57.759L58.486 80.414a3.766 3.766 0 01-5.005 1.84 3.786 3.786 0 01-1.846-5.018l10.437-22.655a3.766 3.766 0 015.005-1.84 3.786 3.786 0 011.845 5.018z"/><path fill="#093F68" d="M55.837 83.67c-.392 0-.78-.085-1.137-.25l-2.905-1.349a2.734 2.734 0 01-1.328-3.62l11.77-25.548a2.724 2.724 0 011.53-1.417 2.712 2.712 0 012.082.085l2.9 1.343a2.726 2.726 0 011.413 1.537c.249.68.218 1.431-.085 2.089l-11.77 25.547a2.72 2.72 0 01-2.47 1.584zm8.87-31.253c-.187.001-.371.036-.545.104-.407.15-.738.456-.92.852L51.475 78.92a1.61 1.61 0 00-.05 1.25c.143.397.434.724.811.912l2.9 1.343a1.627 1.627 0 002.177-.797l11.79-25.548a1.643 1.643 0 00-.799-2.184l-2.9-1.349a1.67 1.67 0 00-.697-.13z"/><path fill="#3EE9E5" d="M63.276 51.777L50.644 73.272a3.765 3.765 0 01-5.164 1.332 3.788 3.788 0 01-1.337-5.18L56.776 47.93a3.765 3.765 0 015.164-1.333 3.788 3.788 0 011.336 5.18z"/><path fill="#093F68" d="M47.959 76.267c-.485 0-.96-.13-1.377-.377l-2.753-1.638a2.738 2.738 0 01-.963-3.74l14.266-24.237a2.712 2.712 0 013.727-.961l2.754 1.638a2.738 2.738 0 01.958 3.74L50.324 74.935a2.72 2.72 0 01-2.366 1.332zM59.46 46.023c-.138 0-.275.018-.408.055-.42.108-.78.379-1.001.753L43.807 71.074a1.643 1.643 0 00.577 2.245l2.747 1.638a1.627 1.627 0 002.237-.58l14.25-24.242a1.643 1.643 0 00-.577-2.244l-2.753-1.638a1.628 1.628 0 00-.827-.23z"/><ellipse cx="30.672" cy="70.239" fill="#3EE9E5" rx="13.581" ry="13.628"/><path fill="#093F68" d="M30.688 84.414c-7.298.008-13.406-5.556-14.1-12.846-.694-7.291 4.252-13.915 11.42-15.293 7.169-1.379 14.205 2.941 16.246 9.973 2.04 7.032-1.585 14.467-8.37 17.166-1.653.662-3.416 1-5.196 1zm0-27.268c-6.534-.014-12.073 4.822-12.963 11.318-.89 6.496 3.141 12.653 9.436 14.41 6.296 1.758 12.917-1.424 15.498-7.448a13.144 13.144 0 00-1.084-12.372c-2.41-3.68-6.5-5.9-10.887-5.908z"/><ellipse cx="30.672" cy="70.239" fill="#3EE9E5" rx="10.36" ry="10.396"/><path fill="#093F68" d="M30.672 81.187c-5.473-.018-10.08-4.112-10.762-9.56-.682-5.45 2.775-10.558 8.073-11.933 5.299-1.375 10.79 1.413 12.826 6.51 1.329 3.37.91 7.183-1.12 10.182a10.905 10.905 0 01-9.017 4.8zm0-20.798a9.798 9.798 0 00-9.35 6.944 9.846 9.846 0 003.857 11.012 9.767 9.767 0 0011.623-.452 9.85 9.85 0 002.995-11.28 9.838 9.838 0 00-9.136-6.224h.01z"/><path fill="#093F68" d="M32.647 78.511l-.49-1.24c-.5.055-.974.137-1.447.159a4.097 4.097 0 01-2.606-.71 4.006 4.006 0 01-1.41-1.867l2.41-.961a2.045 2.045 0 002.177 1.207l-1.3-3.277c-.544.05-1.088.11-1.632.148a3.542 3.542 0 01-1.714-.246 2.958 2.958 0 01-1.383-1.212 4.193 4.193 0 01-.68-2.184 3.768 3.768 0 011.284-2.943c.346-.29.71-.558 1.089-.803l.13-.087-.647-1.638 2.252-.901.066.164c.185.47.375.933.544 1.403.043.12.092.142.212.12a5.076 5.076 0 012.492.148 3.654 3.654 0 012.024 1.638c.13.207.234.426.36.655l-2.45.972a1.855 1.855 0 00-1.68-1.136l1.213 3.063.288-.043a9.598 9.598 0 012.177-.148 2.98 2.98 0 012.584 1.638 3.952 3.952 0 01-.865 4.996c-.386.339-.816.628-1.251.961l.473 1.196-2.22.928zm-.201-7.13l1.126 2.85a2.18 2.18 0 00.822-.836 1.353 1.353 0 00-.838-1.955c-.373-.04-.747-.06-1.121-.06h.01zm-3.434-2.037l-1.088-2.73a8.803 8.803 0 00-.685.78 1.287 1.287 0 00-.096 1.212c.173.395.532.676.955.748.294.022.593-.01.914-.01z"/></g></svg>