<svg xmlns="http://www.w3.org/2000/svg" width="408" height="459"><g fill="none"><g transform="translate(191.5 .5)"><path fill="#080C20" d="M85.41 188.942c-1.282-14.973-.664-22.284-2.25-27.241-3.679-2.94-17.325-10.838-28.766-16.899a8.807 8.807 0 01-4.283-5.205 8.82 8.82 0 01.649-6.714c2.25-4.292 5.153-.428 9.45 1.848 13.613 7.255 33.187 11.322 36.956 16.11 4.253 5.396 3.072 41.097 3.072 41.097l-14.828-2.996z"/><path fill="#093F68" d="M100.204 193.042a.764.764 0 01-.225 0l-14.783-2.974a1.126 1.126 0 01-.9-1.014c-.529-6.05-.731-10.871-.911-14.747-.236-5.463-.394-9.136-1.226-11.907-4.084-3.121-17.708-10.962-28.328-16.606-4.83-2.584-6.666-8.592-4.106-13.44a4.3 4.3 0 012.678-2.434c1.777-.45 3.487.71 5.467 2.05.926.637 1.888 1.22 2.88 1.747 6.12 3.256 13.5 5.892 20.081 8.224 8.37 2.963 14.974 5.317 17.235 8.179 4.365 5.565 3.375 38.134 3.308 41.84-.012.332-.168.64-.428.846a1.124 1.124 0 01-.742.236zm-13.736-5.047l12.644 2.558c.406-14.218 0-35.431-2.857-39.036-1.856-2.355-8.831-4.833-16.222-7.458-6.615-2.355-14.12-5.013-20.386-8.348a34.8 34.8 0 01-3.037-1.893c-1.462-1.002-2.858-1.937-3.667-1.735-.405.102-.822.541-1.227 1.307-1.98 3.75-.563 8.398 3.173 10.398 11.182 5.949 25.065 13.948 28.935 17.034.177.133.307.318.371.53 1.013 3.11 1.193 6.973 1.44 12.832.169 3.672.36 8.201.832 13.811z"/><path fill="#080C20" d="M85.41 188.942v17.72s26.876 5.16 24.75 1.127c-2.126-4.033-10.642-6.309-10.642-6.309l.708-9.598-14.816-2.94z"/><path fill="#093F68" d="M105.75 210.414c-3.769 0-10.058-.642-20.509-2.647a1.127 1.127 0 01-.911-1.127v-17.698c-.001-.341.152-.664.416-.88.262-.21.605-.293.934-.224l14.782 2.974c.56.112.946.625.9 1.194l-.64 8.697c2.34.732 8.516 2.986 10.45 6.59a1.77 1.77 0 01-.078 1.96c-.45.62-1.744 1.161-5.344 1.161zm-19.125-4.686c9.427 1.757 19.991 3.041 22.41 2.253-1.856-2.772-7.605-4.833-9.742-5.42a1.126 1.126 0 01-.833-1.126l.63-8.607-12.465-2.512v15.412z"/><path fill="#080C20" d="M71.179 82.672S84.892 100.212 88.2 99.57c3.307-.642 12.859-6.996 17.865-9.102 8.021-3.38 20.666-1.758 17.224 1.126-3.443 2.884-2.475.226-2.475.226-18.641 12.29-31.5 20.278-33.12 20.143-8.055-.417-23.153-15.48-23.153-15.48l6.638-13.811z"/><path fill="#093F68" d="M87.75 113.078h-.112c-8.393-.44-23.266-15.186-23.896-15.772a1.128 1.128 0 01-.213-1.296l6.637-13.789a1.125 1.125 0 011.901-.203c6.21 7.943 14.074 16.505 15.942 16.505 1.653-.316 5.715-2.603 9.281-4.63a91.61 91.61 0 018.325-4.394c6.514-2.726 17.392-2.603 19.125.225a2.019 2.019 0 01-.72 2.76c-1.575 1.296-2.824 2.017-3.825 1.307l-.124-.101c-28.327 18.6-31.444 19.388-32.321 19.388zM65.903 96.179c2.8 2.704 15.164 14.252 21.858 14.646.585-.09 4.894-1.791 32.423-19.963.395-.29.932-.29 1.327 0 .12.108.222.233.304.372.203-.147.45-.338.754-.586-1.575-.991-9.776-1.791-16.11.856-2.104.89-5.142 2.614-8.078 4.281-4.095 2.31-7.954 4.506-10.012 4.89-1.125.213-5.108-.947-16.988-15.92L65.903 96.18z"/><path fill="#080C20" d="M18.9 189.64h49.657v7.818H18.9z"/><path fill="#093F68" d="M68.558 198.608H18.9a1.126 1.126 0 01-1.125-1.127v-7.886c0-.622.504-1.127 1.125-1.127h49.658c.62 0 1.124.505 1.124 1.127v7.886c0 .622-.503 1.127-1.124 1.127zm-48.533-2.253h47.408v-5.633H20.025v5.633z"/><path fill="#080C20" d="M16.481 209.446h-2.52a2.374 2.374 0 01-2.317-2.885l12.375-56.407h7.369l-12.544 57.455a2.386 2.386 0 01-2.363 1.837z"/><path fill="#093F68" d="M16.481 210.572h-2.52c-1.058 0-2.06-.48-2.722-1.307a3.462 3.462 0 01-.687-2.94l12.375-56.408a1.126 1.126 0 011.125-.89h7.37a1.126 1.126 0 011.09 1.374L19.97 207.857a3.5 3.5 0 01-3.488 2.715zm8.393-59.28L12.746 206.82a1.24 1.24 0 001.215 1.51h2.52a1.238 1.238 0 001.215-.98l12.24-56.059h-5.062z"/><path fill="#080C20" d="M71.573 209.445h2.508a2.38 2.38 0 002.318-2.884l-12.274-56.396H56.7l12.544 57.455a2.386 2.386 0 002.329 1.825z"/><path fill="#093F68" d="M74.081 210.572h-2.508a3.511 3.511 0 01-3.375-2.749l-12.544-57.455a1.128 1.128 0 011.091-1.375h7.38a1.126 1.126 0 011.125.89l12.319 56.408a3.496 3.496 0 01-.676 2.93 3.486 3.486 0 01-2.7 1.317l-.112.034zm-15.975-59.28l12.24 56.058a1.25 1.25 0 001.227.98h2.508a1.237 1.237 0 001.215-1.51L63.17 151.291h-5.063z"/><rect width="55.845" height="8.123" x="11.014" y="146.087" fill="#080C20" rx="2.21"/><path fill="#093F68" d="M64.384 155.347H13.5a3.614 3.614 0 01-3.611-3.616v-3.143c0-2 1.615-3.622 3.611-3.628h50.884a3.625 3.625 0 013.611 3.628v3.143c0 .959-.38 1.879-1.058 2.557a3.609 3.609 0 01-2.553 1.06zM13.5 147.213a1.373 1.373 0 00-1.361 1.375v3.143c0 .753.61 1.363 1.361 1.363h50.884c.752 0 1.361-.61 1.361-1.363v-3.143c0-.755-.608-1.369-1.361-1.375H13.5z"/><path fill="#080C20" d="M80.876 188.942c-1.294-14.973-.663-22.284-2.25-27.241-3.678-2.94-17.325-10.838-28.766-16.899-4.245-2.306-5.84-7.607-3.573-11.878 2.266-4.27 7.547-5.913 11.83-3.68 13.624 7.244 30.747 16.809 34.515 21.597 4.242 5.396 3.072 41.097 3.072 41.097l-14.828-2.996z"/><path fill="#093F68" d="M95.625 193.042a.73.73 0 01-.225 0l-14.794-2.974a1.126 1.126 0 01-.888-1.014c-.53-6.05-.743-10.871-.912-14.747-.236-5.463-.394-9.136-1.226-11.907-4.084-3.121-17.719-10.962-28.328-16.606-4.83-2.584-6.666-8.592-4.106-13.44 2.58-4.838 8.58-6.676 13.422-4.112 20.407 10.86 31.814 18.025 34.874 21.9 4.366 5.566 3.376 38.135 3.297 41.841 0 .623-.504 1.127-1.125 1.127l.011-.068zm-13.748-5.047l12.657 2.558c.405-14.218 0-35.431-2.858-39.036-2.857-3.605-14.31-10.748-34.166-21.304a7.666 7.666 0 00-7.67.272 7.688 7.688 0 00-3.6 6.788 7.687 7.687 0 004.07 6.515c11.182 5.949 25.065 13.948 28.935 17.034.177.133.307.318.371.53 1.013 3.11 1.181 6.973 1.44 12.832.203 3.672.405 8.201.867 13.811h-.046z"/><path fill="#080C20" d="M91.125 97.903c-5.063-1.96-21.735-18.532-23.389-19.332l-.787-.372a77.793 77.793 0 00-17.246-5.374c-6.987-1.126-14.277-.8-18.327 3.966-9.439 11.12-9.877 43.542-9.877 43.542l43.076 7.886a180.285 180.285 0 006.75-25.573c5.051 4.225 11.824 9.103 16.358 9.34l3.442-14.083z"/><path fill="#093F68" d="M64.541 129.312h-.202l-43.076-7.886a1.126 1.126 0 01-.923-1.127c0-1.34.551-32.963 10.125-44.251 3.713-4.383 10.226-5.847 19.361-4.35a77.962 77.962 0 0117.528 5.454c.54.236.832.394.832.394.63.304 2.093 1.6 6.086 5.25 5.625 5.103 14.052 12.82 17.202 14.037.527.204.82.768.686 1.318l-3.375 14.048a1.125 1.125 0 01-1.125.857c-3.645-.192-8.876-3.008-15.536-8.382a186.643 186.643 0 01-6.503 23.872 1.125 1.125 0 01-1.08.766zm-41.928-9.914l41.175 7.503a177.466 177.466 0 006.434-24.48 1.126 1.126 0 011.846-.665c6.21 5.182 11.396 8.325 14.782 8.956l2.948-12.178c-3.916-2.107-11.42-8.945-17.01-14.048-2.487-2.254-5.063-4.62-5.57-4.912l-.742-.338A75.736 75.736 0 0049.5 73.94c-8.303-1.363-14.119-.158-17.291 3.582-8.19 9.633-9.428 36.479-9.597 41.875z"/><path fill="#093F68" d="M71.561 101.362h-.225a1.125 1.125 0 01-.877-1.33l2.25-10.736a1.147 1.147 0 112.25.45l-2.25 10.737c-.12.533-.603.903-1.148.879zm-22.59-7.684c-.1.011-.203.011-.303 0a1.125 1.125 0 01-.788-1.385c1.665-6.05.675-19.152.664-19.332a1.13 1.13 0 112.25-.17c0 .553 1.035 13.677-.743 20.099a1.125 1.125 0 01-1.08.788zm15.57 6.152a1.236 1.236 0 01-.405-.08 1.126 1.126 0 01-.652-1.453 45.427 45.427 0 002.317-19.94 1.124 1.124 0 112.228-.304 46.848 46.848 0 01-2.442 21.044c-.163.438-.58.73-1.046.733z"/><path fill="#080C20" d="M41.366 1.457C35.584.25 29.453 2.268 24.773 5.749c-3.634 2.704-6.75 6.76-6.357 11.142.302 2.073.92 4.087 1.834 5.97a11.956 11.956 0 011.204 6.096 5.01 5.01 0 01-4.017 4.37A12.36 12.36 0 0027 35.188a11.904 11.904 0 007.718-5.757 5 5 0 011.923-2.456c.463-.189.953-.3 1.452-.327a18.828 18.828 0 009.742-3.661c8.415-6.884 3.544-19.411-6.469-21.53z"/><path fill="#093F68" d="M24.39 36.606a13.397 13.397 0 01-7.515-2.32 1.127 1.127 0 01-.461-1.195c.113-.453.493-.789.956-.845a3.919 3.919 0 003.037-3.38c.1-1.902-.287-3.798-1.125-5.508l-.303-.733a18.337 18.337 0 01-1.643-5.633c-.326-4.236 2.149-8.652 6.818-12.122C29.497.882 36.045-.762 41.648.364a14.702 14.702 0 0111.25 10.759 12.323 12.323 0 01-4.276 12.708 19.559 19.559 0 01-10.372 3.931 3.832 3.832 0 00-1.125.226A3.38 3.38 0 0036 29.62l-.214.406a12.94 12.94 0 01-8.449 6.309c-.969.2-1.957.29-2.947.27zm-4.343-3.11a11.348 11.348 0 006.75.587 10.734 10.734 0 006.976-5.194l.19-.372a5.293 5.293 0 012.25-2.568 5.461 5.461 0 011.722-.417 17.535 17.535 0 009.236-3.38 10.012 10.012 0 003.522-10.432 12.383 12.383 0 00-9.552-9.136c-4.983-1.037-10.845.484-15.693 4.089-1.902 1.42-6.3 5.25-5.918 10.14.236 1.708.737 3.369 1.485 4.922l.304.744a13.039 13.039 0 011.271 6.68 6.761 6.761 0 01-2.543 4.338z"/><path fill="#080C20" d="M55.867 3.305a17.642 17.642 0 00-12.96 2.354 21.657 21.657 0 00-8.437 10.274 16.638 16.638 0 00-1.328 7.886c.231 2.7 1.532 5.195 3.612 6.929a3.62 3.62 0 002.25.935 4.563 4.563 0 001.62-.44 40.123 40.123 0 0018.618-16.2c2.554-4.27 2.307-10.465-3.374-11.738z"/><path fill="#093F68" d="M38.959 32.832a4.676 4.676 0 01-2.903-1.127 11.27 11.27 0 01-4.027-7.74 17.72 17.72 0 011.395-8.415 22.75 22.75 0 018.898-10.803 18.687 18.687 0 0113.793-2.49 6.954 6.954 0 015.164 4.09 10.603 10.603 0 01-1.125 9.339 41.226 41.226 0 01-19.125 16.662 5.439 5.439 0 01-2.037.53l-.033-.046zM52.357 4.048a16.981 16.981 0 00-8.853 2.569 20.464 20.464 0 00-7.988 9.733 15.273 15.273 0 00-1.248 7.334 9.017 9.017 0 003.172 6.208 2.62 2.62 0 001.541.687c.416-.047.82-.17 1.193-.36a38.829 38.829 0 0018.09-15.773 8.426 8.426 0 00.945-7.289 4.76 4.76 0 00-3.578-2.782 15.178 15.178 0 00-3.273-.327z"/><path fill="#080C20" d="M64.44 4.42c5.186.169 9.922 2.028 12.825 6.466 3.375-1.6 7.166.924 9.563 3.73a30.848 30.848 0 017.256 19.23c.157 9.204-3.927 18.15-9.99 25.066a35.691 35.691 0 01-11.723 9.08 23.337 23.337 0 01-14.625 1.826C43.976 66.765 35.584 49.81 34.01 36.955 31.849 18.874 46.294 3.834 64.44 4.42z"/><path fill="#093F68" d="M62.201 71.417a21.024 21.024 0 01-4.635-.507C43.897 67.88 34.684 51.23 32.951 37.113a29.52 29.52 0 017.549-23.85 31.029 31.029 0 0123.996-9.97c5.76.192 10.305 2.332 13.208 6.219 3.667-1.127 7.504 1.442 10.001 4.382a31.694 31.694 0 017.526 19.94c.158 8.923-3.498 18.094-10.271 25.822a36.58 36.58 0 01-12.127 9.395A25.767 25.767 0 0162.2 71.417zM63.44 5.535a28.703 28.703 0 00-21.297 9.25A27.232 27.232 0 0035.19 36.82c1.631 13.373 10.204 29.088 22.86 31.893a22.1 22.1 0 0013.849-1.746A34.533 34.533 0 0083.25 58.17c6.401-7.312 9.855-15.941 9.709-24.3a29.89 29.89 0 00-6.987-18.521c-2.058-2.423-5.444-4.777-8.223-3.448a1.124 1.124 0 01-1.418-.394c-3.094-4.71-8.19-5.836-11.925-5.96l-.967-.01z"/><path fill="#080C20" d="M56.235 72.067l6.302 1.248c.311.061.513.363.452.675l-.626 3.172a3.803 3.803 0 01-4.468 2.997 3.808 3.808 0 01-2.993-4.474l.626-3.172a.574.574 0 01.674-.452l.033.006z"/><path fill="#093F68" d="M58.691 81.342a4.617 4.617 0 01-.967-.09 4.934 4.934 0 01-3.881-5.79l.63-3.177c.07-.46.332-.87.72-1.127.374-.247.83-.34 1.27-.259l6.334 1.262c.461.068.87.33 1.126.72.247.376.34.832.258 1.274l-.63 3.166a4.93 4.93 0 01-4.815 3.976l-.045.045zm-2.126-8.077l-.517 2.625c-.136.7.01 1.424.404 2.016a2.666 2.666 0 001.7 1.127 2.697 2.697 0 002.013-.406 2.625 2.625 0 001.125-1.7l.517-2.637-5.242-1.025z"/><ellipse cx="81.188" cy="59.203" fill="#080C20" rx="6.376" ry="5.693" transform="rotate(-78.82 81.188 59.203)"/><path fill="#093F68" d="M81 66.674a6.561 6.561 0 01-1.226-.124 6.458 6.458 0 01-4.399-3.131A8.051 8.051 0 0177.4 53.11a6.462 6.462 0 015.209-1.261c3.69.732 6.041 4.63 5.242 8.686a7.888 7.888 0 01-2.936 4.776A6.587 6.587 0 0181 66.674zm.461-12.696c-.953.01-1.877.33-2.632.912a5.796 5.796 0 00-1.451 7.368 4.147 4.147 0 006.255 1.24 5.634 5.634 0 002.08-3.38c.563-2.84-1-5.543-3.464-6.027a3.809 3.809 0 00-.833-.113h.045z"/><path fill="#080C20" d="M57.623 75.71c-12.252-2.434-20.25-19.75-17.854-31.838l2.7 1.69 1.586-8.573s30.926-2.073 30.375-9.62l12.375 8.651-4.309 21.856C80.021 69.953 69.885 78.132 57.623 75.71z"/><path fill="#093F68" d="M61.943 77.264a23.335 23.335 0 01-4.5-.45C44.56 74.256 36.236 56.14 38.7 43.658c.069-.365.313-.672.652-.822.34-.148.732-.119 1.047.079l1.294.811 1.282-6.94c.092-.51.519-.89 1.035-.923 6.75-.451 24.93-2.569 28.699-6.951a1.94 1.94 0 00.573-1.454 1.127 1.127 0 011.767-1.07l12.375 8.652c.36.253.54.693.461 1.127L83.576 58.01c-2.373 11.761-11.092 19.253-21.633 19.253zm-4.096-2.67c11.25 2.253 21.083-4.9 23.457-16.898L85.5 36.527l-10.35-7.255a5.363 5.363 0 01-.731 1.127c-4.703 5.464-24.469 7.3-29.385 7.672l-1.429 7.717a1.126 1.126 0 01-.652.822c-.34.152-.73.126-1.047-.068l-1.26-.788C38.96 59.08 48.521 72.792 57.881 74.617l-.034-.023z"/><ellipse cx="56.97" cy="49.996" fill="#093F68" rx="2.062" ry="2.059" transform="rotate(-78.82 56.97 49.996)"/><ellipse cx="76.433" cy="53.843" fill="#093F68" rx="2.059" ry="2.062"/><path fill="#093F68" d="M68.063 58.338a11.236 11.236 0 01-3.544-.744 1.128 1.128 0 01.81-2.107 9.529 9.529 0 002.407.575 17.788 17.788 0 00-.81-4.506 1.13 1.13 0 011.343-1.418c.391.093.703.39.817.776.698 2.377 1.339 5.475.462 6.76a1.54 1.54 0 01-1.216.675l-.27-.011zM61.74 46.306a2.36 2.36 0 01-.484 0l-9.607-2.073a2.253 2.253 0 01.945-4.405l9.618 2.073a2.265 2.265 0 012.014 2.49 2.263 2.263 0 01-2.486 2.016v-.101zm18.304 2.354h-.236l-9.777-1.013a2.264 2.264 0 01-2.025-2.479 2.262 2.262 0 012.475-2.028l9.788.992a2.25 2.25 0 012.002 2.478 2.251 2.251 0 01-2.227 2.05z"/><path fill="#080C20" d="M43.875 46.283s-4.601-4.754-8.415-.552c-3.814 4.202-2.644 12.855 6.649 12.235"/><path fill="#093F68" d="M41.197 59.126c-3.825 0-6.75-1.588-8.133-4.438a9.022 9.022 0 011.541-9.723 5.824 5.824 0 014.309-2.095c3.071-.068 5.625 2.523 5.748 2.636a1.128 1.128 0 01-.496 1.943 1.124 1.124 0 01-1.112-.377 6.746 6.746 0 00-4.107-1.949 3.632 3.632 0 00-2.677 1.397 6.767 6.767 0 00-1.181 7.221c1.125 2.253 3.532 3.38 6.919 3.132a1.128 1.128 0 01.146 2.253h-.957zm20.97 9.385c-.327 0-.654-.023-.978-.068-3.51-.518-6.312-3.729-8.325-9.542a1.129 1.129 0 011.273-1.48c.395.076.72.356.853.736 1.721 4.957 3.904 7.672 6.525 8.055 4.703.688 9.675-6.14 9.72-6.207a1.125 1.125 0 111.834 1.307c-.225.315-5.231 7.199-10.902 7.199z"/><path fill="#080C20" d="M64.541 128.185l4.804-16.234-2.813-20.672-18.73-6.534-24.875 17.507-1.462 18.092s-6.874 11.897-3.375 20.403c3.499 8.505 61.38 24.784 61.38 24.784l12.645-21.619-27.574-15.727z"/><path fill="#093F68" d="M79.515 166.647a.944.944 0 01-.304 0c-5.974-1.679-58.5-16.662-62.122-25.416-3.476-8.37 2.25-19.41 3.274-21.18l1.45-17.844c.026-.335.2-.64.473-.834L47.16 83.866a1.124 1.124 0 011.013-.147l18.73 6.546c.4.14.687.493.743.912l2.813 20.673c.033.156.033.317 0 .473l-4.5 15.367L92.8 142.977a1.126 1.126 0 01.416 1.544L80.585 166.14a1.124 1.124 0 01-1.069.507zm-55.508-63.798l-1.417 17.563a1.128 1.128 0 01-.146.473c-.068.113-6.559 11.525-3.274 19.411 1.327 3.188 18.371 12.167 59.816 23.884l11.621-19.885-26.628-15.152a1.127 1.127 0 01-.518-1.296l4.737-15.986-2.69-19.737-17.527-6.174-23.974 16.899zM111.926 107.445l28.035 17.71v8.066L108 110.836z"/><path fill="#093F68" d="M139.961 134.393c-.23 0-.453-.071-.641-.203l-31.961-22.385a1.127 1.127 0 01-.09-1.78l3.926-3.38a1.124 1.124 0 011.339-.09l28.023 17.699c.33.206.53.568.53.957v8.055c0 .422-.234.809-.608 1.003-.16.082-.338.125-.518.124zm-30.127-23.658l29.002 20.278v-5.284l-26.809-16.898-2.193 1.904z"/><path fill="#093F68" d="M150.671 200.669h-14.389V91.831l14.389-4.687z"/><path fill="#093F68" d="M150.671 201.796h-14.388a1.126 1.126 0 01-1.125-1.127V91.831c-.025-.508.293-.97.776-1.127l14.388-4.686a1.124 1.124 0 011.474 1.126V200.67c0 .622-.503 1.127-1.125 1.127zm-13.263-2.253h12.138V88.688l-12.138 3.954v106.9z"/><rect width="45.034" height="9.249" x="120.96" y="199.52" fill="#093F68" rx="3.23"/><path fill="#093F68" d="M162.349 209.873h-37.755a4.773 4.773 0 01-4.759-4.776v-1.983a4.773 4.773 0 014.759-4.765h37.755a4.773 4.773 0 014.77 4.765v1.96a4.78 4.78 0 01-1.39 3.392 4.767 4.767 0 01-3.38 1.407zm-37.755-9.249a2.51 2.51 0 00-2.509 2.513v1.96a2.522 2.522 0 002.509 2.523h37.755a2.518 2.518 0 002.52-2.523v-1.983a2.514 2.514 0 00-2.52-2.512l-37.755.022z"/><ellipse cx="143.471" cy="99.739" fill="#080C20" rx="3.791" ry="3.797"/><path fill="#093F68" d="M143.471 104.674a4.931 4.931 0 01-4.927-4.935 4.931 4.931 0 014.927-4.934 4.931 4.931 0 014.928 4.934 4.931 4.931 0 01-4.928 4.935zm0-7.605a2.677 2.677 0 00-2.474 1.658 2.684 2.684 0 00.585 2.924 2.675 2.675 0 002.922.574 2.681 2.681 0 00-1.033-5.156z"/><ellipse cx="143.471" cy="198.349" fill="#080C20" rx="3.791" ry="3.797"/><path fill="#093F68" d="M143.471 203.272a4.92 4.92 0 01-4.905-4.93 4.92 4.92 0 014.92-4.917 4.92 4.92 0 014.913 4.924c0 1.307-.52 2.561-1.444 3.485a4.913 4.913 0 01-3.484 1.438zm0-7.593a2.668 2.668 0 00-2.655 2.677 2.668 2.668 0 002.67 2.663 2.668 2.668 0 002.663-2.67 2.68 2.68 0 00-2.678-2.67z"/><path fill="#080C20" d="M75.141 118.47l113.215-58.568 3.893 7.548-113.215 58.566z"/><path fill="#093F68" d="M79.043 127.126c-.422.001-.808-.233-1.002-.608l-3.892-7.548a1.128 1.128 0 01-.079-.867c.093-.284.296-.52.563-.654l113.242-58.537a1.124 1.124 0 011.507.485l3.904 7.548c.138.268.162.58.068.867-.091.282-.29.517-.552.654L79.595 127.048a1.247 1.247 0 01-.551.078zm-2.386-8.19l2.87 5.543 111.205-57.545-2.857-5.543-111.218 57.545z"/><path fill="#080C20" d="M80.876 188.942v17.72s26.876 5.16 24.75 1.127c-2.126-4.033-10.642-6.309-10.642-6.309l.709-9.598-14.817-2.94z"/><path fill="#093F68" d="M101.171 210.414c-3.769 0-10.057-.642-20.509-2.647a1.127 1.127 0 01-.91-1.127v-17.698c-.002-.341.151-.664.416-.88.261-.21.604-.293.933-.224l14.783 2.974c.558.112.945.625.9 1.194l-.642 8.697c2.34.732 8.517 2.986 10.452 6.59.365.612.334 1.381-.079 1.96-.405.62-1.699 1.161-5.344 1.161zm-19.125-4.686c9.428 1.757 19.991 3.041 22.41 2.253-1.856-2.772-7.605-4.833-9.754-5.42-.5-.14-.84-.605-.82-1.126l.63-8.607-12.466-2.512v15.412z"/><path fill="#080C20" d="M90.416 110.543l-2.216-5.351 86.4-44.162 2.722 4.552z"/><path fill="#093F68" d="M90.416 111.67a1.125 1.125 0 01-1.046-.687l-2.25-5.363c-.224-.539 0-1.16.517-1.43l86.457-44.151a1.124 1.124 0 011.474.428l2.722 4.506c.155.265.196.583.113.879-.083.3-.287.554-.563.698l-86.906 44.962a1.124 1.124 0 01-.518.158zm-.776-5.948l1.35 3.267 84.746-43.858-1.563-2.614-84.533 43.205z"/><path fill="#080C20" d="M97.29 62.957l-3.206 2.219 16.11 23.309 3.251-2.253z"/><path fill="#093F68" d="M110.25 89.611c-.368 0-.713-.181-.922-.484l-16.11-23.309a1.128 1.128 0 01.28-1.566L96.706 62a1.124 1.124 0 011.564.282l16.155 23.275c.17.246.234.55.18.845a1.217 1.217 0 01-.462.732l-3.25 2.253c-.186.14-.41.218-.642.225zM95.625 65.458l14.839 21.461 1.383-.969-14.86-21.405-1.362.913z"/><path fill="#080C20" d="M64.541 96.855L91.79 82.21s2.463-4.788 4.072-6.072c1.856-1.499 3.195-3.11 3.78-2.389a5.973 5.973 0 011.125 1.96c.124.395.056 1.06.473 1.274.933.495 3.735-1.702 4.5-2.175.303-.191.641-.462.618-.822-.022-.36-.81-.755-.888-1.284a3.101 3.101 0 012.531-.27 2.387 2.387 0 011.26 3.221c-.495 1.127-1.778 1.96-2.115 3.042-.105.424-.154.86-.146 1.296a12.577 12.577 0 01-.833 4.573c-1.586 3.718-6.615 4.63-10.125 5.836 0 0-29.475 23.151-33.266 23.151"/><path fill="#093F68" d="M62.809 114.644a1.126 1.126 0 010-2.253c2.25-.124 18.349-11.74 32.625-22.915.096-.08.207-.14.326-.18.585-.203 1.215-.394 1.867-.597 3.016-.935 6.424-1.983 7.55-4.608.513-1.324.765-2.736.742-4.157a6.024 6.024 0 01.202-1.61 5.882 5.882 0 011.305-2.017c.33-.337.614-.716.844-1.127a1.399 1.399 0 000-1.127 1.047 1.047 0 00-.608-.597 1.472 1.472 0 00-.303-.067c.07.177.115.362.135.552a2.04 2.04 0 01-1.125 1.847l-.473.327c-2.047 1.442-3.859 2.58-5.141 1.893a2.096 2.096 0 01-.979-1.701 1.749 1.749 0 000-.237 3.99 3.99 0 00-.607-1.127 15.86 15.86 0 00-1.125.97 14.15 14.15 0 01-1.384 1.126c-1.035.822-2.858 3.943-3.769 5.712-.106.202-.27.367-.472.473L65.17 97.869a1.141 1.141 0 01-1.125-1.983l27-14.453c.63-1.127 2.666-4.879 4.208-6.118.472-.372.9-.755 1.293-1.126 1.126-1.037 2.014-1.78 2.97-1.701.44.024.848.233 1.126.574a6.931 6.931 0 011.327 2.343c.048.15.082.305.101.462a15.825 15.825 0 002.621-1.6l.383-.259a1.984 1.984 0 01-.608-1.126c-.063-.45.15-.895.54-1.127a4.169 4.169 0 013.51-.428c.874.31 1.574.978 1.924 1.836.4.928.4 1.98 0 2.907a7.086 7.086 0 01-1.204 1.701c-.351.354-.64.766-.855 1.217a3.486 3.486 0 00-.1.901 13.92 13.92 0 01-.923 5.07c-1.53 3.582-5.625 4.855-9 5.88l-1.62.519c-7.279 5.633-30.083 23.286-33.93 23.286z"/><path fill="#080C20" d="M29.25 92.552c23.76 34.27 40.129 19.4 40.129 19.4-.293-1.814-1.013-5.633-1.373-7.436-.573-2.997-1.215-5.993-1.665-9.013l-1.766.958s-11.644-8.675-20.43-16.594"/><path fill="#093F68" d="M59.625 116.289a19.357 19.357 0 01-2.25-.124c-9.517-1.127-19.328-8.821-29.137-22.971a1.131 1.131 0 01.836-1.768c.402-.033.79.152 1.02.484 9.258 13.36 18.765 20.977 27.472 22.002 3.682.532 7.43-.331 10.508-2.422a308.803 308.803 0 00-1.26-6.76l-.371-1.893c-.36-1.825-.743-3.695-1.047-5.632l-.382.202a1.124 1.124 0 01-1.204-.09c-.113-.09-11.79-8.787-20.509-16.662a1.124 1.124 0 111.508-1.667c7.549 6.76 17.325 14.251 19.777 16.099l1.125-.62a1.124 1.124 0 011.643.834c.349 2.343.821 4.731 1.282 7.04l.383 1.893c.382 1.983 1.125 5.723 1.372 7.48.062.376-.069.757-.349 1.015a16.23 16.23 0 01-10.417 3.56zm55.204-23.58c-.225.001-.444-.066-.63-.191l-4.624-3.098c-.311-.205-.5-.551-.506-.924a1.127 1.127 0 01.483-.935l3.252-2.253a1.124 1.124 0 011.721.642l1.395 5.34c.119.454-.056.934-.439 1.206-.19.137-.418.212-.652.214zm-2.633-4.247l.799.541-.236-.924-.563.383z"/><path fill="#080C20" d="M181.519 195.104s-7.324-14.96-6.3-25.066a18.684 18.684 0 018.73 10.544c4.331 12.044 3.375 14.533 3.375 14.533l-5.805-.011z"/><path fill="#093F68" d="M187.279 196.242h-5.76a1.125 1.125 0 01-1.001-.631c-.316-.62-7.46-15.367-6.424-25.675.04-.359.248-.677.562-.856a1.124 1.124 0 011.024-.056c.259.112 6.356 2.963 9.326 11.187 4.264 11.851 3.51 14.848 3.319 15.332-.174.425-.588.701-1.046.699zm-5.04-2.253h4.027c0-1.363-.472-4.968-3.375-13.024a18.744 18.744 0 00-6.648-9.012c-.034 8.393 4.747 19.31 6.007 22.024l-.011.012z"/><path fill="#080C20" d="M185.006 194.383s-5.501-21.326 2.408-35.611c0 0 4.556 5.227 5.625 17.845a31.943 31.943 0 01-3.274 17.484l-4.759.282z"/><path fill="#093F68" d="M185.006 195.51a1.125 1.125 0 01-1.125-.845c-.225-.89-5.524-21.935 2.509-36.434a1.125 1.125 0 011.834-.191c.202.225 4.815 5.633 5.917 18.487a32.71 32.71 0 01-3.442 18.104c-.188.319-.52.525-.889.552l-4.759.327h-.045zm2.543-34.519c-5.547 11.976-2.531 28.165-1.665 32.198l3.184-.203a31.808 31.808 0 002.868-16.268c-.686-8.415-3.037-13.44-4.387-15.727z"/><path fill="#080C20" d="M187.38 193.707s1.71-14.229 13.196-23.523c0 0 3.375 10.601-6.108 24.785l-7.088-1.262z"/><path fill="#093F68" d="M194.468 196.095a.584.584 0 01-.192 0l-7.087-1.25a1.126 1.126 0 01-.923-1.24c.068-.608 1.89-14.803 13.602-24.277a1.124 1.124 0 011.777.54c.146.451 3.442 11.266-6.244 25.754a1.124 1.124 0 01-.934.473zm-5.794-3.3l5.265.935c6.469-9.982 6.367-18.026 5.917-21.405-8.088 7.345-10.564 17.27-11.182 20.47z"/><path fill="#080C20" d="M195.255 209.704h-14.468l-2.137-17.63h18.743z"/><path fill="#093F68" d="M195.255 210.831h-14.468a1.126 1.126 0 01-1.125-.991l-2.137-17.631a1.124 1.124 0 011.114-1.262h18.742a1.124 1.124 0 011.114 1.262l-2.126 17.664a1.126 1.126 0 01-1.114.958zm-13.5-2.253h12.465l1.868-15.378h-16.2l1.867 15.378z"/><path fill="#093F68" d="M205.121 210.831H1.88a1.126 1.126 0 010-2.253H205.12a1.126 1.126 0 010 2.253z"/></g><g transform="translate(7 .5)"><path fill="#093F68" d="M65.524 110.109h30.795v3.418c0 5.805-4.747 10.51-10.603 10.51h-9.589c-5.856 0-10.603-4.705-10.603-10.51v-3.418z"/><path fill="#093F68" d="M85.716 125.064h-9.589c-6.423-.01-11.627-5.17-11.638-11.537v-3.418c0-.567.463-1.027 1.035-1.027h30.805c.572 0 1.036.46 1.036 1.027v3.418c-.012 6.371-5.222 11.532-11.65 11.537zm-19.157-13.929v2.392c.006 5.236 4.286 9.479 9.568 9.484h9.589c5.286 0 9.572-4.244 9.578-9.484v-2.392H66.559z"/><path fill="#080C20" d="M113.694 51.25c.01-13.97-9.107-26.338-22.537-30.572-13.43-4.234-28.08.641-36.211 12.05a31.833 31.833 0 00.637 37.861 46.717 46.717 0 019.672 28.372h32.213a45.367 45.367 0 019.413-28.084 31.726 31.726 0 006.813-19.627z"/><path fill="#093F68" d="M97.468 99.988H65.255c-.572 0-1.036-.46-1.036-1.027a45.93 45.93 0 00-9.454-27.715 32.842 32.842 0 01-.644-39.048c8.387-11.766 23.493-16.796 37.345-12.434 13.852 4.36 23.262 17.11 23.264 31.517a32.564 32.564 0 01-7.031 20.304 44.438 44.438 0 00-9.195 27.376c0 .272-.11.533-.303.726a1.04 1.04 0 01-.733.3zM66.28 97.935h30.163a46.414 46.414 0 019.62-27.715 30.513 30.513 0 006.596-19.042c-.01-8.6-3.613-16.812-9.951-22.685-6.35-5.886-14.899-8.864-23.568-8.212-11.46.789-21.564 7.74-26.319 18.108a30.798 30.798 0 003.539 31.564 48.031 48.031 0 019.92 27.982z"/><rect width="39.151" height="8.869" x="61.351" y="107.902" fill="#080C20" rx="3.62"/><path fill="#093F68" d="M96.723 117.797H65.099c-2.642 0-4.783-2.123-4.783-4.742v-1.437c0-2.62 2.141-4.743 4.783-4.743h31.624c2.642 0 4.784 2.123 4.784 4.743v1.437c0 2.619-2.142 4.742-4.784 4.742zm-31.655-8.869c-1.498 0-2.713 1.204-2.713 2.69v1.437c0 1.485 1.215 2.689 2.713 2.689h31.655c1.496-.006 2.707-1.206 2.713-2.69v-1.436c0-1.486-1.215-2.69-2.713-2.69H65.068z"/><rect width="39.151" height="8.869" x="61.351" y="99.033" fill="#080C20" rx="3.62"/><path fill="#093F68" d="M96.723 108.928H65.099c-2.642 0-4.783-2.123-4.783-4.742v-1.437c0-2.62 2.141-4.743 4.783-4.743h31.624c2.642 0 4.784 2.124 4.784 4.743v1.437c0 2.619-2.142 4.742-4.784 4.742zm-31.655-8.869c-1.498 0-2.713 1.204-2.713 2.69v1.437c0 .713.286 1.397.795 1.902a2.725 2.725 0 001.918.787h31.655c.72 0 1.41-.283 1.918-.787a2.678 2.678 0 00.795-1.902v-1.437c-.006-1.483-1.217-2.684-2.713-2.69H65.068z"/><rect width="39.151" height="8.869" x="61.351" y="90.164" fill="#080C20" rx="3.62"/><path fill="#093F68" d="M96.723 100.06H65.099c-2.642 0-4.783-2.124-4.783-4.743V93.88c0-2.62 2.141-4.742 4.783-4.742h31.624c2.642 0 4.784 2.123 4.784 4.742v1.437c0 2.62-2.142 4.742-4.784 4.742zm-31.655-8.87c-1.498 0-2.713 1.205-2.713 2.69v1.437c0 1.485 1.215 2.69 2.713 2.69h31.655c1.498 0 2.713-1.205 2.713-2.69V93.88c-.006-1.483-1.217-2.684-2.713-2.69H65.068zm18.618-58.293l5.312 10.634 11.867 1.745a2.583 2.583 0 012.098 1.747 2.55 2.55 0 01-.659 2.636l-8.584 8.304 2.07 11.723c.17.964-.228 1.94-1.027 2.516a2.608 2.608 0 01-2.73.194l-10.614-5.533-10.624 5.533a2.608 2.608 0 01-2.732-.194 2.556 2.556 0 01-1.027-2.516l2.07-11.723-8.594-8.304a2.55 2.55 0 01-.66-2.636 2.583 2.583 0 012.1-1.747l11.773-1.745 5.312-10.665a2.591 2.591 0 012.334-1.422 2.59 2.59 0 012.315 1.453z"/><path fill="#093F68" d="M69.531 73.72a3.71 3.71 0 01-2.133-.688 3.578 3.578 0 01-1.44-3.52l1.937-11.19-8.2-7.924a3.571 3.571 0 01-.948-3.705 3.616 3.616 0 012.956-2.454l11.339-1.632 5.042-10.162a3.627 3.627 0 013.262-2.053 3.616 3.616 0 013.251 2.053l5.064 10.183 11.39 1.632a3.616 3.616 0 012.956 2.454 3.571 3.571 0 01-.947 3.705l-8.201 7.924 1.936 11.189a3.578 3.578 0 01-1.451 3.49 3.65 3.65 0 01-3.799.277l-10.137-5.286-10.147 5.286a3.64 3.64 0 01-1.73.421zm11.836-41.224a1.523 1.523 0 00-1.398.863l-5.312 10.665c-.152.3-.442.506-.777.554l-11.877 1.714a1.55 1.55 0 00-1.254 1.05 1.53 1.53 0 00.395 1.578l8.584 8.304c.247.237.359.579.3.914l-2.07 11.722c-.101.579.14 1.164.619 1.508.479.345 1.114.389 1.638.114l10.624-5.533c.301-.157.661-.157.963 0l10.624 5.533c.52.285 1.16.24 1.636-.113.482-.342.724-.93.621-1.509l-2.071-11.722a1.021 1.021 0 01.3-.914l8.584-8.304a1.5 1.5 0 00.404-1.58 1.54 1.54 0 00-1.263-1.027l-11.794-1.755a1.035 1.035 0 01-.777-.555l-5.312-10.675a1.524 1.524 0 00-1.387-.852v.02z"/><path fill="#080C20" d="M76.48 47.637a1.03 1.03 0 01-.982-.692c-.09-.258-.072-.541.05-.786L80 37.198a1.04 1.04 0 011.35-.402c.487.237.706.806.503 1.305l-4.442 8.961a1.036 1.036 0 01-.932.575z"/><path fill="#093F68" d="M33.621 87.013c-.388 0-.743-.213-.922-.554a1.018 1.018 0 01.446-1.386l11.048-5.615a1.044 1.044 0 011.398.441 1.018 1.018 0 01-.445 1.386L34.097 86.9c-.147.075-.31.113-.476.113zM42.34 41.17a1.17 1.17 0 01-.321 0l-12.52-4.106a1.027 1.027 0 01-.652-1.303 1.04 1.04 0 011.315-.647l12.509 4.106c.261.086.477.273.6.517.122.245.141.528.052.787-.16.397-.551.655-.983.646zm86.483 45.843a.97.97 0 01-.466-.113l-11.049-5.615a1.018 1.018 0 01-.456-1.386 1.044 1.044 0 011.398-.441l11.049 5.615a1.018 1.018 0 01.456 1.386c-.18.344-.541.558-.932.554zm-8.76-45.843a1.053 1.053 0 01-.978-.375 1.032 1.032 0 01-.16-1.027c.135-.346.447-.594.816-.65l12.509-4.107a1.043 1.043 0 011.015.208 1.022 1.022 0 01-.363 1.743l-12.508 4.106a1.24 1.24 0 01-.332.102zM81.366 14.574c-.572 0-1.036-.46-1.036-1.026V1.333c0-.567.464-1.027 1.036-1.027.572 0 1.035.46 1.035 1.027v12.215c0 .567-.463 1.026-1.035 1.026z"/><path fill="#080C20" d="M35.236 127.487h24.21c7.486 0 9.62 9.238 19.311 10.121 9.692.883 23.744-1.776 26.664 1.91 2.92 3.684 2.464 7.965-.456 10.49 0 0 14.041-11.897 17.086-14.597 5.177-4.537 13.285-.513 7.445 11.056-5.84 11.568-27.544 27.13-37.391 29.295-9.848 2.166-59.996-1.026-59.996-1.026l3.127-47.25z"/><path fill="#093F68" d="M78.084 177.548c-17.872 0-44.525-1.663-46.047-1.765a1.02 1.02 0 01-.973-1.088l3.178-47.28c.038-.539.491-.956 1.036-.955h24.168c4.007 0 6.544 2.29 9.226 4.722 2.682 2.433 5.498 4.968 10.189 5.41 3.814.232 7.638.232 11.452 0 7.373-.267 13.741-.493 15.926 2.268a9.348 9.348 0 012.143 6.867c4.39-3.726 11.018-9.371 12.985-11.106 2.703-2.392 6.296-2.772 8.74-.924 1.18.893 4.7 4.506.32 13.2-5.757 11.415-27.626 27.53-38.095 29.84-2.65.606-7.91.811-14.248.811zm-44.877-3.746c7.248.441 49.837 2.905 58.66.965 9.174-2.053 30.763-16.989 36.697-28.742 2.92-5.8 2.07-9.3.269-10.655-1.802-1.355-4.142-.903-6.099.821-3.013 2.67-16.971 14.494-17.106 14.607a1.042 1.042 0 01-1.03.22 1.022 1.022 0 01-.326-1.77c2.66-2.31 2.795-5.953.32-9.084-1.522-1.93-7.973-1.704-14.206-1.478a94.865 94.865 0 01-11.732 0c-5.374-.503-8.564-3.388-11.39-5.944-2.486-2.237-4.629-4.177-7.829-4.177H36.241l-3.034 45.237z"/><path fill="#093F68" d="M85.685 155.417c-6.876 0-13.71-.461-14.135-.492a1.03 1.03 0 01-.963-1.088c.019-.273.146-.527.354-.706.208-.18.48-.269.754-.249.156 0 15.854 1.027 23.589 0 7.144-1.026 8.718-3.357 8.739-3.377a1.04 1.04 0 011.408-.36c.485.278.66.888.394 1.376-.187.329-2.071 3.264-10.262 4.393a78.93 78.93 0 01-9.878.503z"/><path fill="#080C20" d="M1.345 124.449h33.891v52.176H1.345z"/><path fill="#093F68" d="M35.236 177.651H1.346c-.573 0-1.036-.46-1.036-1.026v-52.176c0-.567.463-1.027 1.035-1.027h33.891c.572 0 1.036.46 1.036 1.027v52.176c0 .566-.464 1.026-1.036 1.026zm-32.855-2.053H34.2v-50.123H2.38v50.123z"/></g><g transform="translate(0 247.5)"><path fill="#080C20" d="M119.474 204.737V169.62c0-15.678-12.716-28.389-28.406-28.395H63.932c-15.69.006-28.406 12.717-28.406 28.395v35.118h83.948z"/><path fill="#093F68" d="M119.474 205.86H35.526c-.62 0-1.123-.503-1.123-1.123V169.62c.013-16.292 13.224-29.499 29.529-29.517h27.136c16.305.018 29.516 13.225 29.529 29.517v35.118c0 .62-.503 1.123-1.123 1.123zm-82.824-2.245h81.7v-33.996c-.012-15.053-12.218-27.254-27.282-27.273H63.932c-15.064.019-27.27 12.22-27.282 27.273v33.996z"/><path fill="#093F68" d="M79.376 205.86c-.62 0-1.123-.503-1.123-1.123V143.01a1.123 1.123 0 012.246 0v61.728c0 .62-.503 1.123-1.123 1.123zm29.82-5.848a1.123 1.123 0 01-1.123-.841l-11.715-45.343a1.122 1.122 0 011.39-1.44c.404.123.705.463.778.879l11.76 45.387a1.122 1.122 0 01-.809 1.358.82.82 0 01-.28 0z"/><path fill="#080C20" d="M110.477 206.151a9.336 9.336 0 005.414 2.806c4.492.54 8.76-3.22 10.108-7.587 1.348-4.366.607-9.102-.539-13.535-1.393-5.387-2.359-10.763-7.053-14.03-4.415-3.063-10.11-6.015-14.063-.482-3.953 5.533-.135 17.093 1.45 23.188a24.804 24.804 0 003.167 7.856c.45.64.958 1.237 1.516 1.784z"/><path fill="#093F68" d="M116.812 210.136c-.35 0-.699-.023-1.045-.068a10.358 10.358 0 01-6.076-3.12 12.774 12.774 0 01-1.595-1.941 25.489 25.489 0 01-3.37-8.216c-.168-.617-.348-1.302-.539-2.031-1.808-6.667-4.493-16.734-.741-22.088 5.054-7.138 12.737-1.796 15.623.213 4.617 3.21 5.897 8.306 7.132 13.221l.371 1.448c1.123 4.321 2.056 9.383.517 14.164-1.292 4.231-5.335 8.418-10.277 8.418zm-6.92-38.788a5.415 5.415 0 00-4.582 2.626c-3.178 4.49-.517 14.321 1.123 20.202.191.74.382 1.425.54 2.054a23.806 23.806 0 003.02 7.508 9.844 9.844 0 001.337 1.617 8.235 8.235 0 004.74 2.491c4.089.483 7.773-3.086 8.986-6.812 1.359-4.232.483-8.912-.562-12.919l-.37-1.459c-1.18-4.736-2.303-9.192-6.234-11.93-3.325-2.256-5.908-3.378-8.008-3.378h.01zm28.092-76.622c0 34.994-27.08 50.146-60.484 50.146S17.028 129.72 17.028 94.726c0-34.995 27.068-70.944 60.472-70.944 33.404 0 60.484 35.96 60.484 70.944z"/><path fill="#093F68" d="M77.5 145.994c-38.57 0-61.596-19.158-61.596-51.268 0-34.019 26.34-72.066 61.596-72.066 35.257 0 61.607 38.047 61.607 72.066 0 32.098-23.037 51.268-61.607 51.268zm0-121.09c-28.012 0-59.35 29.866-59.35 69.822 0 30.696 22.184 49.023 59.35 49.023s59.36-18.327 59.36-49.023c0-39.956-31.28-69.821-59.36-69.821z"/><path fill="#080C20" d="M126.044 73.199a57.006 57.006 0 01-.629 7.419 146.243 146.243 0 01-8.39 31.257c-1.82 4.624-3.965 9.304-7.638 12.66a35.5 35.5 0 01-9.951 5.769c-10.873 4.747-22.924 9.102-34.347 5.926-11.423-3.177-19.656-13.3-25.17-23.828a101.806 101.806 0 01-11.233-38.687c-.674-8.058.45-17.957 4.493-25.106a25.573 25.573 0 017.346-8.418c1.73-1.223 9.917-3.176 10.524-4.242 6.38-11.224 22.812-13.906 33.482-11.224 24.418 6.263 41.906 23.693 41.513 48.474z"/><path fill="#093F68" d="M73.254 138.43a31.98 31.98 0 01-8.468-1.123c-10.02-2.783-18.96-11.223-25.834-24.388a103.836 103.836 0 01-11.366-39.125c-.798-9.551.92-19.18 4.605-25.747a26.628 26.628 0 017.637-8.765 25.564 25.564 0 015.515-2.245 30.711 30.711 0 004.74-1.796c3.897-6.734 10.704-9.831 15.725-11.223a37.902 37.902 0 0118.925-.382c26.541 6.735 42.794 25.736 42.412 49.53a56.872 56.872 0 01-.652 7.575 146.938 146.938 0 01-8.423 31.493c-1.854 4.725-4.1 9.585-7.93 13.087-2.898 2.637-6.357 4.264-10.255 5.97-8.66 3.816-17.746 7.139-26.63 7.139zM76.22 24.894c-9.503 0-19.746 3.748-24.239 11.616-.494.853-1.932 1.391-5.93 2.716a29.823 29.823 0 00-4.92 1.885 24.35 24.35 0 00-7.02 8.036c-3.46 6.196-5.077 15.343-4.324 24.479a101.39 101.39 0 0011.13 38.26c4.606 8.788 12.592 19.967 24.475 23.266 10.816 2.997 22.542-1.055 33.595-5.88 3.706-1.617 6.997-3.155 9.637-5.613 3.493-3.187 5.615-7.766 7.345-12.244a144.628 144.628 0 008.334-31.01c.37-2.408.576-4.838.618-7.273.36-22.627-15.242-40.797-40.682-47.318a32.91 32.91 0 00-8.02-.92z"/><ellipse cx="36.717" cy="106.667" fill="#080C20" rx="13.871" ry="11.942"/><path fill="#093F68" d="M36.717 119.731c-8.267 0-14.995-5.858-14.995-13.064 0-7.205 6.74-13.064 14.995-13.064 8.255 0 14.95 5.859 14.95 13.02 0 7.16-6.74 13.108-14.95 13.108zm0-23.883c-7.031 0-12.748 4.86-12.748 10.82 0 5.959 5.717 10.819 12.748 10.819s12.703-4.849 12.703-10.865c0-6.015-5.683-10.774-12.703-10.774z"/><ellipse cx="117.553" cy="106.667" fill="#080C20" rx="13.871" ry="11.942"/><path fill="#093F68" d="M117.553 119.731c-8.267 0-14.995-5.858-14.995-13.064 0-7.205 6.74-13.064 14.995-13.064 8.255 0 14.983 5.859 14.983 13.02 0 7.16-6.739 13.108-14.983 13.108zm0-23.883c-7.031 0-12.748 4.86-12.748 10.82 0 5.959 5.717 10.819 12.748 10.819s12.737-4.849 12.737-10.865c0-6.015-5.717-10.774-12.737-10.774z"/><path fill="#080C20" d="M115.453 81.067c5.054 6.318 3.706 13.726 3.706 21.605 0 23.077-18.722 41.784-41.816 41.784-23.095 0-41.817-18.707-41.817-41.784 0-21.156 14.344-34.961 33.763-41.527a21.974 21.974 0 01-8.367 12.75 54.968 54.968 0 0038.334-8.676c-1.539 1.044 14.051 13.468 15.118 14.59.393.438.753.842 1.079 1.258z"/><path fill="#093F68" d="M77.332 145.59c-23.702-.037-42.904-19.234-42.929-42.918 0-19.641 12.58-35.174 34.527-42.65.39-.132.82-.042 1.123.236.319.28.453.713.348 1.123a23.25 23.25 0 01-6.739 11.706 53.944 53.944 0 0034.988-8.8 1.124 1.124 0 011.56.315c.183.257.24.582.158.887 1.123 1.896 8.986 8.597 12.074 11.223 1.674 1.425 2.494 2.121 2.775 2.402.28.28.786.864 1.123 1.313 4.414 5.522 4.223 11.695 4.02 18.215 0 1.347-.078 2.705-.078 4.086-.055 23.67-19.262 42.837-42.95 42.862zm-9.705-82.672C40.671 72.862 36.65 91.987 36.65 102.672c0 22.457 18.219 40.662 40.693 40.662 22.474 0 40.693-18.205 40.693-40.662 0-1.403 0-2.784.078-4.153.203-6.364.371-11.863-3.538-16.745a13.528 13.528 0 00-1.01-1.123c-.203-.224-1.37-1.2-2.606-2.244-7.863-6.656-11.109-9.72-12.355-11.426a56.194 56.194 0 01-37.897 8.047 1.123 1.123 0 01-.494-2.009 21.045 21.045 0 007.413-10.1z"/><ellipse cx="60.562" cy="112.919" fill="#093F68" rx="3.763" ry="3.76"/><ellipse cx="94.438" cy="112.919" fill="#093F68" rx="3.763" ry="3.76"/><path fill="#093F68" d="M77.31 120.36c-1.257-.01-2.511-.11-3.752-.303a1.123 1.123 0 11.393-2.211c1.923.306 3.883.306 5.807 0 .303-1.033-1.124-5.242-3.246-9.226a1.122 1.122 0 01.471-1.504 1.124 1.124 0 011.517.472c1.055 2.009 4.391 8.765 3.268 11.223a1.954 1.954 0 01-1.348 1.122c-1.016.268-2.06.41-3.11.427zm-8.515-26.577h-.28l-18.252-2.245a2.262 2.262 0 11.55-4.49l18.263 2.245a2.25 2.25 0 11-.28 4.49zm17.41 0a2.25 2.25 0 11-.281-4.49l18.263-2.244a2.262 2.262 0 11.55 4.49l-18.251 2.244h-.281z"/><path fill="#080C20" d="M137.984 94.726a54.822 54.822 0 01-2.393 16.588c-7.3-30.651-30.54-62.077-58.091-62.077-27.552 0-50.79 31.426-58.091 62.077a54.822 54.822 0 01-2.393-16.588c0-34.984 27.092-70.932 60.484-70.932s60.484 35.948 60.484 70.932z"/><path fill="#093F68" d="M135.591 112.436a1.124 1.124 0 01-1.055-.853 101.992 101.992 0 00-21.206-42.065c-7.604-8.732-19.982-19.159-35.796-19.159-15.815 0-28.181 10.427-35.785 19.159a101.868 101.868 0 00-21.217 42.065 1.123 1.123 0 01-2.157.067 55.92 55.92 0 01-2.448-16.924c0-34.007 26.35-72.055 61.607-72.055S139.14 60.72 139.14 94.726a55.92 55.92 0 01-2.449 16.924c-.15.478-.6.8-1.1.786zM77.5 24.916c-28.012 0-59.361 29.854-59.361 69.81a57.235 57.235 0 001.258 12.188A103.824 103.824 0 0140.02 68.047C51.363 54.995 64.325 48.115 77.5 48.115s26.148 6.902 37.492 19.932a103.97 103.97 0 0120.61 38.867 57.235 57.235 0 001.26-12.188c0-39.956-31.282-69.81-59.362-69.81z"/><path fill="#080C20" d="M62.393 34.793S43.917-6.734 29.08 3.008C14.242 12.75-8.188 46.308 5.975 49.675c14.164 3.367 26.81-24.692 26.81-24.692l21.746 15.814"/><path fill="#093F68" d="M8.379 51.078c-.897 0-1.79-.106-2.662-.315A6.456 6.456 0 01.494 45.31C-1.483 34.085 16.747 9.787 28.462 2.076A9.71 9.71 0 0136.863.842c13.265 3.883 26.013 32.233 26.552 33.434a1.125 1.125 0 11-2.055.92c-.124-.291-12.86-28.608-25.126-32.2a7.44 7.44 0 00-6.537.955C17.59 11.919 1.011 35.275 2.741 44.916a4.278 4.278 0 003.526 3.67c13.097 3.109 25.407-23.76 25.53-24.03.137-.308.405-.538.73-.628.33-.088.68-.022.955.18l21.745 15.814a1.122 1.122 0 01-1.314 1.818l-20.69-15.017C30.687 31.908 20.51 51.078 8.38 51.078z"/><path fill="#080C20" d="M92.607 34.793S111.083-6.734 125.92 3.064c14.837 9.798 37.267 43.3 23.104 46.667-14.164 3.367-26.81-24.692-26.81-24.692l-21.746 15.792"/><path fill="#093F68" d="M146.621 51.078c-12.13 0-22.307-19.17-24.845-24.355L101.087 41.74a1.126 1.126 0 01-1.782-.79c-.042-.4.132-.792.457-1.028l21.745-15.814c.274-.202.625-.268.954-.18.326.09.594.32.73.629.124.27 12.434 27.138 25.53 24.03a4.278 4.278 0 003.572-3.693c1.696-9.641-14.882-32.997-26.956-40.966a7.44 7.44 0 00-6.537-.954c-12.266 3.592-25.003 31.908-25.126 32.2a1.127 1.127 0 01-2.056-.92c.54-1.201 13.288-29.551 26.553-33.435a9.7 9.7 0 018.401 1.235c11.715 7.71 29.944 31.975 27.967 43.232a6.456 6.456 0 01-5.222 5.455c-.882.218-1.787.331-2.696.337zM54.272 205.86c-.62 0-1.123-.503-1.123-1.123v-45.252a1.123 1.123 0 012.247 0v45.252c0 .62-.503 1.123-1.124 1.123z"/><path fill="#080C20" d="M57.406 207.442a23.242 23.242 0 01-17.447-3.435 23.21 23.21 0 01-9.902-14.758 45.555 45.555 0 01-.214-13.625c.27-2.333.672-4.649 1.202-6.936 2.325-10.101 7.166-19.35 14.41-20.797 9.053-1.818 19.387 9.136 25.43 20.123a53.058 53.058 0 012.482 5.107 36.39 36.39 0 012.246 6.992c2.521 12.57-5.629 24.803-18.207 27.33z"/><path fill="#093F68" d="M52.79 209.025c-11.595-.022-21.572-8.195-23.868-19.551a46.408 46.408 0 01-.225-13.985 61.17 61.17 0 011.225-7.06c1.348-5.858 5.616-19.696 15.275-21.638 9.502-1.897 20.217 8.979 26.642 20.685a53.507 53.507 0 012.527 5.219 36.445 36.445 0 012.337 7.194c2.644 13.18-5.904 26.009-19.095 28.653-1.586.32-3.2.483-4.818.483zM47.42 148.81a9.42 9.42 0 00-1.775.18c-5.863 1.122-10.917 8.63-13.545 19.944a62.527 62.527 0 00-1.18 6.824c-.6 4.407-.531 8.879.203 13.266a22.076 22.076 0 009.419 14.05 22.107 22.107 0 0016.605 3.267 22.116 22.116 0 0014.067-9.41 22.085 22.085 0 003.286-16.594 35.47 35.47 0 00-2.246-6.734 53.294 53.294 0 00-2.438-5.006c-5.335-9.888-14.41-19.787-22.362-19.787h-.034z"/><path fill="#080C20" d="M26.496 194.58a9.607 9.607 0 013.078-4.68c.898-.887 2.033-1.796 3.268-1.571a2.84 2.84 0 011.966 3.165 8.168 8.168 0 01-1.741 3.67 8.073 8.073 0 012.145-1.998 2.742 2.742 0 012.797 0 2.782 2.782 0 01.741 3.277 8.228 8.228 0 01-2.246 2.795c1.505-.303 2.538-2.166 4.066-1.953a2.246 2.246 0 011.46 2.963 6.567 6.567 0 01-2.404 2.828 6.82 6.82 0 012.134-1.2 2.248 2.248 0 012.247.527c.864.976.314 2.514-.36 3.636a7.69 7.69 0 01-2.886 2.986 6.26 6.26 0 01-6.066-.707c-3.527-2.357-9.109-9.248-8.199-13.738z"/><path fill="#093F68" d="M38.548 210.607a8.338 8.338 0 01-4.493-1.392c-3.516-2.244-9.772-9.618-8.705-14.86a10.65 10.65 0 013.37-5.263c1.056-1.033 2.505-2.189 4.257-1.874a3.962 3.962 0 012.886 4.4v.1a3.619 3.619 0 012.73.472 3.691 3.691 0 011.359 3.928c.235-.028.472-.028.707 0a2.808 2.808 0 011.988 1.335 3.78 3.78 0 01.382 3.087v.1a3 3 0 011.82.955c1.056 1.19.966 2.996-.236 4.972a8.544 8.544 0 01-3.37 3.367 6.103 6.103 0 01-2.695.673zm-6.088-21.19a3.696 3.696 0 00-2.1 1.28 8.72 8.72 0 00-2.763 4.108c-.742 3.647 4.144 10.19 7.739 12.525a5.136 5.136 0 004.942.64 6.31 6.31 0 002.403-2.582c.483-.785.887-1.852.483-2.312a1.203 1.203 0 00-1.123-.19 5.707 5.707 0 00-1.763 1.032 1.13 1.13 0 01-1.382-1.784 5.445 5.445 0 002.033-2.301 1.503 1.503 0 00-.146-1.201.584.584 0 00-.393-.303c-.36 0-.786.247-1.427.74a5.707 5.707 0 01-2.246 1.201 1.123 1.123 0 01-.977-1.93 7.386 7.386 0 001.988-2.38 1.705 1.705 0 00-.326-1.93 1.675 1.675 0 00-1.628.101 7.141 7.141 0 00-1.82 1.729 1.124 1.124 0 01-1.786-1.358 7.54 7.54 0 001.55-3.154c.09-.808-.337-1.807-1.056-1.942l-.202.011z"/><path fill="#080C20" d="M69.638 171.718a46.503 46.503 0 00-2.572 11.223c-.39 3.517-.622 7.049-.697 10.595a11.754 11.754 0 01-.685 4.602 3.774 3.774 0 01-3.662 2.39c-2.134-.302-3.077-2.828-3.481-4.949a63.075 63.075 0 01-.978-7.856 8.098 8.098 0 00-.483-2.694 2.47 2.47 0 00-2.055-1.594c-1.483 0-2.381 1.616-3.673 2.335-2.022 1.122-4.672-.36-5.728-2.402-1.056-2.043-1.045-4.49-1.213-6.734 0-.812-.205-1.611-.595-2.323a1.82 1.82 0 00-2.078-.82 2.761 2.761 0 00-1.213 1.504c-.686 1.493-1.483 3.11-2.977 3.771a4.878 4.878 0 01-3.1.113 8.02 8.02 0 01-4.571-3.233c.27-2.332.671-4.648 1.202-6.936 2.325-10.1 7.166-19.349 14.41-20.797 7.795-1.571 14.983 5.612 19.398 11.089a61.92 61.92 0 014.133 5.814c1.46 2.323 2.246 3.064 1.123 5.611a7.02 7.02 0 00-.505 1.291z"/><path fill="#093F68" d="M62.37 201.65a4.35 4.35 0 01-.538 0c-1.55-.224-3.583-1.413-4.426-5.846a65.172 65.172 0 01-1-7.97v-.179a6.505 6.505 0 00-.381-2.132 1.404 1.404 0 00-1.056-.92c-.438 0-.887.37-1.561.998-.461.456-.974.855-1.528 1.19a4.372 4.372 0 01-3.493.314 6.603 6.603 0 01-3.785-3.176 14.974 14.974 0 01-1.27-6.173l-.067-1.032a3.993 3.993 0 00-.415-1.796c-.191-.292-.55-.449-.72-.382-.168.068-.46.618-.617.943-.618 1.37-1.584 3.446-3.527 4.31a6.036 6.036 0 01-3.841.18 9.154 9.154 0 01-5.212-3.693 1.122 1.122 0 01-.19-.763 61.17 61.17 0 011.224-7.06c1.347-5.858 5.616-19.697 15.275-21.638 6.402-1.291 13.299 2.581 20.487 11.481a62.11 62.11 0 014.223 5.926l.382.606c1.224 1.908 2.044 3.176.831 6.016-.168.415-.337.842-.494 1.257a45.863 45.863 0 00-2.516 10.965 114.245 114.245 0 00-.685 10.494v.168a12.248 12.248 0 01-.786 4.871 5.02 5.02 0 01-4.313 3.042zm-7.424-19.326h.09a3.538 3.538 0 013.067 2.245c.35.914.537 1.883.55 2.862v.19c.159 2.584.478 5.156.955 7.7.27 1.403.966 3.816 2.538 4.04a2.707 2.707 0 002.482-1.75c.45-1.278.65-2.631.584-3.985v-.168c.068-3.524.304-7.127.708-10.696a47.534 47.534 0 012.594-11.47c.169-.45.349-.898.528-1.336.742-1.762.506-2.132-.651-3.94l-.393-.617a61.65 61.65 0 00-4.066-5.712c-6.627-8.205-12.782-11.807-18.297-10.696-5.863 1.122-10.917 8.63-13.546 19.944a60.901 60.901 0 00-1.123 6.386 6.874 6.874 0 003.684 2.447 3.732 3.732 0 002.37 0c1.123-.472 1.752-1.785 2.404-3.21a3.806 3.806 0 011.797-2.065 2.933 2.933 0 013.46 1.245c.498.868.765 1.85.774 2.851l.068 1.055a13 13 0 001.022 5.275 4.335 4.335 0 002.426 2.065c.577.198 1.21.154 1.752-.123a6.738 6.738 0 001.123-.887 4.584 4.584 0 013.1-1.65z"/><path fill="#080C20" d="M92.528 167.588a2.142 2.142 0 00-.09 2.065 3.37 3.37 0 002.348 1.268c2.094.55 4.282.638 6.413.258a4.369 4.369 0 003.37-2.57c.91-2.794-2.426-5.073-4.875-5.241-2.448-.168-6.054 2.155-7.166 4.22z"/><path fill="#093F68" d="M98.92 172.56a21.536 21.536 0 01-4.359-.539 4.347 4.347 0 01-3.1-1.818 3.286 3.286 0 01.079-3.154c1.258-2.323 5.279-5.005 8.21-4.803a7.38 7.38 0 015.29 2.985 4.161 4.161 0 01.573 3.726 5.447 5.447 0 01-4.155 3.367c-.835.173-1.687.252-2.539.236zm-5.403-4.49c-.186.296-.223.661-.101.988.213.393.932.584 1.595.718 1.938.514 3.964.606 5.941.27.483-.112 2.123-.584 2.527-1.83a1.94 1.94 0 00-.303-1.773 5.111 5.111 0 00-3.583-1.998c-1.83-.123-5.11 1.841-6.076 3.625z"/><path fill="#080C20" d="M85.272 177.17l6.447-4.07 3.72 5.882-6.448 4.071z"/><path fill="#093F68" d="M88.979 184.187h-.247c-.29-.069-.54-.25-.696-.505l-3.718-5.87a1.122 1.122 0 01.348-1.548l6.447-4.075c.25-.157.553-.21.842-.145.293.063.547.241.708.493l3.718 5.881a1.122 1.122 0 01-.348 1.55l-6.447 4.096c-.187.097-.397.14-.607.123zm-2.168-6.655l2.516 3.984 4.55-2.873-2.517-3.984-4.549 2.873z"/><path fill="#080C20" d="M95.471 178.99l29.057-17.373a4.344 4.344 0 001.483-6.072 4.358 4.358 0 00-6.133-1.28l-28.17 18.811 3.763 5.915z"/><path fill="#093F68" d="M95.471 180.113c-.382 0-.737-.195-.943-.516l-3.718-5.881a1.122 1.122 0 01.326-1.538l28.17-18.81a5.473 5.473 0 015.521-.282 5.465 5.465 0 01.307 9.53l-29.09 17.34c-.172.106-.37.16-.573.157zm-2.246-6.678l2.55 4.03 28.146-16.836a3.221 3.221 0 001.124-4.489 3.224 3.224 0 00-4.55-.943l-27.27 18.238z"/><path fill="#080C20" d="M81.843 178.323l1.908-1.204a1.413 1.413 0 011.945.438l3.113 4.923c.417.657.221 1.528-.437 1.944h-.001l-1.908 1.205a1.413 1.413 0 01-1.946-.44l-3.112-4.922a1.409 1.409 0 01.437-1.944h.001z"/><path fill="#093F68" d="M85.767 186.926a2.719 2.719 0 01-2.247-1.257l-2.931-4.635a2.704 2.704 0 01.842-3.727l1.606-1.021a2.731 2.731 0 012.045-.348 2.684 2.684 0 011.696 1.19l2.931 4.635a2.715 2.715 0 01-.842 3.737l-1.606 1.01c-.448.28-.967.424-1.494.416zm-1.326-8.81a.461.461 0 00-.247.067l-1.606 1.021a.505.505 0 00-.202.28.527.527 0 00.056.349l2.932 4.635a.472.472 0 00.64.146l1.606-1.022a.46.46 0 00.146-.628l-2.932-4.635a.45.45 0 00-.292-.202l-.1-.012z"/><path fill="#080C20" d="M81.442 178.598l4.617 7.306s-.697 2.638-5.762 4.782a25.993 25.993 0 01-3.808 1.234c-8.547 2.189-12.58-4.186-12.58-4.186 4.493 2.559 6.638-1.628 8.84-6.14l.27-.56c2.302-4.67 8.423-2.436 8.423-2.436z"/><path fill="#093F68" d="M73.007 193.525a12.437 12.437 0 01-10.108-5.151 1.124 1.124 0 011.505-1.582c.772.544 1.738.74 2.662.538 1.853-.573 3.313-3.558 4.605-6.195l.28-.562c2.168-4.433 7.357-3.917 9.806-3.03.233.087.43.249.561.46l4.628 7.307c.166.264.215.585.135.886-.09.326-1 3.233-6.414 5.522a28.274 28.274 0 01-3.964 1.325 15.243 15.243 0 01-3.696.482zm-5.616-3.94a10.553 10.553 0 008.862 1.28 25.285 25.285 0 003.606-1.19c3.257-1.38 4.492-2.94 4.93-3.658l-4.077-6.443c-1.201-.336-5.121-1.19-6.739 2.02l-.28.573c-1.483 3.03-3.168 6.487-5.965 7.34l-.337.079z"/><path fill="#080C20" d="M65.145 182.459c.215.819.516 1.613.898 2.368.684.694 1.727.89 2.618.494a5.301 5.301 0 002.111-1.504c.584-.651 1.123-1.37 1.662-2.02a.831.831 0 01.315-.247c.438-.146.719.572.786.875.093.53.131 1.068.112 1.605v1.717c-.062.3-.062.61 0 .91a.516.516 0 00.259.291c.103.023.21.023.314 0 .528-.123 1.011-.381 1.55-.46a1.202 1.202 0 011.326.651c.134.438-.124.887-.124 1.347.005.484.29.922.73 1.122.316.107.645.175.977.202.635.11 1.221.407 1.685.853-1.257.52-2.552.94-3.875 1.257a12.922 12.922 0 01-13.242-4.354 4.487 4.487 0 01-1.022-3.266"/><path fill="#093F68" d="M73.277 193.48a13.853 13.853 0 01-10.918-5.196 5.53 5.53 0 01-1.246-4.097 1.132 1.132 0 012.246.292 3.365 3.365 0 00.798 2.424 11.72 11.72 0 0012.074 3.962l.898-.247a2.345 2.345 0 01-1.325-2.166c.01-.257.048-.513.112-.763v-.09h-.067c-.217.052-.43.116-.64.191a5.62 5.62 0 01-.809.247 1.708 1.708 0 01-.943 0c-.411-.16-.74-.48-.91-.887a2.445 2.445 0 01-.124-1.268v-.46-1.931c-.303.382-.606.752-.932 1.123a6.346 6.346 0 01-2.56 1.818 3.371 3.371 0 01-3.92-.943 6.731 6.731 0 01-.787-1.885c-.079-.236-.146-.483-.225-.707a1.122 1.122 0 011.234-1.557c.41.077.743.373.867.771.1.28.19.572.27.853.11.452.283.887.516 1.29.101.169.73.248 1.303.057a4.223 4.223 0 001.65-1.212c.293-.326.574-.674.843-1.01.27-.337.528-.674.809-.988.212-.261.492-.46.809-.573.4-.134.837-.089 1.201.124.536.375.906.942 1.034 1.582.109.611.154 1.232.135 1.852V185.635a5.62 5.62 0 01.853-.213 2.247 2.247 0 012.561 1.425c.126.456.126.937 0 1.392-.026.1-.044.2-.056.303a.135.135 0 00.067.112c.12.04.245.062.37.068h.338a4.404 4.404 0 012.246 1.122 1.122 1.122 0 01-.337 1.84 28.274 28.274 0 01-3.965 1.325c-1.133.3-2.298.457-3.47.471z"/><path fill="#080C20" d="M115.688 163.862a10.17 10.17 0 00-7.671-2.054 14.607 14.607 0 00-7.346 3.3 8.103 8.103 0 00-3.133 4.489 8.008 8.008 0 00.224 3.457 15.423 15.423 0 008.334 10.213c5.616 2.514 13.95.673 16.13-5.724 1.527-4.4-3.28-11.044-6.538-13.681z"/><path fill="#093F68" d="M111.454 185.444a14.276 14.276 0 01-5.762-1.19 16.389 16.389 0 01-8.985-10.965 8.804 8.804 0 01-.236-3.94 8.979 8.979 0 013.526-5.117 15.73 15.73 0 017.919-3.547 11.317 11.317 0 018.525 2.313c3.257 2.67 8.615 9.775 6.885 14.87a10.823 10.823 0 01-6.099 6.398 14.456 14.456 0 01-5.773 1.178zm-2.055-22.592c-.402 0-.803.022-1.202.067a13.562 13.562 0 00-6.74 3.053 6.936 6.936 0 00-2.729 3.816 6.73 6.73 0 00.214 2.951 14.29 14.29 0 007.705 9.462 12.431 12.431 0 009.738 0 8.578 8.578 0 004.863-5.062c1.202-3.513-2.864-9.697-6.177-12.424a8.99 8.99 0 00-5.672-1.863z"/><ellipse cx="48.915" cy="157.06" fill="#093F68" rx="2.426" ry="2.424"/><ellipse cx="60.562" cy="174.097" fill="#093F68" rx="2.426" ry="2.424"/><ellipse cx="39.929" cy="163.85" fill="#093F68" rx="2.426" ry="2.424"/><ellipse cx="58.08" cy="161.056" fill="#093F68" rx="2.426" ry="2.424"/><ellipse cx="49.432" cy="170.225" fill="#093F68" rx="2.426" ry="2.424"/><path fill="#093F68" d="M58.563 121.336a13.198 13.198 0 01-12.2-8.133 13.18 13.18 0 012.853-14.375A13.205 13.205 0 0163.6 95.964a13.187 13.187 0 018.15 12.185c-.007 7.276-5.905 13.175-13.187 13.187zm0-24.13a10.951 10.951 0 00-10.125 6.747 10.937 10.937 0 002.366 11.93 10.957 10.957 0 0011.936 2.377 10.943 10.943 0 006.763-10.111c-.006-6.037-4.899-10.93-10.94-10.943zm36.773 24.13c-7.289 0-13.197-5.904-13.197-13.187 0-7.284 5.908-13.188 13.197-13.188 7.289 0 13.198 5.904 13.198 13.188-.006 7.28-5.912 13.181-13.198 13.187zm0-24.13c-6.048 0-10.95 4.9-10.95 10.943 0 6.043 4.902 10.943 10.95 10.943 6.048 0 10.951-4.9 10.951-10.943-.006-6.041-4.905-10.937-10.95-10.943z"/><path fill="#093F68" d="M83.363 107.745c-.238 0-.47-.074-.663-.214a10.115 10.115 0 00-11.445-.695 1.124 1.124 0 01-1.258-1.852 12.531 12.531 0 0114.029.73 1.122 1.122 0 01-.663 2.03zm-36.582-1.123a1.124 1.124 0 01-.82-.348L35.852 95.511a1.123 1.123 0 111.64-1.537l10.109 10.763a1.122 1.122 0 010 1.582 1.124 1.124 0 01-.82.303zm60.326 0a1.124 1.124 0 01-.764-1.941l12.21-11.358a1.124 1.124 0 011.527 1.638l-12.254 11.347c-.194.188-.45.3-.719.314z"/><path fill="#080C20" d="M67.391 126.207l20.218-2.244s-.427 13.052-9.064 13.31c-8.638.259-11.154-11.066-11.154-11.066z"/><path fill="#093F68" d="M78.241 138.44c-9.176 0-11.838-11.492-11.95-11.997a1.122 1.122 0 01.18-.898c.187-.26.477-.428.797-.46l20.217-2.245a1.124 1.124 0 011.247 1.156c0 .573-.573 14.108-10.109 14.4l-.382.045zm-9.412-11.223c.91 2.75 3.64 9.226 9.693 8.979 6.054-.247 7.492-7.856 7.862-10.943l-17.555 1.964z"/></g><g transform="translate(195 247.5)"><path fill="#093F68" d="M116.995 54.624c-.592 0-1.072-.48-1.072-1.07v-6.856c-.379-24.44-20.326-44.056-44.803-44.056-24.476 0-44.423 19.615-44.802 44.056v6.855a1.072 1.072 0 01-2.145 0v-6.855C24.561 21.08 45.466.516 71.12.516c25.655 0 46.56 20.564 46.948 46.182v6.855a1.07 1.07 0 01-1.073 1.071z"/><path fill="#080C20" d="M113.8 196.54c0 4.081 7.26 4.06 16.215 4.06s16.205 0 16.205-4.06c0-4.059-7.26-9.639-16.205-9.639-8.945 0-16.216 5.559-16.216 9.64z"/><path fill="#093F68" d="M130.347 201.671h-.504c-3.85.12-7.705-.055-11.529-.525-1.383-.235-5.587-.974-5.587-4.605 0-4.82 7.979-10.711 17.288-10.711 9.309 0 17.277 5.902 17.277 10.71 0 3.632-4.204 4.37-5.587 4.606-3.767.47-7.564.646-11.358.525zm-.504-2.142h.494a71.948 71.948 0 0011.003-.493c3.807-.664 3.807-1.95 3.807-2.495 0-3.385-6.778-8.569-15.132-8.569-8.355 0-15.143 5.195-15.143 8.569 0 .546 0 1.831 3.807 2.495 3.704.44 7.436.604 11.164.493z"/><path fill="#080C20" d="M112.909 182.842s5.437 1.81 6.639 4.016c1.2 2.207 2.22 11.46 5.233 10.657 3.014-.803.408-10.046 2.82-9.854 2.414.193 19.026 8.248 18.619 4.028-.408-4.22-7.947-10.86-14.393-14.074-6.445-3.213-17.427-4.627-17.427-4.627l-1.491 9.854z"/><path fill="#093F68" d="M124.406 198.64a2.47 2.47 0 01-1.234-.343c-1.694-.985-2.541-3.791-3.56-7.647a19.325 19.325 0 00-1.019-3.278c-.73-1.339-4.086-2.86-6.038-3.513a1.071 1.071 0 01-.718-1.178l1.501-9.854c.088-.572.615-.97 1.19-.9.462 0 11.24 1.468 17.771 4.724 5.963 2.988 14.49 9.832 15.015 14.93.1.713-.191 1.425-.762 1.864-1.92 1.468-7.11-.343-14.231-3.063-1.791-.675-3.797-1.446-4.58-1.617a14.548 14.548 0 00-.214 3.063c0 2.86 0 6.094-2.435 6.726a2.655 2.655 0 01-.686.086zm-10.317-16.505c1.705.642 5.298 2.206 6.434 4.22a19.732 19.732 0 011.212 3.749c.558 2.142 1.502 5.73 2.564 6.34.073.04.162.04.235 0 .805-.214.837-3.117.848-4.67 0-2.142 0-3.909.976-4.766a1.707 1.707 0 011.362-.45 27.77 27.77 0 015.362 1.789c3.217 1.221 10.639 4.049 12.097 3.395-.407-3.491-7.067-9.854-13.791-13.217-5.073-2.527-13.192-3.93-16.087-4.37l-1.212 7.98z"/><path fill="#080C20" d="M78.086 52.097c-15.347-1.885-35.005 2.067-46.234 13.152a13.205 13.205 0 00-3.904 5.795c-1.92 7.39-.171 14.61-6.702 20.168-1.663 1.424-3.572 2.57-5.095 4.156-4.933 5.14-3.914 14.695 2.006 18.68-3.336 3.212-3.85 8.482-2.831 13.002 1.833 8.183 7.936 14.995 15.207 19.14 7.271 4.145 15.647 6.083 23.97 7.197 12.108 1.618 24.57 1.693 36.378-1.413 11.807-3.107 22.972-9.586 30.297-19.355a22.704 22.704 0 004.804-10.571c.751-6.009-2.145-11.782-4.922-17.137 4.075-4.788 5.072-11.685 3.625-17.79-1.448-6.106-5.105-11.514-9.395-16.066a61.737 61.737 0 00-37.204-18.958z"/><path fill="#093F68" d="M70.193 155.562a120.689 120.689 0 01-15.84-1.071c-10.49-1.404-17.996-3.663-24.356-7.327-8.226-4.744-13.942-11.974-15.723-19.836-1.147-5.12-.29-9.907 2.296-13.088a13.457 13.457 0 01-4.558-8.944c-.5-3.864.733-7.751 3.367-10.624a25.634 25.634 0 013.218-2.721c.675-.503 1.319-.985 1.94-1.51 4.29-3.61 4.709-7.905 5.266-12.853.194-2.269.553-4.52 1.073-6.737a14.158 14.158 0 014.183-6.287C43.027 52.782 63.35 49.29 78.183 51.1A63.197 63.197 0 01116.04 70.38c5.072 5.42 8.322 11 9.652 16.58 1.598 6.694.321 13.42-3.39 18.208 2.543 4.905 5.492 10.903 4.72 17.19-.44 3.535-2.081 7.166-5.02 11.075-7.003 9.34-17.974 16.356-30.876 19.75a82.092 82.092 0 01-20.934 2.379zm-.14-102.887c-16.462 0-30.307 6.287-37.45 13.335a12.274 12.274 0 00-3.614 5.355 45.616 45.616 0 00-1.073 6.427c-.557 4.98-1.072 10.121-6.016 14.277-.665.567-1.362 1.07-2.049 1.606a24.241 24.241 0 00-2.97 2.475 11.771 11.771 0 001.833 17.051c.265.182.435.473.462.793a1.07 1.07 0 01-.322.867c-2.681 2.614-3.625 7.09-2.531 11.996 1.64 7.283 7.003 14.01 14.703 18.455 6.103 3.513 13.374 5.687 23.595 7.058 13.695 1.831 25.46 1.37 35.97-1.393 12.44-3.213 22.983-10.003 29.707-18.957 2.703-3.61 4.215-6.898 4.601-10.058.676-5.451-1.78-10.71-4.815-16.558a1.07 1.07 0 01.14-1.19c3.57-4.187 4.868-10.646 3.399-16.847-1.244-5.216-4.29-10.464-9.137-15.616A61.04 61.04 0 0077.936 53.2a64.516 64.516 0 00-7.883-.525z"/><path fill="#080C20" d="M70.632 9.907h1.684c21.625 0 39.156 17.508 39.156 39.105v11.557H31.488V49.012c0-21.597 17.53-39.105 39.155-39.105h-.01z"/><path fill="#093F68" d="M111.536 61.65H31.488c-.593 0-1.073-.479-1.073-1.07V49.011C30.44 26.838 48.43 8.866 70.632 8.836h1.695c22.226 0 40.252 17.979 40.282 40.176v11.567c0 .592-.48 1.072-1.073 1.072zm-78.922-2.142h77.85V49.012c-.024-20.996-17.06-38.01-38.083-38.034h-1.695c-21.021.024-38.055 17.04-38.072 38.034v10.496zm45.965 61.062c-.592 0-1.072-.48-1.072-1.071V112H64.809v7.498a1.072 1.072 0 01-2.145 0v-8.569c0-.591.48-1.07 1.073-1.07h14.842c.593 0 1.073.479 1.073 1.07v8.569c0 .591-.48 1.07-1.073 1.07z"/><path fill="#080C20" d="M71.126 112.912c-21.9 0-39.681-13.014-39.681-37.006V59.112c23.369 4.38 26.93-19.847 26.93-19.847C79.576 76.09 110.71 51.732 110.71 51.732v24.174c.042 23.992-17.696 37.006-39.585 37.006z"/><path fill="#093F68" d="M71.126 113.983c-24.356 0-40.754-15.295-40.754-38.077V59.112a1.071 1.071 0 011.266-1.07c6.434 1.21 11.958.256 16.301-2.85 7.733-5.505 9.363-16.002 9.373-16.066.07-.448.413-.804.858-.889.45-.09.907.118 1.137.514 6.35 11.043 14.221 17.544 23.401 19.28 14.382 2.795 27.22-7.07 27.348-7.166a1.074 1.074 0 011.738.846v24.174c.043 22.803-16.345 38.098-40.668 38.098zM32.517 60.43v15.52c0 24.827 19.369 35.934 38.609 35.934 19.24 0 38.608-11.107 38.608-35.935V53.79c-4.128 2.72-15.014 8.761-27.347 6.426-9.148-1.778-17.031-7.85-23.466-18.047-1.072 3.749-3.635 10.56-9.652 14.845-4.59 3.192-10.2 4.338-16.709 3.374l-.043.043z"/><ellipse cx="51.489" cy="74.61" fill="#093F68" rx="3.807" ry="3.802"/><ellipse cx="90.752" cy="74.61" fill="#093F68" rx="3.807" ry="3.802"/><path fill="#093F68" d="M71.533 87.088a25.15 25.15 0 01-3.689-.3 1.073 1.073 0 11.375-2.11c1.908.308 3.852.308 5.76 0 .332-.985-1.073-5.162-3.218-9.125a1.07 1.07 0 01.989-1.59c.388.018.737.246.91.594 1.072 1.981 4.29 8.633 3.217 11.075-.238.542-.72.94-1.298 1.07-.996.252-2.019.381-3.046.386zm-46.04-40.325h5.995v39.136h-5.996c-4.389 0-7.946-3.553-7.946-7.936V54.699c0-4.383 3.557-7.936 7.946-7.936z"/><path fill="#093F68" d="M31.488 86.96h-5.996c-4.977 0-9.013-4.026-9.019-8.997V54.699c.006-4.972 4.04-9.001 9.02-9.007h5.995c.592 0 1.072.48 1.072 1.07V85.89c0 .591-.48 1.07-1.072 1.07zm-5.996-39.126c-3.796 0-6.874 3.074-6.874 6.865v23.264c.006 3.787 3.082 6.855 6.874 6.855h4.923V47.834h-4.923zM116.759 85.888h-5.995V46.751h5.995c4.389 0 7.947 3.554 7.947 7.937V77.95c0 4.384-3.558 7.937-7.947 7.937z"/><path fill="#093F68" d="M116.748 86.96h-5.984c-.592 0-1.072-.48-1.072-1.071V46.763c0-.592.48-1.071 1.072-1.071h5.984c4.98.006 9.014 4.035 9.02 9.007v23.264c-.006 4.97-4.042 8.997-9.02 8.997zm-4.911-2.142h4.911c3.793 0 6.869-3.068 6.875-6.855V54.699c0-3.791-3.078-6.865-6.875-6.865h-4.911v36.984zM71.49 101.75a16.469 16.469 0 01-8.14-1.96 11.885 11.885 0 01-5.201-5.44 1.074 1.074 0 011.995-.793c.171.439 4.547 10.56 22.522 3.62a1.073 1.073 0 11.772 2.003 33.852 33.852 0 01-11.948 2.57zm-26.382 4.456c-5.19 0-12.205-.6-15.755-3.46-5.984-4.84-5.759-16.27-5.748-16.751a1.072 1.072 0 012.145 0c0 .107-.204 10.86 4.944 14.995 5.148 4.134 20.377 2.72 20.548 2.71a1.072 1.072 0 01.215 2.131c-.258.107-2.907.375-6.35.375z"/><path fill="#093F68" d="M53.913 109.142H43.639a4.759 4.759 0 01-4.762-4.756 4.759 4.759 0 014.762-4.755h10.274c2.63 0 4.761 2.129 4.761 4.755a4.759 4.759 0 01-4.761 4.756zm-10.274-7.39a2.615 2.615 0 00-2.617 2.613 2.615 2.615 0 002.617 2.613h10.274a2.615 2.615 0 002.617-2.613 2.615 2.615 0 00-2.617-2.614H43.639z"/><path fill="#080C20" d="M53.13 119.499h36.045c12.86 0 23.284 10.41 23.284 23.253v50.704h-82.58v-50.694c-.006-12.833 10.4-23.245 23.25-23.263z"/><path fill="#093F68" d="M112.47 194.538H29.89c-.593 0-1.073-.48-1.073-1.071v-50.705c.012-13.43 10.908-24.317 24.356-24.334h36.045c13.453.012 24.355 10.9 24.367 24.334v50.705a1.071 1.071 0 01-1.116 1.07zm-81.508-2.142h80.435v-49.634c-.018-12.249-9.956-22.174-22.222-22.192H53.13c-12.264.018-22.2 9.945-22.21 22.192l.042 49.634zM42.341 66.899a1.704 1.704 0 01-.214-3.385l17.716-2.217a1.703 1.703 0 01.418 3.374l-17.716 2.217-.204.01zm57.57 0h-.172l-17.717-2.217a1.703 1.703 0 01.418-3.374l17.717 2.217a1.704 1.704 0 01-.203 3.384l-.043-.01z"/><path fill="#080C20" d="M71.158 138.778c-8.998 0-21.964-19.28-21.964-19.28H93.11s-12.966 19.28-21.953 19.28z"/><path fill="#093F68" d="M71.158 139.85c-9.46 0-22.307-18.948-22.854-19.751a1.07 1.07 0 010-1.071c.186-.349.548-.567.944-.568h43.917c.4-.003.767.216.954.568a1.07 1.07 0 01-.064 1.07c-.59.804-13.449 19.751-22.897 19.751zm-19.905-19.28c4.29 5.987 13.642 17.137 19.905 17.137 6.263 0 15.583-11.15 19.905-17.137h-39.81z"/><path fill="#093F68" d="M63.951 126.247c-3.41 0-8.472-4.927-9.513-5.988a1.07 1.07 0 01.762-1.831h15.84c.41-.001.785.232.965.6.181.364.14.8-.107 1.124-.397.525-3.979 5.12-7.153 5.987-.258.074-.526.11-.794.108zm-6.038-5.677c2.477 2.142 5.137 3.813 6.263 3.513 1.416-.396 3.218-2.078 4.558-3.513H57.913z"/><path fill="#093F68" d="M78.354 126.247a2.706 2.706 0 01-.783-.108c-3.217-.867-6.756-5.462-7.153-5.987a1.07 1.07 0 01.847-1.724h15.851c.433.002.822.264.987.664.168.399.079.86-.225 1.167-1.008 1.05-6.113 5.988-9.524 5.988zm-4.772-5.677c1.319 1.435 3.131 3.117 4.558 3.513 1.072.3 3.786-1.382 6.252-3.513h-10.81z"/><path fill="#093F68" d="M71.265 139.85c-.592 0-1.072-.48-1.072-1.072v-19.28a1.072 1.072 0 012.145 0v19.28c0 .592-.48 1.071-1.073 1.071z"/><path fill="#080C20" d="M21.095 115.215s-27.08 51.207-17.16 62.014c9.921 10.807 22.34 3.567 25.965-4.284 3.625-7.85 5.288-51.915 5.288-51.915l-14.093-5.815z"/><path fill="#093F68" d="M15.25 183.774c-3.453 0-7.829-1.222-12.065-5.816-10.36-11.247 15.84-61.126 16.956-63.247a1.073 1.073 0 011.362-.482l14.092 5.827c.43.175.7.608.665 1.07-.075 1.811-1.673 44.375-5.362 52.322a18.572 18.572 0 01-13.363 10.186c-.757.103-1.52.15-2.285.14zm6.339-67.2c-7.668 14.707-24.42 51.69-16.827 59.927 3.646 3.963 7.957 5.677 12.462 4.97a16.48 16.48 0 0011.733-8.965c3.217-7.005 4.88-44.985 5.115-50.758l-12.483-5.173z"/><path fill="#080C20" d="M29.546 95.507s17.921-1.8 19.53 2.217c1.609 4.017-4.033 5.023-10.671 4.22 0 0 5.437 3.02 5.437 8.247s-8.654 10.84-8.654 10.84l-14.093-5.827s.193-15.07 8.451-19.697z"/><path fill="#093F68" d="M35.188 122.102a1.152 1.152 0 01-.419-.075l-14.092-5.838c-.4-.169-.658-.562-.654-.996 0-.642.31-15.755 8.998-20.629a.955.955 0 01.418-.128c4.397-.44 18.865-1.542 20.634 2.881a3.552 3.552 0 01-.332 3.695c-1.448 1.896-4.858 2.303-7.936 2.25a9.902 9.902 0 013.11 6.919c0 5.74-8.773 11.503-9.148 11.781-.176.1-.377.149-.58.14zM22.2 114.497l12.87 5.355c2.52-1.746 7.71-6.073 7.71-9.64 0-4.551-4.836-7.283-4.89-7.304a1.07 1.07 0 01.654-2.003c5.813.707 8.762-.182 9.513-1.167.182-.247.397-.675 0-1.596-.804-2.003-10.017-2.367-18.232-1.564-6.402 3.802-7.464 14.984-7.625 17.93v-.011z"/><path fill="#080C20" d="M111.536 209.083H27.584a7.74 7.74 0 01-7.733-7.144l-3.743-48.198a7.738 7.738 0 012.04-5.86 7.76 7.76 0 015.693-2.484h91.427c2.162 0 4.225.9 5.693 2.484a7.738 7.738 0 012.04 5.86l-3.743 48.198a7.74 7.74 0 01-7.722 7.144z"/><path fill="#093F68" d="M111.536 210.154H27.584a8.865 8.865 0 01-8.805-8.13l-3.743-48.198a8.819 8.819 0 012.326-6.67 8.842 8.842 0 016.479-2.83h91.427a8.842 8.842 0 016.48 2.83 8.819 8.819 0 012.325 6.67l-3.743 48.198a8.865 8.865 0 01-8.794 8.13zm-87.684-63.718a6.685 6.685 0 00-4.907 2.144 6.667 6.667 0 00-1.753 5.054l3.732 48.198a6.71 6.71 0 006.67 6.158h83.942a6.71 6.71 0 006.671-6.158l3.732-48.198a6.667 6.667 0 00-1.754-5.054 6.685 6.685 0 00-4.906-2.144H23.852z"/><path fill="#093F68" d="M69.55 185.99c-4.846 0-8.773-3.922-8.773-8.76 0-4.84 3.927-8.762 8.772-8.762 4.845 0 8.773 3.923 8.773 8.761-.006 4.837-3.93 8.756-8.773 8.762zm0-15.38a6.624 6.624 0 00-6.629 6.62 6.624 6.624 0 006.628 6.618 6.624 6.624 0 006.628-6.619 6.634 6.634 0 00-6.628-6.619z"/></g><g fill="#093F68"><path d="M405.842 276.404h-26.2c-.658 0-1.191-.536-1.191-1.196v-26.311c0-.66.533-1.196 1.19-1.196h26.2c.659 0 1.192.535 1.192 1.196v26.31c0 .661-.533 1.197-1.191 1.197zm-25.01-2.392h23.819v-23.92h-23.818v23.92z"/><path d="M377.059 293.153c-8.633.007-15.638-7.013-15.649-15.682-.01-8.67 6.976-15.708 15.609-15.723 8.633-.015 15.645 6.998 15.664 15.667a15.737 15.737 0 01-4.563 11.122 15.604 15.604 0 01-11.061 4.616zm0-29.001a13.254 13.254 0 00-12.26 8.22 13.352 13.352 0 002.888 14.516 13.214 13.214 0 0014.462 2.86c4.953-2.075 8.172-6.944 8.153-12.333-.033-7.326-5.949-13.25-13.243-13.263z"/></g></g></svg>