<svg xmlns="http://www.w3.org/2000/svg" width="104" height="74"><g fill="none"><path fill="#080C20" d="M22.941 7.629h28.98v13.087h-28.98z"/><path fill="#093F68" d="M51.926 21.143H22.94a.439.439 0 01-.437-.44V7.628c0-.243.196-.44.437-.44h28.985c.241 0 .437.197.437.44v13.073c0 .244-.196.44-.437.44zm-28.548-.881h28.11V8.07h-28.11v12.192z"/><path fill="#3EE9E5" d="M101.212 61.292H3.557V44.995c0-1.615.194-3.224.577-4.793.238-.94.54-1.863.904-2.762L9.762 25.8l.734-1.806a5.244 5.244 0 014.837-3.29h44.489c1.41 0 2.759.575 3.74 1.594l3.37 3.484 11.514 11.92a10.76 10.76 0 007.725 3.285h8.74c2.354.005 4.328 1.795 4.58 4.154l.576 5.193 1.145 10.96z"/><path fill="#093F68" d="M101.212 61.733H3.557a.439.439 0 01-.437-.44V44.994c.002-1.65.2-3.295.59-4.898.241-.968.55-1.917.922-2.842l5.462-13.452a5.641 5.641 0 015.244-3.524h44.484a5.659 5.659 0 014.055 1.727L78.76 37.423a10.316 10.316 0 007.429 3.154h8.74a5.044 5.044 0 014.553 2.911c.247.513.402 1.067.459 1.634l1.704 16.104a.443.443 0 01-.11.344.436.436 0 01-.323.163zm-97.218-.881h96.733l-1.656-15.655a4.122 4.122 0 00-.38-1.348 4.175 4.175 0 00-3.767-2.409h-8.74a11.182 11.182 0 01-8.04-3.418L63.265 22.605a4.788 4.788 0 00-3.443-1.462H15.333a4.768 4.768 0 00-4.409 3.013l-5.48 13.447a19.919 19.919 0 00-1.438 7.409l-.012 15.84z"/><path fill="#3EE9E5" d="M2.185 58.359H9.39v4.63H2.185c-.444 0-.87-.179-1.184-.495a1.694 1.694 0 01-.49-1.193v-1.255c0-.932.75-1.687 1.674-1.687z"/><path fill="#093F68" d="M9.373 63.429H2.185A2.12 2.12 0 01.079 61.3v-1.255a2.12 2.12 0 012.106-2.128H9.39c.24 0 .437.197.437.44v4.63c0 .12-.049.235-.135.318a.435.435 0 01-.32.123zm-7.188-4.63a1.242 1.242 0 00-1.232 1.247V61.3c0 .687.55 1.244 1.232 1.247h6.769v-3.749h-6.77z"/><path fill="#3EE9E5" d="M94.627 58.359h7.188a1.68 1.68 0 011.674 1.687V61.3c0 .447-.177.877-.49 1.193-.314.316-.74.494-1.184.494h-7.188v-4.63z"/><path fill="#093F68" d="M101.815 63.429h-7.188a.439.439 0 01-.437-.44v-4.63c0-.244.196-.44.437-.44h7.188a2.12 2.12 0 012.106 2.127V61.3a2.12 2.12 0 01-2.106 2.128zm-6.769-.881h6.77a1.242 1.242 0 001.231-1.247v-1.255c0-.687-.55-1.244-1.232-1.247h-6.751l-.018 3.749z"/><ellipse cx="85.271" cy="62.314" fill="#080C20" rx="11.125" ry="11.215"/><path fill="#093F68" d="M85.271 73.965c-4.677 0-8.893-2.84-10.682-7.196-1.79-4.356-.8-9.37 2.508-12.702a11.495 11.495 0 0112.602-2.524c4.32 1.806 7.136 6.057 7.135 10.771-.01 6.432-5.182 11.643-11.563 11.65zm0-22.425c-4.323 0-8.22 2.625-9.875 6.651a10.837 10.837 0 002.317 11.742 10.626 10.626 0 0011.649 2.335c3.994-1.668 6.598-5.596 6.598-9.954-.003-5.95-4.786-10.773-10.689-10.778v.004z"/><ellipse cx="85.271" cy="62.314" fill="#093F68" rx="5.392" ry="5.435"/><path fill="#093F68" d="M85.271 68.19a5.829 5.829 0 01-5.385-3.627 5.91 5.91 0 011.263-6.404 5.795 5.795 0 016.353-1.274 5.877 5.877 0 013.599 5.43c-.005 3.242-2.612 5.87-5.83 5.875zm0-10.87c-2.736 0-4.955 2.236-4.955 4.994 0 2.759 2.219 4.995 4.955 4.995 2.737 0 4.956-2.236 4.956-4.995-.003-2.757-2.22-4.992-4.956-4.995z"/><ellipse cx="17.549" cy="62.314" fill="#080C20" rx="11.125" ry="11.215"/><path fill="#093F68" d="M17.549 73.965c-4.677 0-8.893-2.84-10.683-7.196-1.79-4.356-.8-9.37 2.509-12.702a11.495 11.495 0 0112.602-2.524c4.32 1.806 7.136 6.057 7.134 10.771-.007 6.433-5.18 11.646-11.562 11.65zm0-22.425c-5.903 0-10.688 4.824-10.688 10.774 0 5.95 4.785 10.774 10.688 10.774 5.903 0 10.688-4.823 10.688-10.774-.002-5.95-4.785-10.773-10.688-10.778v.004z"/><ellipse cx="17.549" cy="62.314" fill="#093F68" rx="5.392" ry="5.435"/><path fill="#093F68" d="M17.549 68.19c-3.22 0-5.83-2.63-5.83-5.876 0-3.245 2.61-5.876 5.83-5.876s5.83 2.631 5.83 5.876c-.006 3.243-2.613 5.871-5.83 5.876zm0-10.87c-2.737 0-4.955 2.236-4.955 4.994 0 2.759 2.218 4.995 4.955 4.995s4.955-2.236 4.955-4.995c-.002-2.757-2.22-4.992-4.955-4.995z"/><path fill="#080C20" d="M36.618 25.794V40.22H4.13c.24-.946.544-1.875.91-2.78L9.761 25.8l26.856-.005z"/><path fill="#093F68" d="M36.618 40.66H4.134a.436.436 0 01-.355-.165.443.443 0 01-.082-.385c.242-.967.55-1.917.922-2.841l4.724-11.642a.437.437 0 01.406-.273h26.87c.24 0 .436.197.436.44V40.22c0 .243-.195.44-.437.44zM4.72 39.78h31.463V26.234H10.05L5.44 37.603a20.87 20.87 0 00-.738 2.176h.017z"/><path fill="#080C20" d="M82.151 40.22H41.95V25.794h24.955l11.514 11.92a10.64 10.64 0 003.732 2.506z"/><path fill="#093F68" d="M82.151 40.66H41.95a.439.439 0 01-.437-.44V25.794c0-.243.195-.44.437-.44h24.955c.117 0 .229.048.31.132l11.515 11.92a10.295 10.295 0 003.565 2.404.441.441 0 01-.161.85h.017zm-39.764-.88h37.929a11.146 11.146 0 01-2.185-1.763L66.748 26.235H42.413l-.026 13.544zm28.67 19.02H32.772a.439.439 0 01-.437-.441c0-.244.196-.44.437-.44H71.04c.241 0 .437.196.437.44 0 .243-.196.44-.437.44h.017zm-32.04-1.85a.439.439 0 01-.436-.441V42.546c0-.244.195-.44.436-.44.242 0 .437.196.437.44v13.963c0 .243-.195.44-.437.44zm10.361-11.651h-4.724a.439.439 0 01-.437-.44c0-.244.196-.441.437-.441h4.724c.241 0 .437.197.437.44s-.196.44-.437.44zm-15.997 0h-4.707a.439.439 0 01-.437-.44c0-.244.196-.441.437-.441h4.707c.24 0 .436.197.436.44s-.195.44-.436.44z"/><path fill="#080C20" d="M1.031 43.7h2.526v7.404H1.031z"/><path fill="#093F68" d="M3.557 51.536H1.031a.439.439 0 01-.437-.44V43.7c0-.244.196-.44.437-.44h2.526c.241 0 .437.196.437.44v7.395c0 .244-.196.44-.437.44zm-2.089-.881H3.12V44.14H1.468v6.515z"/><path fill="#080C20" d="M100.067 50.333h-3.67a1.82 1.82 0 01-1.814-1.828v-3.021a1.82 1.82 0 011.814-1.828h2.687c.229.47.377.977.437 1.497l.546 5.18z"/><path fill="#093F68" d="M100.067 50.774h-3.67a2.264 2.264 0 01-2.25-2.269v-3.021a2.264 2.264 0 012.25-2.269h2.687c.168 0 .321.098.393.251.247.515.402 1.07.46 1.639l.567 5.184a.435.435 0 01-.437.485zm-3.657-6.678c-.76 0-1.377.621-1.377 1.388v3.021c0 .767.617 1.388 1.377 1.388h3.172l-.498-4.696a4.434 4.434 0 00-.27-1.1H96.41zm-83.615-6.559a.436.436 0 01-.35-.176.443.443 0 01.087-.616l11.02-8.33a.434.434 0 01.613.088.443.443 0 01-.088.617l-11.02 8.32a.435.435 0 01-.262.097zm12.742-1.347a.443.443 0 01-.275-.784l7.843-6.48a.435.435 0 01.616.062.443.443 0 01-.06.62l-7.845 6.48a.435.435 0 01-.28.102zm21.468 1.347a.435.435 0 01-.437-.46.442.442 0 01.145-.306l10.094-9.334a.435.435 0 01.618.029c.163.18.15.459-.028.623L47.303 37.44a.435.435 0 01-.298.097zm13.429-1.347a.443.443 0 01-.306-.753l4.806-4.846c.17-.17.446-.17.617 0 .169.172.169.45 0 .621l-4.807 4.845a.435.435 0 01-.31.133zm-3.33-15.047H17.479a.436.436 0 01-.37-.173.443.443 0 01-.067-.404l1.888-5.836c.06-.19.24-.314.437-.304h35.832c.189 0 .356.122.415.304l1.888 5.836a.443.443 0 01-.062.396.436.436 0 01-.336.18zm-39.013-.881h38.414l-1.603-4.955H19.694l-1.603 4.955z"/><path fill="#080C20" d="M28.6.476h19v7.153h-19z"/><path fill="#093F68" d="M47.595 8.07H28.6a.439.439 0 01-.437-.441V.476c0-.244.196-.44.437-.44h18.995c.242 0 .437.196.437.44v7.153c0 .243-.195.44-.437.44zm-18.558-.881h18.121V.916H29.037V7.19z"/><path fill="#093F68" d="M29.212 21.143a.434.434 0 01-.127 0 .441.441 0 01-.293-.546L34.762.335a.436.436 0 01.541-.295.441.441 0 01.297.546l-5.969 20.262a.437.437 0 01-.42.295zm18.047 0a.437.437 0 01-.437-.317L41.002.564a.441.441 0 01.296-.542.434.434 0 01.542.3l5.82 20.261a.441.441 0 01-.296.547.373.373 0 01-.105.013zM27.337 9.845h-2.22a.439.439 0 01-.437-.44c0-.244.196-.441.437-.441h2.22c.241 0 .437.197.437.44s-.196.44-.437.44zm4.125-7.25h-1.376a.439.439 0 01-.437-.441c0-.243.195-.44.437-.44h1.376c.242 0 .437.197.437.44s-.195.44-.437.44z"/></g></svg>