<svg width="155" height="30" xmlns="http://www.w3.org/2000/svg" xmlns:xlink="http://www.w3.org/1999/xlink"><defs><circle id="a" cx="15" cy="15" r="15"/></defs><g fill="none" fill-rule="evenodd"><g><circle fill="#5175FF" cx="30" cy="15" r="15"/><mask id="b" fill="#fff"><use xlink:href="#a"/></mask><use fill="#5175FF" xlink:href="#a"/><circle fill="#B4C4FF" opacity=".324" mask="url(#b)" cx="30" cy="15" r="15"/></g><path d="M60.13 21.291c1.18 0 2.228-.254 3.147-.763a5.73 5.73 0 002.177-2.092c.533-.886.799-1.895.799-3.026 0-1.13-.266-2.139-.799-3.025a5.73 5.73 0 00-2.177-2.092c-.919-.51-1.968-.764-3.147-.764-1.18 0-2.23.255-3.154.764a5.72 5.72 0 00-2.182 2.092c-.533.886-.799 1.894-.799 3.025s.266 2.14.799 3.026a5.72 5.72 0 002.182 2.092c.923.509 1.974.763 3.154.763zm0-2.827c-.843 0-1.54-.29-2.09-.87-.552-.581-.828-1.31-.828-2.184 0-.874.276-1.602.827-2.182.551-.581 1.248-.871 2.09-.871.843 0 1.54.29 2.092.87.551.581.827 1.309.827 2.183 0 .875-.276 1.603-.827 2.183-.552.58-1.249.87-2.091.87zm12.82 2.601v-8.482h2.792V9.756H72.95V8.67c0-.671.151-1.167.454-1.487.303-.32.699-.481 1.189-.481.176 0 .371.026.586.08.214.052.417.158.609.316l1.275-2.296a5.744 5.744 0 00-1.51-.701 5.457 5.457 0 00-1.534-.226 4.65 4.65 0 00-2.16.514 4.064 4.064 0 00-1.608 1.487c-.406.649-.61 1.433-.61 2.353v1.527h-1.895v2.827h1.896v8.482h3.308zm10.466 0v-8.482h2.791V9.756h-2.791V8.67c0-.671.15-1.167.453-1.487.303-.32.7-.481 1.19-.481.176 0 .37.026.585.08.215.052.418.158.61.316l1.274-2.296a5.744 5.744 0 00-1.51-.701 5.457 5.457 0 00-1.534-.226 4.65 4.65 0 00-2.16.514 4.064 4.064 0 00-1.608 1.487c-.406.649-.609 1.433-.609 2.353v1.527h-1.895v2.827h1.895v8.482h3.309zm7.42-13.345c.552 0 .996-.166 1.333-.498.337-.331.506-.769.506-1.312s-.169-.98-.506-1.312c-.337-.331-.78-.497-1.332-.497s-.996.166-1.333.497c-.337.332-.505.77-.505 1.312 0 .543.168.98.505 1.312.337.332.781.498 1.333.498zm1.655 13.345V9.755h-3.309v11.31h3.309zm8.34.226c.911 0 1.756-.147 2.533-.44a5.946 5.946 0 002.005-1.234l-2.332-2.16c-.552.671-1.287 1.007-2.206 1.007-.842 0-1.54-.29-2.09-.87-.552-.581-.828-1.31-.828-2.184 0-.874.276-1.602.827-2.182.552-.581 1.249-.871 2.091-.871.92 0 1.654.335 2.206 1.006l2.332-2.16a5.946 5.946 0 00-2.005-1.233 7.102 7.102 0 00-2.533-.44c-1.218 0-2.303.254-3.257.763a5.846 5.846 0 00-2.257 2.092c-.551.886-.827 1.894-.827 3.025s.276 2.14.827 3.026a5.846 5.846 0 002.257 2.092c.954.509 2.04.763 3.257.763zm12.395 0c.797 0 1.63-.128 2.499-.384.87-.257 1.748-.728 2.636-1.414l-1.998-2.352a5.74 5.74 0 01-1.43.978c-.525.253-1.186.379-1.982.379-.743 0-1.392-.196-1.947-.588a2.972 2.972 0 01-1.143-1.527h8.96v-.984c0-1.138-.26-2.149-.781-3.03a5.632 5.632 0 00-2.131-2.082c-.9-.505-1.928-.758-3.085-.758-1.164 0-2.203.255-3.119.764a5.726 5.726 0 00-2.165 2.08c-.528.88-.793 1.88-.793 3.003 0 1.139.276 2.155.827 3.048.552.894 1.314 1.595 2.287 2.104.972.509 2.094.763 3.365.763zm2.195-6.718h-5.63c.161-.648.5-1.18 1.017-1.594.517-.415 1.128-.622 1.833-.622.696 0 1.294.203 1.792.61.497.408.827.943.988 1.606zm8.891 6.492V3.648h-3.308v17.417h3.308zM128.77 7.72c.552 0 .996-.166 1.333-.498.337-.331.505-.769.505-1.312s-.168-.98-.505-1.312c-.337-.331-.781-.497-1.333-.497-.551 0-.995.166-1.332.497-.337.332-.506.77-.506 1.312 0 .543.169.98.506 1.312.337.332.781.498 1.332.498zm1.655 13.345V9.755h-3.309v11.31h3.309zm8.248.226c.704 0 1.42-.14 2.148-.418v-2.67c-.421.174-.83.26-1.23.26-.535 0-.977-.152-1.326-.457-.348-.305-.523-.726-.523-1.261v-4.162h2.792V9.756h-2.792V6.928h-3.308v2.828h-1.896v2.827h1.896v4.535c0 1.342.366 2.373 1.097 3.093.731.72 1.779 1.08 3.142 1.08zm10.35 0c.797 0 1.63-.128 2.499-.384.87-.257 1.748-.728 2.636-1.414l-1.998-2.352a5.74 5.74 0 01-1.43.978c-.525.253-1.186.379-1.982.379-.743 0-1.392-.196-1.947-.588a2.972 2.972 0 01-1.144-1.527h8.961v-.984c0-1.138-.26-2.149-.781-3.03a5.632 5.632 0 00-2.131-2.082c-.9-.505-1.928-.758-3.085-.758-1.164 0-2.203.255-3.119.764a5.726 5.726 0 00-2.165 2.08c-.528.88-.793 1.88-.793 3.003 0 1.139.276 2.155.827 3.048.552.894 1.314 1.595 2.286 2.104.973.509 2.095.763 3.366.763zm2.195-6.718h-5.63c.161-.648.5-1.18 1.017-1.594.517-.415 1.128-.622 1.833-.622.696 0 1.294.203 1.792.61.497.408.827.943.988 1.606z" fill="#25293A" fill-rule="nonzero"/></g></svg>